<svg width="52" height="52" viewBox="0 0 52 52" fill="none" xmlns="http://www.w3.org/2000/svg">
<rect width="52" height="52" rx="26" fill="white"/>
<path d="M36.0987 27.9713C35.5376 29.2251 33.2841 32.8458 25.95 32.8458C17.5349 32.8458 16.0669 28.624 16.0085 28.4442L16.0188 28.4774L12.5 29.4667C12.5802 29.7542 14.6092 36.4997 25.95 36.4997C33.1524 36.4997 36.7124 33.5386 38.3991 31.2107L39.7892 33.1687L42.7687 31.0527L37.2735 23.312L34.2941 25.4281L36.0987 27.9713Z" fill="#9A1AEF"/>
<path d="M31.9849 23.7083C35.1132 23.5491 37.1056 21.212 37.322 20.9464L34.4983 18.6264C34.4868 18.6402 33.3269 19.9937 31.7765 20.0601C30.7631 20.1047 29.7108 19.578 28.6332 18.5005L26.0488 21.0849C27.7973 22.8334 29.6798 23.7174 31.6494 23.7174C31.7604 23.7163 31.8726 23.714 31.9849 23.7083Z" fill="#9A1AEF"/>
<path d="M18.4372 23.7089C21.5655 23.5497 23.5579 21.2127 23.7743 20.947L20.9506 18.626C20.9391 18.6397 19.7792 19.9932 18.2276 20.0596C17.2142 20.1042 16.1608 19.5775 15.0844 18.5L12.5 21.0844C14.2485 22.8329 16.131 23.7169 18.1005 23.7169C18.2127 23.7169 18.325 23.7146 18.4372 23.7089Z" fill="#9A1AEF"/>
</svg>
