<svg width="52" height="52" viewBox="0 0 52 52" fill="none" xmlns="http://www.w3.org/2000/svg">
<rect width="52" height="52" rx="26" fill="white"/>
<path d="M35.7594 18.7871C35.8528 18.4283 35.8994 18.0564 35.8994 17.6699C35.8994 15.0914 33.8139 13 31.2354 13C28.6568 13 26.5713 15.0899 26.5713 17.6699C26.5713 18.0564 26.618 18.4283 26.7069 18.7871H35.7594Z" fill="#E12D2D"/>
<path d="M21.194 18.7871C21.2873 18.4283 21.334 18.0564 21.334 17.6699C21.334 15.0914 19.244 13 16.6699 13C14.0914 13 12 15.0899 12 17.6699C12 18.0564 12.0467 18.4283 12.1356 18.7871H21.194Z" fill="#E12D2D"/>
<path d="M33.4425 24.8278H12.9734L12.7473 26.9031C12.7225 27.1321 12.1742 32.5502 15.6219 36.3946C17.7673 38.7864 20.8708 39.9999 24.8494 39.9999C28.8995 39.9999 31.9899 38.9133 34.0317 36.7694C36.4717 34.2084 36.3988 31.169 36.3827 30.8307L31.7332 31.0553C31.7332 31.0684 31.7303 32.4364 30.6613 33.5579C29.5471 34.7276 27.5373 35.3445 24.848 35.3445C22.2622 35.3445 20.3312 34.6591 19.1061 33.3086C18.0663 32.1608 17.6346 30.6775 17.4625 29.4845H36.7488L39.4557 33.2969L43.2505 30.6017L36.2515 20.7441L32.4552 23.4364L33.4425 24.8278Z" fill="#E12D2D"/>
</svg>
