<svg width="52" height="52" viewBox="0 0 52 52" fill="none" xmlns="http://www.w3.org/2000/svg">
<rect width="52" height="52" rx="26" fill="white"/>
<path d="M33.6807 21.2479L34.8613 22.9101H12.6785L12.5066 24.489C12.481 24.7164 11.9351 30.1201 15.3582 33.9371C17.4786 36.3016 20.571 37.4999 24.5499 37.4999C28.6132 37.4999 31.6956 36.4281 33.7084 34.3154C36.0785 31.8289 36.0097 28.9007 35.993 28.5745L32.4557 28.7442C32.4568 28.7609 32.4757 30.4741 31.1442 31.8721C29.8249 33.2558 27.6057 33.9581 24.5488 33.9581C21.6295 33.9581 19.4292 33.1615 18.0101 31.5892C16.5732 29.9992 16.1482 27.881 16.0372 26.4518H37.3756L39.0055 28.7475L41.8927 26.697L36.5678 19.1963L33.6807 21.2479Z" fill="#FF3A8C"/>
<path d="M16.8515 18.0468C17.8346 17.9913 18.8687 18.5051 19.9206 19.557L22.4249 17.0526C20.6341 15.2618 18.7001 14.4085 16.6718 14.5095C13.6393 14.6637 11.7097 16.9284 11.5 17.1858L14.2451 19.4238C14.2562 19.4105 15.3702 18.1223 16.8515 18.0468Z" fill="#FF3A8C"/>
<path d="M29.9785 18.0458C30.9604 17.9937 31.9957 18.5041 33.0476 19.556L35.5519 17.0516C33.761 15.2608 31.8281 14.4042 29.7987 14.5085C26.7673 14.6627 24.8367 16.9274 24.627 17.1848L27.3721 19.4228C27.3831 19.4095 28.4972 18.1213 29.9785 18.0458Z" fill="#FF3A8C"/>
</svg>
