<svg width="52" height="52" viewBox="0 0 52 52" fill="none" xmlns="http://www.w3.org/2000/svg">
<rect width="52" height="52" rx="26" fill="white"/>
<path d="M17.9172 23.6045C20.1658 23.0735 21.5582 20.8202 21.0273 18.5716C20.4963 16.3229 18.243 14.9305 15.9944 15.4615C13.7457 15.9924 12.3533 18.2457 12.8842 20.4944C13.4152 22.743 15.6685 24.1354 17.9172 23.6045Z" fill="#FFB820"/>
<path d="M37.4596 15.5482L26.9941 18.3477L28.0728 22.3802L38.5382 19.5808L37.4596 15.5482Z" fill="#FFB820"/>
<path d="M35.8223 23.8908L37.2308 25.8734H11.5V30.0479H34.1706C33.2028 31.612 32.256 33.0806 31.0554 34.2799C28.7119 36.6208 24.3203 37.1753 21.2666 35.517C19.9104 34.7808 19.0002 33.4167 19.0525 32.2018L14.882 32.02C14.7577 34.8566 16.4827 37.6697 19.2735 39.1854C21.0691 40.161 23.1381 40.6305 25.2096 40.6305C28.4935 40.6305 31.7852 39.4509 34.0045 37.2342C35.6706 35.5694 36.862 33.6364 38.0142 31.7663C38.1816 31.4956 38.3477 31.2249 38.5151 30.9555C38.7217 30.6246 39.4305 30.2087 40.2008 30.0596L42.0971 32.7301L45.5 30.3133L39.2239 21.4727L35.8223 23.8908Z" fill="#FFB820"/>
</svg>
