<svg width="52" height="52" viewBox="0 0 52 52" fill="none" xmlns="http://www.w3.org/2000/svg">
<rect width="52" height="52" rx="26" fill="white"/>
<path d="M19.0595 22.9474C21.1878 22.4449 22.5058 20.3121 22.0032 18.1837C21.5007 16.0553 19.3679 14.7374 17.2395 15.2399C15.1111 15.7425 13.7932 17.8753 14.2957 20.0037C14.7983 22.132 16.9311 23.45 19.0595 22.9474Z" fill="#443BF4"/>
<path d="M33.3151 21.9001C34.8615 20.3537 34.8615 17.8465 33.3151 16.3001C31.7687 14.7537 29.2615 14.7537 27.7151 16.3001C26.1687 17.8465 26.1687 20.3537 27.7151 21.9001C29.2615 23.4465 31.7687 23.4465 33.3151 21.9001Z" fill="#443BF4"/>
<path d="M42.772 30.9177L36.8316 22.5498L33.6095 24.8373L35.6272 27.6794C35.241 29.5214 33.0723 37.5488 24.5893 37.5488C15.5456 37.5488 13.9636 28.7242 13.9005 28.3491L10 28.9792C10.692 33.3104 14.6308 41.5 24.5893 41.5C32.3964 41.5 36.6199 36.2751 38.499 31.7247L39.5499 33.2052L42.772 30.9177Z" fill="#443BF4"/>
</svg>
