<svg width="1029" height="165" viewBox="0 0 1029 165" fill="none" xmlns="http://www.w3.org/2000/svg">
<g filter="url(#filter0_d_2195_967)">
<mask id="path-1-outside-1_2195_967" maskUnits="userSpaceOnUse" x="0.144702" y="0.997999" width="1025.15" height="162.139" fill="black">
<rect fill="white" x="0.144702" y="0.997999" width="1025.15" height="162.139"/>
<path d="M85.6002 146.568C85.6409 147.505 83.0739 148.385 77.8994 149.208C72.7211 149.945 67.5318 150.426 62.3313 150.652C57.1309 150.877 53.7541 150.81 52.2011 150.451C50.7296 150.002 49.9698 149.224 49.9217 148.115L49.2394 132.386L17.2695 133.773C14.3708 133.899 12.6146 126.886 12.0007 112.734C11.9304 111.114 15.0817 104.016 21.4547 91.4398C27.9129 78.8601 32.3802 70.5947 34.8566 66.6437C35.8168 65.15 39.594 63.6195 46.1883 62.0522C52.7825 60.485 59.234 59.5645 65.5428 59.2908C76.3699 58.8211 81.8704 60.5897 82.0442 64.5966L85.6002 146.568ZM50.5479 112.343L49.4665 84.4592L41.7242 112.725L50.5479 112.343ZM155.037 145.99C150.315 147.39 144.416 148.244 137.34 148.551C130.264 148.858 124.27 148.52 119.359 147.537C114.529 146.466 110.082 144.352 106.016 141.198C97.9728 134.97 93.5372 122.307 92.7088 103.211C91.9099 84.796 95.4177 72.1308 103.232 65.2149C107.098 61.8015 111.391 59.3518 116.11 57.8659C120.828 56.38 126.512 55.4928 133.162 55.2044C139.897 54.9122 145.68 55.302 150.509 56.3737C155.424 57.4416 159.955 59.5085 164.103 62.5743C172.487 68.7875 177.078 81.1014 177.877 99.5161C178.705 118.613 175.383 131.612 167.909 138.513C164.132 142.008 159.841 144.5 155.037 145.99ZM133.711 126.928C134.441 128.007 135.361 128.522 136.469 128.474C137.662 128.422 138.576 127.827 139.21 126.689C139.84 125.466 140.283 122.885 140.54 118.945C140.796 115.004 140.767 109.411 140.452 102.165C140.138 94.918 139.681 89.3006 139.081 85.3122C138.477 81.2385 137.806 78.5771 137.069 77.3278C136.327 75.9934 135.36 75.352 134.167 75.4038C133.058 75.4519 132.191 76.1301 131.564 77.4385C129.985 80.4111 129.495 88.8029 130.094 102.614C130.689 116.34 131.895 124.444 133.711 126.928ZM257.439 139.113C257.479 140.051 254.912 140.931 249.738 141.753C244.56 142.49 239.37 142.972 234.17 143.197C228.969 143.423 225.593 143.356 224.039 142.996C222.568 142.548 221.808 141.769 221.76 140.661L221.078 124.932L189.108 126.319C186.209 126.444 184.453 119.431 183.839 105.279C183.769 103.659 186.92 96.5614 193.293 83.9854C199.751 71.4056 204.219 63.1403 206.695 59.1892C207.655 57.6955 211.432 56.1651 218.027 54.5978C224.621 53.0305 231.072 52.11 237.381 51.8364C248.208 51.3667 253.709 53.1353 253.883 57.1422L257.439 139.113ZM222.386 104.888L221.305 77.0048L213.563 105.271L222.386 104.888ZM292.743 87.1022C292.961 92.1321 291.96 95.6348 289.739 97.6102C287.515 99.5004 284.144 100.543 279.625 100.739C275.192 100.932 271.786 100.183 269.406 98.4922C267.023 96.7165 265.722 93.3137 265.504 88.2838C265.282 83.1686 266.287 79.7512 268.519 78.0315C270.832 76.2229 274.205 75.2224 278.638 75.0301C283.071 74.8378 286.476 75.5442 288.852 77.1494C291.224 78.6694 292.521 81.987 292.743 87.1022ZM294.54 128.535C294.758 133.565 293.757 137.068 291.537 139.043C289.316 141.019 285.947 142.104 281.428 142.3C276.995 142.493 273.587 141.701 271.204 139.925C268.82 138.15 267.52 134.747 267.302 129.717C267.083 124.687 268.09 121.312 270.322 119.592C272.635 117.784 276.008 116.783 280.441 116.591C284.874 116.399 288.279 117.105 290.655 118.71C293.027 120.23 294.322 123.505 294.54 128.535ZM369.528 133.61C369.576 134.718 366.972 135.728 361.716 136.639C356.545 137.547 351.36 138.114 346.159 138.339C340.959 138.565 337.621 138.411 336.146 137.877C334.671 137.343 333.905 136.437 333.85 135.158L330.444 56.6396C330.351 54.5082 332.696 52.442 337.478 50.4409C342.345 48.4361 347.89 47.2987 354.113 47.0287C356.33 46.9325 357.996 46.9457 359.112 47.0681C362.029 47.3686 364.155 49.1128 365.489 52.3007L379.196 84.7611L379.708 84.7389L378.399 54.5593C378.306 52.4279 380.651 50.3617 385.433 48.3606C390.214 46.3595 395.717 45.2239 401.94 44.9539C407.311 44.7209 410.766 45.596 412.304 47.5792C413.39 48.9842 413.959 50.2834 414.011 51.4769L417.483 131.53C417.531 132.638 414.927 133.648 409.671 134.559C404.5 135.467 398.761 136.057 392.452 136.331C386.228 136.601 382.783 135.939 382.116 134.345L368.859 103.403L368.219 103.43L369.528 133.61ZM466.72 134.262C460.326 134.54 454.803 134.224 450.151 133.316C445.5 132.407 441.237 130.627 437.364 127.977C429.362 122.687 425.028 112.369 424.362 97.0231C423.77 83.3826 427.311 73.4491 434.985 67.2227C442.165 61.4448 451.638 58.3006 463.403 57.7902C468.433 57.572 472.749 57.641 476.352 57.9972C479.951 58.2682 483.617 59.0914 487.349 60.4669C491.167 61.8387 494.241 63.798 496.572 66.3447C498.989 68.8877 501.024 72.4722 502.676 77.0983C504.325 81.6391 505.288 87.1065 505.566 93.5004C506.128 106.459 502.886 116.379 495.839 123.262C488.788 130.059 479.082 133.726 466.72 134.262ZM461.162 109.52C461.892 112.563 462.569 114.37 463.191 114.941C463.899 115.508 464.765 115.77 465.788 115.725C466.896 115.677 467.736 115.342 468.306 114.719C468.963 114.093 469.48 112.234 469.858 109.143C470.322 106.048 470.454 102.198 470.254 97.5947C470.051 92.9058 469.768 89.3307 469.404 86.8694C469.123 84.3192 468.782 82.3695 468.382 81.0203C468.067 79.6673 467.637 78.6183 467.092 77.8732C466.277 76.7982 465.315 76.2847 464.207 76.3328C463.184 76.3772 462.346 76.7552 461.694 77.4668C461.038 78.0931 460.48 79.9964 460.02 83.1767C459.556 86.2717 459.448 90.6752 459.696 96.3872C459.944 102.099 460.433 106.477 461.162 109.52ZM565.033 127.691C563.561 129.207 560.097 130.083 554.641 130.32C549.185 130.557 544.651 130.412 541.041 129.885C537.427 129.273 533.954 127.972 530.622 125.981C524.217 122.074 520.728 113.513 520.155 100.299L519.29 80.3493L512.896 80.6267C511.958 80.6673 511.106 79.7221 510.338 77.7908C509.571 75.8596 509.114 73.1889 508.966 69.7788C508.818 66.3687 509.2 63.3626 510.112 60.7606C511.106 58.0697 512.455 56.6873 514.16 56.6133L518.252 56.4358L517.581 40.9623C517.467 38.3195 519.932 36.0772 524.977 34.2355C530.107 32.3901 535.144 31.3601 540.089 31.1456C547.847 30.8091 551.809 32.559 551.976 36.3954L552.78 54.938L562.243 54.5274C564.46 54.4313 565.707 57.5802 565.984 63.9742C566.165 68.1516 565.803 71.6265 564.899 74.399C564.076 77.0825 562.897 78.4576 561.362 78.5242L553.817 78.8515L554.833 102.253C554.932 104.555 555.985 106.175 557.99 107.113C559.992 107.966 561.717 108.361 563.166 108.298C564.701 108.231 565.67 108.915 566.074 110.35C566.478 111.784 566.743 113.951 566.868 116.85C567.116 122.561 566.504 126.175 565.033 127.691ZM641.398 121.816C641.453 123.095 638.723 124.153 633.208 124.99C627.777 125.824 622.59 126.348 617.645 126.562C612.7 126.777 609.49 126.617 608.015 126.083C606.54 125.549 605.775 124.643 605.719 123.364L602.202 42.2881C602.106 40.0715 603.146 38.4463 605.322 37.4123C607.498 36.3784 611.655 35.7283 617.793 35.462L665.236 33.4039C667.027 33.3262 668.062 36.527 668.343 43.0062C668.621 49.4002 668.407 54.3208 667.703 57.7679C667.08 61.126 666.129 62.8329 664.85 62.8883L638.835 62.7357L639.212 71.4315C650.528 70.4281 658.105 69.8432 661.941 69.6768C663.22 69.6213 664.102 70.2663 664.588 71.6119C665.158 72.9538 665.529 75.5855 665.699 79.5072C665.865 83.3435 665.6 87.0705 664.903 90.6882C664.202 94.2205 663.084 96.02 661.55 96.0866L640.288 96.2402L641.398 121.816ZM719.607 123.292C713.213 123.569 707.69 123.254 703.039 122.345C698.387 121.437 694.124 119.657 690.251 117.006C682.249 111.716 677.915 101.398 677.249 86.0527C676.658 72.4122 680.198 62.4787 687.872 56.2523C695.052 50.4744 704.525 47.3302 716.29 46.8198C721.32 46.6016 725.636 46.6706 729.239 47.0268C732.838 47.2978 736.504 48.121 740.236 49.4965C744.054 50.8683 747.128 52.8276 749.46 55.3743C751.876 57.9173 753.911 61.5018 755.563 66.1279C757.212 70.6687 758.176 76.1361 758.453 82.53C759.015 95.4885 755.773 105.409 748.726 112.292C741.675 119.089 731.969 122.756 719.607 123.292ZM714.05 98.5495C714.779 101.593 715.456 103.4 716.078 103.971C716.786 104.538 717.652 104.799 718.675 104.755C719.783 104.707 720.623 104.371 721.194 103.749C721.85 103.122 722.367 101.264 722.745 98.1723C723.209 95.0773 723.341 91.228 723.141 86.6243C722.938 81.9354 722.655 78.3603 722.292 75.899C722.01 73.3488 721.669 71.3991 721.269 70.0499C720.954 68.6969 720.524 67.6479 719.98 66.9028C719.164 65.8278 718.202 65.3143 717.094 65.3624C716.071 65.4068 715.233 65.7848 714.581 66.4964C713.925 67.1227 713.367 69.0261 712.907 72.2063C712.443 75.3013 712.335 79.7048 712.583 85.4168C712.831 91.1287 713.32 95.5063 714.05 98.5495ZM793.467 120.088C783.918 120.502 777.119 118.32 773.068 113.542C769.102 108.76 766.853 100.231 766.32 87.9542L764.812 53.1709C764.738 51.4658 767.182 49.7369 772.146 47.9841C777.105 46.1461 782.356 45.1069 787.897 44.8665C795.314 44.5448 799.106 46.3021 799.273 50.1385L800.682 82.6199C800.963 89.0992 801.424 93.8196 802.065 96.7813C802.702 99.6577 804.044 101.052 806.09 100.963C808.818 100.844 810.132 99.6344 810.032 97.3325L808.035 51.2958C807.957 49.5055 810.528 47.7284 815.747 45.9646C820.966 44.2007 826.688 43.1838 832.911 42.9138C839.135 42.6438 842.318 44.1713 842.463 47.4962L845.32 113.354C845.371 114.548 842.723 115.517 837.374 116.261C832.025 117.006 826.751 117.491 821.55 117.716C816.35 117.942 813.677 117.375 813.533 116.014L811.894 107.758L810.871 107.802C810.236 110.904 808.811 113.486 806.594 115.547C805.445 116.621 803.695 117.637 801.345 118.593C799.077 119.46 796.451 119.958 793.467 120.088ZM929.651 70.491L931.36 109.878C931.4 110.816 929.004 111.688 924.17 112.496C919.333 113.218 914.314 113.692 909.114 113.918C903.999 114.14 900.665 114.071 899.112 113.711C897.64 113.263 896.88 112.484 896.832 111.376L895.068 70.7101C894.902 66.8737 894.622 64.3661 894.229 63.1873C893.922 62.0049 893.62 60.9503 893.323 60.0236C892.656 58.4297 891.555 57.666 890.021 57.7326C887.634 57.8362 886.49 59.0389 886.59 61.3407L888.776 111.725C888.816 112.663 886.42 113.536 881.587 114.343C876.835 115.062 871.858 115.534 866.658 115.76C861.543 115.982 858.209 115.913 856.656 115.553C855.099 115.108 854.296 114.331 854.248 113.223L851.513 50.1784C851.436 48.3881 853.788 46.4924 858.569 44.4913C863.437 42.4864 868.598 41.3657 874.054 41.129C879.511 40.8923 882.648 42.3363 883.467 45.4611L884.862 51.0379L885.757 50.9991C888.015 45.9471 892.128 42.3095 898.096 40.0861C900.535 39.2115 903.246 38.7096 906.23 38.5801C914.841 38.2066 920.751 40.5553 923.96 45.6263C927.251 50.6084 929.148 58.8966 929.651 70.491ZM964.517 112.668C961.362 112.804 958.401 112.463 955.632 111.644C952.863 110.824 950.554 109.771 948.705 108.485C946.94 107.195 945.369 105.427 943.99 103.18C942.612 100.934 941.537 98.8025 940.766 96.786C939.992 94.6843 939.367 92.1062 938.893 89.0519C938.186 84.5557 937.706 79.409 937.455 73.6118C936.941 61.7616 938.724 52.6731 942.806 46.3462C946.884 39.9341 952.717 36.5635 960.304 36.2343C968.062 35.8978 973.768 37.4866 977.423 41.0009C978.227 41.8201 978.868 42.8173 979.346 43.9924L980.369 43.948L978.452 35.1908L977.759 19.2059C977.677 17.3303 979.985 15.3938 984.681 13.3964C989.378 11.399 994.497 10.2801 1000.04 10.0397C1005.84 9.78817 1009.59 10.7356 1011.31 12.8819C1011.94 13.7085 1012.28 14.5481 1012.31 15.4007L1016.25 106.195C1016.29 107.133 1013.94 108.004 1009.19 108.808C1004.52 109.523 999.975 109.976 995.542 110.169C991.194 110.357 988.375 110.351 987.085 110.151C985.877 109.862 985.095 109.554 984.739 109.228C984.468 108.898 984.274 108.351 984.155 107.588L982.816 100.343L981.793 100.387C981.155 103.404 979.73 105.986 977.516 108.132C974.732 110.901 970.399 112.412 964.517 112.668ZM978.029 93.3758C979.393 93.3167 980.379 92.4197 980.988 90.6851L979.506 56.5412C979.469 55.6887 978.973 55.0696 978.016 54.684C977.142 54.2095 976.363 53.987 975.681 54.0166C972.783 54.1424 971.622 60.855 972.199 74.1545C972.506 81.2305 973.108 86.2438 974.004 89.1943C974.983 92.056 976.324 93.4498 978.029 93.3758Z"/>
</mask>
<path d="M85.6002 146.568C85.6409 147.505 83.0739 148.385 77.8994 149.208C72.7211 149.945 67.5318 150.426 62.3313 150.652C57.1309 150.877 53.7541 150.81 52.2011 150.451C50.7296 150.002 49.9698 149.224 49.9217 148.115L49.2394 132.386L17.2695 133.773C14.3708 133.899 12.6146 126.886 12.0007 112.734C11.9304 111.114 15.0817 104.016 21.4547 91.4398C27.9129 78.8601 32.3802 70.5947 34.8566 66.6437C35.8168 65.15 39.594 63.6195 46.1883 62.0522C52.7825 60.485 59.234 59.5645 65.5428 59.2908C76.3699 58.8211 81.8704 60.5897 82.0442 64.5966L85.6002 146.568ZM50.5479 112.343L49.4665 84.4592L41.7242 112.725L50.5479 112.343ZM155.037 145.99C150.315 147.39 144.416 148.244 137.34 148.551C130.264 148.858 124.27 148.52 119.359 147.537C114.529 146.466 110.082 144.352 106.016 141.198C97.9728 134.97 93.5372 122.307 92.7088 103.211C91.9099 84.796 95.4177 72.1308 103.232 65.2149C107.098 61.8015 111.391 59.3518 116.11 57.8659C120.828 56.38 126.512 55.4928 133.162 55.2044C139.897 54.9122 145.68 55.302 150.509 56.3737C155.424 57.4416 159.955 59.5085 164.103 62.5743C172.487 68.7875 177.078 81.1014 177.877 99.5161C178.705 118.613 175.383 131.612 167.909 138.513C164.132 142.008 159.841 144.5 155.037 145.99ZM133.711 126.928C134.441 128.007 135.361 128.522 136.469 128.474C137.662 128.422 138.576 127.827 139.21 126.689C139.84 125.466 140.283 122.885 140.54 118.945C140.796 115.004 140.767 109.411 140.452 102.165C140.138 94.918 139.681 89.3006 139.081 85.3122C138.477 81.2385 137.806 78.5771 137.069 77.3278C136.327 75.9934 135.36 75.352 134.167 75.4038C133.058 75.4519 132.191 76.1301 131.564 77.4385C129.985 80.4111 129.495 88.8029 130.094 102.614C130.689 116.34 131.895 124.444 133.711 126.928ZM257.439 139.113C257.479 140.051 254.912 140.931 249.738 141.753C244.56 142.49 239.37 142.972 234.17 143.197C228.969 143.423 225.593 143.356 224.039 142.996C222.568 142.548 221.808 141.769 221.76 140.661L221.078 124.932L189.108 126.319C186.209 126.444 184.453 119.431 183.839 105.279C183.769 103.659 186.92 96.5614 193.293 83.9854C199.751 71.4056 204.219 63.1403 206.695 59.1892C207.655 57.6955 211.432 56.1651 218.027 54.5978C224.621 53.0305 231.072 52.11 237.381 51.8364C248.208 51.3667 253.709 53.1353 253.883 57.1422L257.439 139.113ZM222.386 104.888L221.305 77.0048L213.563 105.271L222.386 104.888ZM292.743 87.1022C292.961 92.1321 291.96 95.6348 289.739 97.6102C287.515 99.5004 284.144 100.543 279.625 100.739C275.192 100.932 271.786 100.183 269.406 98.4922C267.023 96.7165 265.722 93.3137 265.504 88.2838C265.282 83.1686 266.287 79.7512 268.519 78.0315C270.832 76.2229 274.205 75.2224 278.638 75.0301C283.071 74.8378 286.476 75.5442 288.852 77.1494C291.224 78.6694 292.521 81.987 292.743 87.1022ZM294.54 128.535C294.758 133.565 293.757 137.068 291.537 139.043C289.316 141.019 285.947 142.104 281.428 142.3C276.995 142.493 273.587 141.701 271.204 139.925C268.82 138.15 267.52 134.747 267.302 129.717C267.083 124.687 268.09 121.312 270.322 119.592C272.635 117.784 276.008 116.783 280.441 116.591C284.874 116.399 288.279 117.105 290.655 118.71C293.027 120.23 294.322 123.505 294.54 128.535ZM369.528 133.61C369.576 134.718 366.972 135.728 361.716 136.639C356.545 137.547 351.36 138.114 346.159 138.339C340.959 138.565 337.621 138.411 336.146 137.877C334.671 137.343 333.905 136.437 333.85 135.158L330.444 56.6396C330.351 54.5082 332.696 52.442 337.478 50.4409C342.345 48.4361 347.89 47.2987 354.113 47.0287C356.33 46.9325 357.996 46.9457 359.112 47.0681C362.029 47.3686 364.155 49.1128 365.489 52.3007L379.196 84.7611L379.708 84.7389L378.399 54.5593C378.306 52.4279 380.651 50.3617 385.433 48.3606C390.214 46.3595 395.717 45.2239 401.94 44.9539C407.311 44.7209 410.766 45.596 412.304 47.5792C413.39 48.9842 413.959 50.2834 414.011 51.4769L417.483 131.53C417.531 132.638 414.927 133.648 409.671 134.559C404.5 135.467 398.761 136.057 392.452 136.331C386.228 136.601 382.783 135.939 382.116 134.345L368.859 103.403L368.219 103.43L369.528 133.61ZM466.72 134.262C460.326 134.54 454.803 134.224 450.151 133.316C445.5 132.407 441.237 130.627 437.364 127.977C429.362 122.687 425.028 112.369 424.362 97.0231C423.77 83.3826 427.311 73.4491 434.985 67.2227C442.165 61.4448 451.638 58.3006 463.403 57.7902C468.433 57.572 472.749 57.641 476.352 57.9972C479.951 58.2682 483.617 59.0914 487.349 60.4669C491.167 61.8387 494.241 63.798 496.572 66.3447C498.989 68.8877 501.024 72.4722 502.676 77.0983C504.325 81.6391 505.288 87.1065 505.566 93.5004C506.128 106.459 502.886 116.379 495.839 123.262C488.788 130.059 479.082 133.726 466.72 134.262ZM461.162 109.52C461.892 112.563 462.569 114.37 463.191 114.941C463.899 115.508 464.765 115.77 465.788 115.725C466.896 115.677 467.736 115.342 468.306 114.719C468.963 114.093 469.48 112.234 469.858 109.143C470.322 106.048 470.454 102.198 470.254 97.5947C470.051 92.9058 469.768 89.3307 469.404 86.8694C469.123 84.3192 468.782 82.3695 468.382 81.0203C468.067 79.6673 467.637 78.6183 467.092 77.8732C466.277 76.7982 465.315 76.2847 464.207 76.3328C463.184 76.3772 462.346 76.7552 461.694 77.4668C461.038 78.0931 460.48 79.9964 460.02 83.1767C459.556 86.2717 459.448 90.6752 459.696 96.3872C459.944 102.099 460.433 106.477 461.162 109.52ZM565.033 127.691C563.561 129.207 560.097 130.083 554.641 130.32C549.185 130.557 544.651 130.412 541.041 129.885C537.427 129.273 533.954 127.972 530.622 125.981C524.217 122.074 520.728 113.513 520.155 100.299L519.29 80.3493L512.896 80.6267C511.958 80.6673 511.106 79.7221 510.338 77.7908C509.571 75.8596 509.114 73.1889 508.966 69.7788C508.818 66.3687 509.2 63.3626 510.112 60.7606C511.106 58.0697 512.455 56.6873 514.16 56.6133L518.252 56.4358L517.581 40.9623C517.467 38.3195 519.932 36.0772 524.977 34.2355C530.107 32.3901 535.144 31.3601 540.089 31.1456C547.847 30.8091 551.809 32.559 551.976 36.3954L552.78 54.938L562.243 54.5274C564.46 54.4313 565.707 57.5802 565.984 63.9742C566.165 68.1516 565.803 71.6265 564.899 74.399C564.076 77.0825 562.897 78.4576 561.362 78.5242L553.817 78.8515L554.833 102.253C554.932 104.555 555.985 106.175 557.99 107.113C559.992 107.966 561.717 108.361 563.166 108.298C564.701 108.231 565.67 108.915 566.074 110.35C566.478 111.784 566.743 113.951 566.868 116.85C567.116 122.561 566.504 126.175 565.033 127.691ZM641.398 121.816C641.453 123.095 638.723 124.153 633.208 124.99C627.777 125.824 622.59 126.348 617.645 126.562C612.7 126.777 609.49 126.617 608.015 126.083C606.54 125.549 605.775 124.643 605.719 123.364L602.202 42.2881C602.106 40.0715 603.146 38.4463 605.322 37.4123C607.498 36.3784 611.655 35.7283 617.793 35.462L665.236 33.4039C667.027 33.3262 668.062 36.527 668.343 43.0062C668.621 49.4002 668.407 54.3208 667.703 57.7679C667.08 61.126 666.129 62.8329 664.85 62.8883L638.835 62.7357L639.212 71.4315C650.528 70.4281 658.105 69.8432 661.941 69.6768C663.22 69.6213 664.102 70.2663 664.588 71.6119C665.158 72.9538 665.529 75.5855 665.699 79.5072C665.865 83.3435 665.6 87.0705 664.903 90.6882C664.202 94.2205 663.084 96.02 661.55 96.0866L640.288 96.2402L641.398 121.816ZM719.607 123.292C713.213 123.569 707.69 123.254 703.039 122.345C698.387 121.437 694.124 119.657 690.251 117.006C682.249 111.716 677.915 101.398 677.249 86.0527C676.658 72.4122 680.198 62.4787 687.872 56.2523C695.052 50.4744 704.525 47.3302 716.29 46.8198C721.32 46.6016 725.636 46.6706 729.239 47.0268C732.838 47.2978 736.504 48.121 740.236 49.4965C744.054 50.8683 747.128 52.8276 749.46 55.3743C751.876 57.9173 753.911 61.5018 755.563 66.1279C757.212 70.6687 758.176 76.1361 758.453 82.53C759.015 95.4885 755.773 105.409 748.726 112.292C741.675 119.089 731.969 122.756 719.607 123.292ZM714.05 98.5495C714.779 101.593 715.456 103.4 716.078 103.971C716.786 104.538 717.652 104.799 718.675 104.755C719.783 104.707 720.623 104.371 721.194 103.749C721.85 103.122 722.367 101.264 722.745 98.1723C723.209 95.0773 723.341 91.228 723.141 86.6243C722.938 81.9354 722.655 78.3603 722.292 75.899C722.01 73.3488 721.669 71.3991 721.269 70.0499C720.954 68.6969 720.524 67.6479 719.98 66.9028C719.164 65.8278 718.202 65.3143 717.094 65.3624C716.071 65.4068 715.233 65.7848 714.581 66.4964C713.925 67.1227 713.367 69.0261 712.907 72.2063C712.443 75.3013 712.335 79.7048 712.583 85.4168C712.831 91.1287 713.32 95.5063 714.05 98.5495ZM793.467 120.088C783.918 120.502 777.119 118.32 773.068 113.542C769.102 108.76 766.853 100.231 766.32 87.9542L764.812 53.1709C764.738 51.4658 767.182 49.7369 772.146 47.9841C777.105 46.1461 782.356 45.1069 787.897 44.8665C795.314 44.5448 799.106 46.3021 799.273 50.1385L800.682 82.6199C800.963 89.0992 801.424 93.8196 802.065 96.7813C802.702 99.6577 804.044 101.052 806.09 100.963C808.818 100.844 810.132 99.6344 810.032 97.3325L808.035 51.2958C807.957 49.5055 810.528 47.7284 815.747 45.9646C820.966 44.2007 826.688 43.1838 832.911 42.9138C839.135 42.6438 842.318 44.1713 842.463 47.4962L845.32 113.354C845.371 114.548 842.723 115.517 837.374 116.261C832.025 117.006 826.751 117.491 821.55 117.716C816.35 117.942 813.677 117.375 813.533 116.014L811.894 107.758L810.871 107.802C810.236 110.904 808.811 113.486 806.594 115.547C805.445 116.621 803.695 117.637 801.345 118.593C799.077 119.46 796.451 119.958 793.467 120.088ZM929.651 70.491L931.36 109.878C931.4 110.816 929.004 111.688 924.17 112.496C919.333 113.218 914.314 113.692 909.114 113.918C903.999 114.14 900.665 114.071 899.112 113.711C897.64 113.263 896.88 112.484 896.832 111.376L895.068 70.7101C894.902 66.8737 894.622 64.3661 894.229 63.1873C893.922 62.0049 893.62 60.9503 893.323 60.0236C892.656 58.4297 891.555 57.666 890.021 57.7326C887.634 57.8362 886.49 59.0389 886.59 61.3407L888.776 111.725C888.816 112.663 886.42 113.536 881.587 114.343C876.835 115.062 871.858 115.534 866.658 115.76C861.543 115.982 858.209 115.913 856.656 115.553C855.099 115.108 854.296 114.331 854.248 113.223L851.513 50.1784C851.436 48.3881 853.788 46.4924 858.569 44.4913C863.437 42.4864 868.598 41.3657 874.054 41.129C879.511 40.8923 882.648 42.3363 883.467 45.4611L884.862 51.0379L885.757 50.9991C888.015 45.9471 892.128 42.3095 898.096 40.0861C900.535 39.2115 903.246 38.7096 906.23 38.5801C914.841 38.2066 920.751 40.5553 923.96 45.6263C927.251 50.6084 929.148 58.8966 929.651 70.491ZM964.517 112.668C961.362 112.804 958.401 112.463 955.632 111.644C952.863 110.824 950.554 109.771 948.705 108.485C946.94 107.195 945.369 105.427 943.99 103.18C942.612 100.934 941.537 98.8025 940.766 96.786C939.992 94.6843 939.367 92.1062 938.893 89.0519C938.186 84.5557 937.706 79.409 937.455 73.6118C936.941 61.7616 938.724 52.6731 942.806 46.3462C946.884 39.9341 952.717 36.5635 960.304 36.2343C968.062 35.8978 973.768 37.4866 977.423 41.0009C978.227 41.8201 978.868 42.8173 979.346 43.9924L980.369 43.948L978.452 35.1908L977.759 19.2059C977.677 17.3303 979.985 15.3938 984.681 13.3964C989.378 11.399 994.497 10.2801 1000.04 10.0397C1005.84 9.78817 1009.59 10.7356 1011.31 12.8819C1011.94 13.7085 1012.28 14.5481 1012.31 15.4007L1016.25 106.195C1016.29 107.133 1013.94 108.004 1009.19 108.808C1004.52 109.523 999.975 109.976 995.542 110.169C991.194 110.357 988.375 110.351 987.085 110.151C985.877 109.862 985.095 109.554 984.739 109.228C984.468 108.898 984.274 108.351 984.155 107.588L982.816 100.343L981.793 100.387C981.155 103.404 979.73 105.986 977.516 108.132C974.732 110.901 970.399 112.412 964.517 112.668ZM978.029 93.3758C979.393 93.3167 980.379 92.4197 980.988 90.6851L979.506 56.5412C979.469 55.6887 978.973 55.0696 978.016 54.684C977.142 54.2095 976.363 53.987 975.681 54.0166C972.783 54.1424 971.622 60.855 972.199 74.1545C972.506 81.2305 973.108 86.2438 974.004 89.1943C974.983 92.056 976.324 93.4498 978.029 93.3758Z" fill="url(#paint0_linear_2195_967)"/>
<path d="M77.8994 149.208L79.0268 157.128L79.091 157.119L79.155 157.109L77.8994 149.208ZM52.2011 150.451L49.868 158.103L50.1296 158.183L50.396 158.244L52.2011 150.451ZM49.2394 132.386L57.2319 132.039L56.8852 124.047L48.8927 124.394L49.2394 132.386ZM21.4547 91.4398L14.3378 87.7861L14.3281 87.8048L14.3186 87.8236L21.4547 91.4398ZM34.8566 66.6437L28.1271 62.3178L28.1023 62.3563L28.078 62.395L34.8566 66.6437ZM46.1883 62.0522L48.0381 69.8354L48.0381 69.8354L46.1883 62.0522ZM50.5479 112.343L50.8947 120.335L58.8506 119.99L58.5419 112.032L50.5479 112.343ZM49.4665 84.4592L57.4604 84.1492L41.7507 82.3458L49.4665 84.4592ZM41.7242 112.725L34.0084 110.612L31.1101 121.193L42.0709 120.718L41.7242 112.725ZM85.6002 146.568L77.6077 146.914C77.5271 145.057 78.1391 143.533 78.8223 142.501C79.4498 141.553 80.135 141.007 80.4691 140.767C81.0925 140.318 81.4747 140.239 81.1109 140.363C80.4975 140.574 79.1126 140.915 76.6437 141.307L77.8994 149.208L79.155 157.109C81.8607 156.679 84.3466 156.168 86.3 155.499C87.2197 155.183 88.5594 154.657 89.8144 153.754C90.8544 153.005 93.7807 150.556 93.5927 146.221L85.6002 146.568ZM77.8994 149.208L76.7719 141.288C71.8513 141.988 66.9225 142.445 61.9846 142.659L62.3313 150.652L62.678 158.644C68.141 158.407 73.5909 157.902 79.0268 157.128L77.8994 149.208ZM62.3313 150.652L61.9846 142.659C59.4734 142.768 57.5129 142.801 56.0572 142.772C54.4508 142.74 53.9221 142.638 54.0062 142.657L52.2011 150.451L50.396 158.244C52.0331 158.624 53.9694 158.734 55.7396 158.769C57.6607 158.807 59.9888 158.761 62.678 158.644L62.3313 150.652ZM52.2011 150.451L54.5342 142.798C54.5825 142.813 55.3847 143.053 56.2528 143.943C57.2774 144.992 57.8548 146.399 57.9142 147.769L49.9217 148.115L41.9292 148.462C42.0367 150.94 43.0181 153.29 44.8025 155.118C46.4304 156.786 48.3482 157.64 49.868 158.103L52.2011 150.451ZM49.9217 148.115L57.9142 147.769L57.2319 132.039L49.2394 132.386L41.2469 132.733L41.9292 148.462L49.9217 148.115ZM49.2394 132.386L48.8927 124.394L16.9227 125.78L17.2695 133.773L17.6162 141.765L49.5861 140.379L49.2394 132.386ZM17.2695 133.773L16.9227 125.78C20.0766 125.644 21.7003 127.698 21.9379 128.049C22.1277 128.33 21.893 128.079 21.5387 126.664C20.8632 123.967 20.2945 119.333 19.9931 112.387L12.0007 112.734L4.00817 113.08C4.32077 120.286 4.93715 126.235 6.01793 130.551C6.54172 132.642 7.32791 135.006 8.68152 137.008C10.0827 139.082 13.013 141.965 17.6162 141.765L17.2695 133.773ZM12.0007 112.734L19.9931 112.387C20.0174 112.946 19.9657 113.352 19.9433 113.508C19.9294 113.604 19.9162 113.674 19.908 113.715C19.8996 113.756 19.8941 113.779 19.8939 113.78C19.8935 113.781 19.8968 113.768 19.9052 113.738C19.9135 113.708 19.9258 113.666 19.9428 113.611C19.9774 113.5 20.0268 113.35 20.0948 113.157C20.3797 112.351 20.8715 111.135 21.6232 109.442C23.116 106.079 25.425 101.303 28.5907 95.056L21.4547 91.4398L14.3186 87.8236C11.1114 94.1526 8.65824 99.2134 6.99971 102.949C6.17572 104.805 5.49457 106.452 5.00923 107.826C4.76778 108.509 4.53417 109.238 4.35678 109.959C4.21524 110.534 3.94895 111.715 4.00817 113.08L12.0007 112.734ZM21.4547 91.4398L28.5716 95.0935C35.0573 82.4603 39.3715 74.504 41.6352 70.8923L34.8566 66.6437L28.078 62.395C25.3889 66.6855 20.7685 75.2599 14.3378 87.7861L21.4547 91.4398ZM34.8566 66.6437L41.5862 70.9695C41.2385 71.5103 40.8965 71.8511 40.7101 72.0195C40.6104 72.1095 40.5318 72.1712 40.4838 72.2071C40.4591 72.2256 40.4403 72.2388 40.4281 72.2472C40.416 72.2556 40.4096 72.2597 40.4095 72.2597C40.4094 72.2597 40.4149 72.2563 40.4264 72.2494C40.4379 72.2426 40.4547 72.2328 40.4772 72.2202C40.5228 72.1948 40.5878 72.1603 40.6745 72.1173C40.8506 72.0301 41.0932 71.92 41.4139 71.79C42.7634 71.2432 44.9132 70.5781 48.0381 69.8354L46.1883 62.0522L44.3384 54.269C40.869 55.0936 37.8331 55.9774 35.4054 56.9611C34.191 57.4531 32.9429 58.0439 31.8003 58.7733C30.7404 59.4499 29.2501 60.5707 28.1271 62.3178L34.8566 66.6437ZM46.1883 62.0522L48.0381 69.8354C54.1749 68.3769 60.1227 67.5335 65.8895 67.2833L65.5428 59.2908L65.1961 51.2983C58.3453 51.5955 51.3902 52.593 44.3384 54.269L46.1883 62.0522ZM65.5428 59.2908L65.8895 67.2833C71.0355 67.0601 73.968 67.4399 75.3397 67.881C75.9753 68.0854 75.7108 68.129 75.2085 67.6178C74.5463 66.9438 74.0949 65.9376 74.0517 64.9434L82.0442 64.5966L90.0367 64.2499C89.9067 61.2522 88.7025 58.5224 86.6217 56.4045C84.7009 54.4494 82.352 53.329 80.2373 52.649C76.1086 51.3215 70.8771 51.0519 65.1961 51.2983L65.5428 59.2908ZM82.0442 64.5966L74.0517 64.9434L77.6077 146.914L85.6002 146.568L93.5927 146.221L90.0367 64.2499L82.0442 64.5966ZM50.5479 112.343L58.5419 112.032L57.4604 84.1492L49.4665 84.4592L41.4725 84.7693L42.5539 112.653L50.5479 112.343ZM49.4665 84.4592L41.7507 82.3458L34.0084 110.612L41.7242 112.725L49.44 114.839L57.1823 86.5726L49.4665 84.4592ZM41.7242 112.725L42.0709 120.718L50.8947 120.335L50.5479 112.343L50.2012 104.35L41.3775 104.733L41.7242 112.725ZM155.037 145.99L157.312 153.659L157.36 153.645L157.407 153.631L155.037 145.99ZM119.359 147.537L117.626 155.347L117.707 155.365L117.789 155.382L119.359 147.537ZM106.016 141.198L110.92 134.877L110.914 134.872L106.016 141.198ZM103.232 65.2149L97.9373 59.2177L97.93 59.2242L103.232 65.2149ZM116.11 57.8659L118.512 65.4965L118.512 65.4965L116.11 57.8659ZM150.509 56.3737L148.776 64.1837L148.793 64.1875L148.81 64.1912L150.509 56.3737ZM164.103 62.5743L168.866 56.1469L168.858 56.1411L164.103 62.5743ZM167.909 138.513L162.482 132.635L162.476 132.641L167.909 138.513ZM133.711 126.928L140.336 122.444L140.255 122.323L140.169 122.206L133.711 126.928ZM139.21 126.689L146.199 130.583L146.262 130.469L146.321 130.354L139.21 126.689ZM140.54 118.945L148.523 119.464L148.523 119.463L140.54 118.945ZM139.081 85.3122L131.167 86.4851L131.168 86.4938L131.17 86.5024L139.081 85.3122ZM137.069 77.3278L130.075 81.2123L130.126 81.3043L130.18 81.3949L137.069 77.3278ZM131.564 77.4385L138.629 81.192L138.708 81.0445L138.78 80.8938L131.564 77.4385ZM155.037 145.99L152.763 138.32C148.875 139.473 143.674 140.269 136.993 140.559L137.34 148.551L137.686 156.544C145.157 156.219 151.755 155.308 157.312 153.659L155.037 145.99ZM137.34 148.551L136.993 140.559C130.318 140.848 125.009 140.509 120.929 139.693L119.359 147.537L117.789 155.382C123.531 156.531 130.21 156.868 137.686 156.544L137.34 148.551ZM119.359 147.537L121.092 139.727C117.463 138.922 114.09 137.337 110.92 134.877L106.016 141.198L101.111 147.518C106.073 151.368 111.595 154.009 117.626 155.347L119.359 147.537ZM106.016 141.198L110.914 134.872C105.837 130.941 101.51 121.507 100.701 102.864L92.7088 103.211L84.7163 103.557C85.5644 123.108 90.1087 138.998 101.118 147.523L106.016 141.198ZM92.7088 103.211L100.701 102.864C99.9307 85.1007 103.525 75.6389 108.534 71.2057L103.232 65.2149L97.93 59.2242C87.3105 68.6227 83.8892 84.4914 84.7163 103.557L92.7088 103.211ZM103.232 65.2149L108.527 71.2121C111.59 68.5073 114.907 66.6319 118.512 65.4965L116.11 57.8659L113.707 50.2353C107.875 52.0717 102.606 55.0957 97.9373 59.2177L103.232 65.2149ZM116.11 57.8659L118.512 65.4965C122.38 64.2786 127.334 63.4647 133.509 63.1969L133.162 55.2044L132.815 47.2119C125.691 47.5209 119.276 48.4815 113.707 50.2353L116.11 57.8659ZM133.162 55.2044L133.509 63.1969C139.779 62.9248 144.825 63.3069 148.776 64.1837L150.509 56.3737L152.242 48.5636C146.534 47.2971 140.015 46.8996 132.815 47.2119L133.162 55.2044ZM150.509 56.3737L148.81 64.1912C152.592 65.0128 156.086 66.5965 159.347 69.0075L164.103 62.5743L168.858 56.1411C163.825 52.4206 158.257 49.8705 152.208 48.5561L150.509 56.3737ZM164.103 62.5743L159.339 69.0017C164.714 72.9844 169.114 82.0995 169.884 99.8628L177.877 99.5161L185.869 99.1694C185.042 80.1033 180.259 64.5905 168.866 56.1469L164.103 62.5743ZM177.877 99.5161L169.884 99.8628C170.693 118.506 167.199 128.279 162.482 132.635L167.909 138.513L173.337 144.39C183.566 134.944 186.717 118.72 185.869 99.1694L177.877 99.5161ZM167.909 138.513L162.476 132.641C159.554 135.344 156.305 137.221 152.668 138.349L155.037 145.99L157.407 153.631C163.378 151.779 168.71 148.671 173.343 144.385L167.909 138.513ZM133.711 126.928L127.086 131.412C129.055 134.321 132.408 136.658 136.816 136.466L136.469 128.474L136.122 120.481C136.972 120.445 137.952 120.636 138.86 121.145C139.713 121.623 140.165 122.191 140.336 122.444L133.711 126.928ZM136.469 128.474L136.816 136.466C141.073 136.282 144.359 133.885 146.199 130.583L139.21 126.689L132.221 122.796C132.415 122.449 132.858 121.823 133.685 121.284C134.541 120.727 135.43 120.511 136.122 120.481L136.469 128.474ZM139.21 126.689L146.321 130.354C147.211 128.628 147.641 126.697 147.9 125.189C148.186 123.522 148.385 121.588 148.523 119.464L140.54 118.945L132.556 118.426C132.438 120.241 132.287 121.568 132.13 122.482C132.053 122.934 131.987 123.209 131.948 123.345C131.902 123.508 131.93 123.352 132.099 123.025L139.21 126.689ZM140.54 118.945L148.523 119.463C148.807 115.09 148.763 109.157 148.445 101.818L140.452 102.165L132.46 102.511C132.77 109.665 132.784 114.919 132.556 118.426L140.54 118.945ZM140.452 102.165L148.445 101.818C148.126 94.4734 147.654 88.5269 146.992 84.1219L139.081 85.3122L131.17 86.5024C131.707 90.0743 132.15 95.3627 132.46 102.511L140.452 102.165ZM139.081 85.3122L146.994 84.1392C146.67 81.9554 146.306 79.9877 145.882 78.3061C145.495 76.7693 144.921 74.8931 143.958 73.2608L137.069 77.3278L130.18 81.3949C130.026 81.1353 130.01 81.0385 130.082 81.2398C130.146 81.4169 130.245 81.7301 130.367 82.2156C130.614 83.1954 130.887 84.5953 131.167 86.4851L139.081 85.3122ZM137.069 77.3278L144.062 73.4434C142.335 70.3339 138.925 67.1899 133.82 67.4113L134.167 75.4038L134.513 83.3963C133.474 83.4414 132.336 83.1562 131.367 82.5137C130.499 81.9386 130.138 81.3255 130.075 81.2123L137.069 77.3278ZM134.167 75.4038L133.82 67.4113C128.835 67.6276 125.795 70.9644 124.349 73.9833L131.564 77.4385L138.78 80.8938C138.722 81.0133 138.409 81.6282 137.612 82.2508C136.722 82.9469 135.612 83.3487 134.513 83.3963L134.167 75.4038ZM131.564 77.4385L124.5 73.685C123.538 75.4941 123.03 77.5117 122.713 79.2508C122.377 81.0989 122.16 83.2049 122.026 85.4954C121.758 90.0781 121.797 95.9326 122.102 102.961L130.094 102.614L138.087 102.267C137.792 95.4842 137.776 90.2372 137.999 86.4282C138.11 84.5227 138.274 83.1103 138.455 82.1173C138.655 81.0153 138.801 80.8692 138.629 81.192L131.564 77.4385ZM130.094 102.614L122.102 102.961C122.404 109.943 122.87 115.715 123.532 120.164C123.862 122.385 124.264 124.43 124.771 126.207C125.236 127.839 125.965 129.887 127.253 131.65L133.711 126.928L140.169 122.206C140.55 122.727 140.446 122.831 140.156 121.816C139.908 120.945 139.63 119.641 139.358 117.81C138.814 114.154 138.379 109.011 138.087 102.267L130.094 102.614ZM249.738 141.753L250.865 149.673L250.929 149.664L250.993 149.654L249.738 141.753ZM224.039 142.996L221.706 150.648L221.968 150.728L222.234 150.79L224.039 142.996ZM221.078 124.932L229.07 124.585L228.724 116.592L220.731 116.939L221.078 124.932ZM193.293 83.9854L186.176 80.3317L186.167 80.3504L186.157 80.3691L193.293 83.9854ZM206.695 59.1892L199.965 54.8633L199.941 54.9018L199.916 54.9406L206.695 59.1892ZM218.027 54.5978L219.876 62.381L219.876 62.381L218.027 54.5978ZM222.386 104.888L222.733 112.881L230.689 112.535L230.38 104.578L222.386 104.888ZM221.305 77.0048L229.299 76.6947L213.589 74.8914L221.305 77.0048ZM213.563 105.271L205.847 103.157L202.949 113.739L213.909 113.263L213.563 105.271ZM257.439 139.113L249.446 139.46C249.365 137.602 249.977 136.078 250.661 135.046C251.288 134.098 251.973 133.552 252.307 133.312C252.931 132.863 253.313 132.784 252.949 132.909C252.336 133.119 250.951 133.46 248.482 133.852L249.738 141.753L250.993 149.654C253.699 149.224 256.185 148.714 258.138 148.044C259.058 147.729 260.398 147.202 261.653 146.299C262.693 145.551 265.619 143.102 265.431 138.766L257.439 139.113ZM249.738 141.753L248.61 133.833C243.69 134.534 238.761 134.991 233.823 135.205L234.17 143.197L234.516 151.19C239.979 150.953 245.429 150.447 250.865 149.673L249.738 141.753ZM234.17 143.197L233.823 135.205C231.312 135.314 229.351 135.347 227.896 135.318C226.289 135.286 225.76 135.183 225.845 135.203L224.039 142.996L222.234 150.79C223.872 151.169 225.808 151.28 227.578 151.315C229.499 151.353 231.827 151.307 234.516 151.19L234.17 143.197ZM224.039 142.996L226.373 135.344C226.421 135.359 227.223 135.599 228.091 136.488C229.116 137.538 229.693 138.945 229.753 140.314L221.76 140.661L213.768 141.008C213.875 143.485 214.856 145.835 216.641 147.664C218.269 149.332 220.187 150.185 221.706 150.648L224.039 142.996ZM221.76 140.661L229.753 140.314L229.07 124.585L221.078 124.932L213.085 125.278L213.768 141.008L221.76 140.661ZM221.078 124.932L220.731 116.939L188.761 118.326L189.108 126.319L189.455 134.311L221.424 132.924L221.078 124.932ZM189.108 126.319L188.761 118.326C191.915 118.189 193.539 120.243 193.776 120.595C193.966 120.876 193.731 120.625 193.377 119.21C192.702 116.512 192.133 111.878 191.832 104.932L183.839 105.279L175.847 105.626C176.159 112.832 176.776 118.781 177.856 123.096C178.38 125.188 179.166 127.551 180.52 129.554C181.921 131.627 184.851 134.511 189.455 134.311L189.108 126.319ZM183.839 105.279L191.832 104.932C191.856 105.492 191.804 105.898 191.782 106.053C191.768 106.149 191.755 106.22 191.746 106.261C191.738 106.302 191.732 106.324 191.732 106.325C191.732 106.327 191.735 106.313 191.744 106.283C191.752 106.254 191.764 106.212 191.781 106.157C191.816 106.045 191.865 105.895 191.933 105.703C192.218 104.897 192.71 103.68 193.462 101.987C194.954 98.6248 197.263 93.8486 200.429 87.6016L193.293 83.9854L186.157 80.3691C182.95 86.6981 180.497 91.7589 178.838 95.4945C178.014 97.3504 177.333 98.998 176.848 100.371C176.606 101.054 176.373 101.783 176.195 102.504C176.054 103.08 175.787 104.261 175.847 105.626L183.839 105.279ZM193.293 83.9854L200.41 87.639C206.896 75.0058 211.21 67.0495 213.474 63.4379L206.695 59.1892L199.916 54.9406C197.227 59.231 192.607 67.8054 186.176 80.3317L193.293 83.9854ZM206.695 59.1892L213.425 63.5151C213.077 64.0558 212.735 64.3967 212.548 64.565C212.449 64.655 212.37 64.7168 212.322 64.7527C212.297 64.7711 212.279 64.7844 212.267 64.7927C212.254 64.8011 212.248 64.8052 212.248 64.8052C212.248 64.8053 212.253 64.8018 212.265 64.795C212.276 64.7881 212.293 64.7784 212.316 64.7658C212.361 64.7404 212.426 64.7058 212.513 64.6628C212.689 64.5757 212.932 64.4655 213.252 64.3356C214.602 63.7888 216.752 63.1237 219.876 62.381L218.027 54.5978L216.177 46.8146C212.707 47.6392 209.671 48.523 207.244 49.5066C206.029 49.9987 204.781 50.5895 203.639 51.3189C202.579 51.9955 201.088 53.1163 199.965 54.8633L206.695 59.1892ZM218.027 54.5978L219.876 62.381C226.013 60.9225 231.961 60.079 237.728 59.8289L237.381 51.8364L237.034 43.8439C230.184 44.1411 223.229 45.1386 216.177 46.8146L218.027 54.5978ZM237.381 51.8364L237.728 59.8289C242.874 59.6056 245.806 59.9855 247.178 60.4266C247.814 60.6309 247.549 60.6746 247.047 60.1633C246.385 59.4894 245.933 58.4831 245.89 57.4889L253.883 57.1422L261.875 56.7955C261.745 53.7978 260.541 51.0679 258.46 48.9501C256.539 46.9949 254.19 45.8745 252.076 45.1946C247.947 43.867 242.716 43.5974 237.034 43.8439L237.381 51.8364ZM253.883 57.1422L245.89 57.4889L249.446 139.46L257.439 139.113L265.431 138.766L261.875 56.7955L253.883 57.1422ZM222.386 104.888L230.38 104.578L229.299 76.6947L221.305 77.0048L213.311 77.3148L214.392 105.198L222.386 104.888ZM221.305 77.0048L213.589 74.8914L205.847 103.157L213.563 105.271L221.278 107.384L229.021 79.1182L221.305 77.0048ZM213.563 105.271L213.909 113.263L222.733 112.881L222.386 104.888L222.04 96.8956L213.216 97.2784L213.563 105.271ZM289.739 97.6102L294.92 103.706L294.989 103.647L295.057 103.587L289.739 97.6102ZM269.406 98.4922L264.626 104.907L264.699 104.961L264.773 105.014L269.406 98.4922ZM268.519 78.0315L273.402 84.3683L273.424 84.3511L273.446 84.3337L268.519 78.0315ZM288.852 77.1494L284.373 83.7782L284.454 83.8327L284.536 83.8853L288.852 77.1494ZM291.537 139.043L286.219 133.066L286.219 133.066L291.537 139.043ZM271.204 139.925L266.424 146.34L266.424 146.34L271.204 139.925ZM270.322 119.592L275.205 125.929L275.227 125.912L275.249 125.895L270.322 119.592ZM290.655 118.71L286.176 125.339L286.256 125.394L286.338 125.446L290.655 118.71ZM292.743 87.1022L284.75 87.4489C284.835 89.4082 284.657 90.6272 284.463 91.3031C284.285 91.9256 284.166 91.8606 284.422 91.6332L289.739 97.6102L295.057 103.587C300.008 99.1819 300.987 92.5709 300.735 86.7554L292.743 87.1022ZM289.739 97.6102L284.559 91.5142C284.256 91.7717 282.94 92.5882 279.279 92.747L279.625 100.739L279.972 108.732C285.348 108.499 290.774 107.229 294.92 103.706L289.739 97.6102ZM279.625 100.739L279.279 92.747C275.745 92.9003 274.386 92.2168 274.04 91.9705L269.406 98.4922L264.773 105.014C269.185 108.149 274.64 108.963 279.972 108.732L279.625 100.739ZM269.406 98.4922L274.186 92.0772C274.461 92.2816 274.347 92.3567 274.116 91.752C273.865 91.0953 273.582 89.8964 273.497 87.9371L265.504 88.2838L257.512 88.6305C257.764 94.4459 259.312 100.947 264.626 104.907L269.406 98.4922ZM265.504 88.2838L273.497 87.9371C273.409 85.908 273.595 84.7239 273.767 84.141C273.919 83.6214 273.941 83.9526 273.402 84.3683L268.519 78.0315L263.636 71.6947C258.129 75.9384 257.266 82.9601 257.512 88.6305L265.504 88.2838ZM268.519 78.0315L273.446 84.3337C273.93 83.9556 275.415 83.1774 278.985 83.0226L278.638 75.0301L278.291 67.0376C272.995 67.2674 267.734 68.4901 263.591 71.7293L268.519 78.0315ZM278.638 75.0301L278.985 83.0226C282.584 82.8664 284.006 83.5302 284.373 83.7782L288.852 77.1494L293.33 70.5206C288.946 67.5583 283.558 66.8091 278.291 67.0376L278.638 75.0301ZM288.852 77.1494L284.536 83.8853C283.962 83.5179 283.955 83.186 284.153 83.6905C284.374 84.2563 284.662 85.4198 284.75 87.4489L292.743 87.1022L300.735 86.7554C300.489 81.0851 299.021 74.1644 293.168 70.4136L288.852 77.1494ZM294.54 128.535L286.547 128.882C286.632 130.841 286.454 132.06 286.261 132.736C286.083 133.359 285.963 133.294 286.219 133.066L291.537 139.043L296.854 145.02C301.806 140.615 302.785 134.004 302.532 128.188L294.54 128.535ZM291.537 139.043L286.219 133.066C285.931 133.322 284.677 134.152 281.082 134.308L281.428 142.3L281.775 150.293C287.217 150.057 292.701 148.715 296.854 145.02L291.537 139.043ZM281.428 142.3L281.082 134.308C277.615 134.458 276.316 133.758 275.984 133.51L271.204 139.925L266.424 146.34C270.858 149.644 276.375 150.527 281.775 150.293L281.428 142.3ZM271.204 139.925L275.984 133.51C276.258 133.715 276.145 133.79 275.913 133.185C275.662 132.528 275.379 131.329 275.294 129.37L267.302 129.717L259.309 130.064C259.561 135.879 261.109 142.38 266.424 146.34L271.204 139.925ZM267.302 129.717L275.294 129.37C275.208 127.395 275.394 126.253 275.559 125.7C275.704 125.215 275.719 125.533 275.205 125.929L270.322 119.592L265.438 113.256C259.958 117.479 259.064 124.419 259.309 130.064L267.302 129.717ZM270.322 119.592L275.249 125.895C275.733 125.517 277.218 124.738 280.788 124.583L280.441 116.591L280.094 108.599C274.798 108.828 269.537 110.051 265.394 113.29L270.322 119.592ZM280.441 116.591L280.788 124.583C284.387 124.427 285.809 125.091 286.176 125.339L290.655 118.71L295.133 112.082C290.749 109.119 285.361 108.37 280.094 108.599L280.441 116.591ZM290.655 118.71L286.338 125.446C285.792 125.096 285.779 124.778 285.966 125.249C286.178 125.785 286.462 126.907 286.547 128.882L294.54 128.535L302.532 128.188C302.288 122.543 300.796 115.707 294.971 111.975L290.655 118.71ZM361.716 136.639L360.35 128.757L360.341 128.758L360.333 128.76L361.716 136.639ZM336.146 137.877L338.868 130.354L338.868 130.354L336.146 137.877ZM337.478 50.4409L334.431 43.0439L334.41 43.0524L334.389 43.0611L337.478 50.4409ZM359.112 47.0681L358.239 55.0204L358.266 55.0233L358.292 55.026L359.112 47.0681ZM365.489 52.3007L358.109 55.389L358.114 55.401L358.119 55.4129L365.489 52.3007ZM379.196 84.7611L371.827 87.8733L373.989 92.9945L379.543 92.7535L379.196 84.7611ZM379.708 84.7389L380.055 92.7314L388.047 92.3846L387.7 84.3922L379.708 84.7389ZM385.433 48.3606L388.521 55.7404L388.521 55.7404L385.433 48.3606ZM412.304 47.5792L418.634 42.6869L418.626 42.6765L412.304 47.5792ZM409.671 134.559L408.305 126.677L408.296 126.678L408.288 126.68L409.671 134.559ZM382.116 134.345L389.496 131.257L389.483 131.226L389.47 131.194L382.116 134.345ZM368.859 103.403L376.212 100.252L374.035 95.1705L368.512 95.4101L368.859 103.403ZM368.219 103.43L367.872 95.4379L359.88 95.7846L360.227 103.777L368.219 103.43ZM369.528 133.61L361.536 133.957C361.394 130.679 363.345 128.775 363.963 128.263C364.606 127.73 365.037 127.617 364.719 127.74C364.172 127.952 362.836 128.326 360.35 128.757L361.716 136.639L363.083 144.522C365.853 144.042 368.446 143.455 370.504 142.657C371.488 142.276 372.89 141.645 374.172 140.583C375.428 139.541 377.687 137.095 377.521 133.263L369.528 133.61ZM361.716 136.639L360.333 128.76C355.502 129.608 350.663 130.136 345.813 130.347L346.159 138.339L346.506 146.332C352.057 146.091 357.589 145.486 363.099 144.519L361.716 136.639ZM346.159 138.339L345.813 130.347C343.335 130.454 341.462 130.463 340.125 130.401C339.459 130.371 339.009 130.326 338.734 130.287C338.413 130.241 338.522 130.229 338.868 130.354L336.146 137.877L333.423 145.399C335.372 146.105 337.61 146.302 339.387 146.384C341.387 146.477 343.783 146.45 346.506 146.332L346.159 138.339ZM336.146 137.877L338.868 130.354C339.036 130.415 339.811 130.727 340.578 131.635C341.43 132.644 341.8 133.831 341.842 134.811L333.85 135.158L325.857 135.504C325.955 137.764 326.736 140.043 328.353 141.958C329.885 143.772 331.78 144.805 333.423 145.399L336.146 137.877ZM333.85 135.158L341.842 134.811L338.436 56.2928L330.444 56.6396L322.451 56.9863L325.857 135.504L333.85 135.158ZM330.444 56.6396L338.436 56.2928C338.482 57.3584 338.198 58.2449 337.881 58.8356C337.596 59.3658 337.339 59.5663 337.422 59.4934C337.497 59.4277 337.758 59.2193 338.314 58.9019C338.859 58.5908 339.597 58.2262 340.566 57.8207L337.478 50.4409L334.389 43.0611C331.651 44.2071 328.959 45.6253 326.844 47.4894C324.728 49.3535 322.259 52.5438 322.451 56.9863L330.444 56.6396ZM337.478 50.4409L340.525 57.8379C344.392 56.2451 348.998 55.2581 354.46 55.0212L354.113 47.0287L353.767 39.0362C346.782 39.3392 340.298 40.6271 334.431 43.0439L337.478 50.4409ZM354.113 47.0287L354.46 55.0212C356.582 54.9291 357.751 54.9668 358.239 55.0204L359.112 47.0681L359.985 39.1158C358.241 38.9245 356.078 38.9359 353.767 39.0362L354.113 47.0287ZM359.112 47.0681L358.292 55.026C358.329 55.0298 358.267 55.0271 358.145 54.9779C358.02 54.9271 357.905 54.8562 357.819 54.7861C357.646 54.6438 357.819 54.6968 358.109 55.389L365.489 52.3007L372.868 49.2123C370.646 43.9016 366.337 39.7701 359.932 39.1102L359.112 47.0681ZM365.489 52.3007L358.119 55.4129L371.827 87.8733L379.196 84.7611L386.566 81.6489L372.858 49.1884L365.489 52.3007ZM379.196 84.7611L379.543 92.7535L380.055 92.7314L379.708 84.7389L379.361 76.7464L378.85 76.7686L379.196 84.7611ZM379.708 84.7389L387.7 84.3922L386.391 54.2125L378.399 54.5593L370.406 54.906L371.715 85.0856L379.708 84.7389ZM378.399 54.5593L386.391 54.2125C386.437 55.2781 386.153 56.1646 385.836 56.7553C385.551 57.2855 385.294 57.486 385.377 57.4131C385.452 57.3474 385.713 57.139 386.269 56.8216C386.814 56.5104 387.552 56.1459 388.521 55.7404L385.433 48.3606L382.344 40.9807C379.606 42.1267 376.914 43.545 374.799 45.4091C372.683 47.2731 370.213 50.4635 370.406 54.906L378.399 54.5593ZM385.433 48.3606L388.521 55.7404C392.276 54.1688 396.822 53.1835 402.287 52.9464L401.94 44.9539L401.594 36.9614C394.612 37.2643 388.152 38.5501 382.344 40.9808L385.433 48.3606ZM401.94 44.9539L402.287 52.9464C404.548 52.8484 405.902 53.015 406.595 53.1905C407.301 53.3694 406.683 53.3859 405.982 52.482L412.304 47.5792L418.626 42.6765C416.387 39.7893 413.273 38.3767 410.524 37.6805C407.763 36.981 404.704 36.8265 401.594 36.9614L401.94 44.9539ZM412.304 47.5792L405.974 52.4716C406.212 52.7797 406.251 52.8945 406.217 52.8159C406.178 52.7265 406.042 52.3795 406.018 51.8237L414.011 51.4769L422.003 51.1302C421.853 47.661 420.264 44.7967 418.634 42.6869L412.304 47.5792ZM414.011 51.4769L406.018 51.8237L409.491 131.876L417.483 131.53L425.476 131.183L422.003 51.1302L414.011 51.4769ZM417.483 131.53L409.491 131.876C409.349 128.599 411.3 126.694 411.917 126.183C412.561 125.65 412.992 125.536 412.674 125.659C412.127 125.871 410.791 126.246 408.305 126.677L409.671 134.559L411.038 142.441C413.808 141.961 416.401 141.375 418.459 140.577C419.443 140.195 420.845 139.565 422.127 138.502C423.383 137.461 425.642 135.015 425.476 131.183L417.483 131.53ZM409.671 134.559L408.288 126.68C403.52 127.516 398.133 128.077 392.105 128.339L392.452 136.331L392.799 144.324C399.388 144.038 405.48 143.417 411.054 142.439L409.671 134.559ZM392.452 136.331L392.105 128.339C389.215 128.464 387.524 128.337 386.71 128.181C386.303 128.103 386.502 128.087 386.985 128.352C387.495 128.632 388.75 129.475 389.496 131.257L382.116 134.345L374.736 137.433C375.815 140.012 377.752 141.536 379.29 142.38C380.801 143.209 382.375 143.641 383.691 143.893C386.322 144.399 389.465 144.468 392.799 144.324L392.452 136.331ZM382.116 134.345L389.47 131.194L376.212 100.252L368.859 103.403L361.505 106.553L374.763 137.496L382.116 134.345ZM368.859 103.403L368.512 95.4101L367.872 95.4379L368.219 103.43L368.566 111.423L369.205 111.395L368.859 103.403ZM368.219 103.43L360.227 103.777L361.536 133.957L369.528 133.61L377.521 133.263L376.212 103.084L368.219 103.43ZM450.151 133.316L451.685 125.464L451.685 125.464L450.151 133.316ZM437.364 127.977L441.882 121.375L441.829 121.339L441.776 121.303L437.364 127.977ZM434.985 67.2227L429.969 60.9901L429.957 61.0003L429.944 61.0106L434.985 67.2227ZM476.352 57.9972L475.565 65.9584L475.658 65.9676L475.751 65.9746L476.352 57.9972ZM487.349 60.4669L484.583 67.9734L484.613 67.9846L484.644 67.9956L487.349 60.4669ZM496.572 66.3447L490.672 71.7464L490.722 71.8014L490.773 71.8555L496.572 66.3447ZM502.676 77.0983L495.143 79.7897L495.15 79.8094L495.157 79.829L502.676 77.0983ZM495.839 123.262L501.391 129.021L501.41 129.003L501.428 128.985L495.839 123.262ZM461.162 109.52L453.383 111.386L453.383 111.386L461.162 109.52ZM463.191 114.941L457.785 120.838L457.981 121.018L458.189 121.184L463.191 114.941ZM468.306 114.719L462.782 108.933L462.59 109.116L462.41 109.313L468.306 114.719ZM469.858 109.143L461.947 107.958L461.931 108.064L461.918 108.171L469.858 109.143ZM469.404 86.8694L461.453 87.747L461.469 87.8922L461.49 88.0367L469.404 86.8694ZM468.382 81.0203L460.59 82.834L460.644 83.0663L460.712 83.2951L468.382 81.0203ZM467.092 77.8732L473.55 73.1513L473.509 73.0946L473.466 73.0387L467.092 77.8732ZM461.694 77.4668L467.218 83.2534L467.41 83.0695L467.59 82.8732L461.694 77.4668ZM460.02 83.1767L467.931 84.3619L467.934 84.3418L467.937 84.3218L460.02 83.1767ZM466.72 134.262L466.373 126.27C460.405 126.529 455.545 126.218 451.685 125.464L450.151 133.316L448.618 141.167C454.061 142.23 460.247 142.551 467.067 142.255L466.72 134.262ZM450.151 133.316L451.685 125.464C448.092 124.762 444.847 123.404 441.882 121.375L437.364 127.977L432.846 134.579C437.627 137.851 442.907 140.052 448.618 141.167L450.151 133.316ZM437.364 127.977L441.776 121.303C436.947 118.111 432.977 111.023 432.355 96.6764L424.362 97.0231L416.37 97.3698C417.079 113.714 421.777 127.262 432.952 134.65L437.364 127.977ZM424.362 97.0231L432.355 96.6764C431.828 84.5304 435.004 77.509 440.025 73.4349L434.985 67.2227L429.944 61.0106C419.618 69.3892 415.713 82.2348 416.37 97.3698L424.362 97.0231ZM434.985 67.2227L440 73.4554C445.523 69.011 453.213 66.2398 463.749 65.7827L463.403 57.7902L463.056 49.7977C450.063 50.3614 438.807 53.8785 429.969 60.9901L434.985 67.2227ZM463.403 57.7902L463.749 65.7827C468.535 65.5751 472.452 65.6507 475.565 65.9584L476.352 57.9972L477.139 50.036C473.046 49.6314 468.33 49.569 463.056 49.7977L463.403 57.7902ZM476.352 57.9972L475.751 65.9746C478.539 66.1845 481.477 66.8287 484.583 67.9734L487.349 60.4669L490.115 52.9604C485.757 51.3541 481.363 50.3518 476.952 50.0198L476.352 57.9972ZM487.349 60.4669L484.644 67.9956C487.453 69.0051 489.359 70.3122 490.672 71.7464L496.572 66.3447L502.473 60.943C499.124 57.2838 494.88 54.6723 490.054 52.9382L487.349 60.4669ZM496.572 66.3447L490.773 71.8555C492.179 73.3345 493.725 75.8221 495.143 79.7897L502.676 77.0983L510.21 74.4068C508.322 69.1224 505.799 64.4408 502.372 60.8339L496.572 66.3447ZM502.676 77.0983L495.157 79.829C496.454 83.4013 497.321 88.0197 497.573 93.8472L505.566 93.5004L513.558 93.1537C513.256 86.1932 512.197 79.8768 510.196 74.3675L502.676 77.0983ZM505.566 93.5004L497.573 93.8472C498.07 105.293 495.193 112.71 490.249 117.539L495.839 123.262L501.428 128.985C510.578 120.049 514.186 107.625 513.558 93.1537L505.566 93.5004ZM495.839 123.262L490.286 117.503C484.981 122.617 477.316 125.795 466.373 126.27L466.72 134.262L467.067 142.255C480.847 141.657 492.595 137.501 501.391 129.021L495.839 123.262ZM461.162 109.52L453.383 111.386C453.784 113.056 454.224 114.623 454.725 115.962C455.076 116.9 455.937 119.143 457.785 120.838L463.191 114.941L468.598 109.044C469.013 109.425 469.286 109.771 469.439 109.982C469.597 110.202 469.693 110.369 469.735 110.446C469.812 110.587 469.797 110.586 469.71 110.354C469.534 109.885 469.271 109.027 468.942 107.654L461.162 109.52ZM463.191 114.941L458.189 121.184C460.605 123.12 463.442 123.835 466.134 123.718L465.788 115.725L465.441 107.733C465.711 107.721 466.15 107.743 466.684 107.904C467.234 108.07 467.752 108.344 468.193 108.698L463.191 114.941ZM465.788 115.725L466.134 123.718C468.673 123.608 471.791 122.756 474.203 120.126L468.306 114.719L462.41 109.313C462.993 108.677 463.665 108.255 464.281 108.008C464.862 107.776 465.293 107.739 465.441 107.733L465.788 115.725ZM468.306 114.719L473.83 120.506C475.849 118.579 476.594 116.076 476.894 115C477.304 113.526 477.587 111.848 477.799 110.115L469.858 109.143L461.918 108.171C461.837 108.826 461.756 109.367 461.676 109.806C461.596 110.25 461.526 110.542 461.479 110.711C461.427 110.899 461.432 110.828 461.538 110.603C461.596 110.481 461.705 110.266 461.884 109.997C462.061 109.732 462.349 109.346 462.782 108.933L468.306 114.719ZM469.858 109.143L477.77 110.328C478.336 106.55 478.459 102.148 478.247 97.248L470.254 97.5947L462.262 97.9414C462.449 102.249 462.308 105.546 461.947 107.958L469.858 109.143ZM470.254 97.5947L478.247 97.248C478.04 92.4794 477.743 88.5771 477.319 85.7021L469.404 86.8694L461.49 88.0367C461.792 90.0843 462.062 93.3322 462.262 97.9414L470.254 97.5947ZM469.404 86.8694L477.356 85.9918C477.058 83.2864 476.655 80.7797 476.052 78.7454L468.382 81.0203L460.712 83.2951C460.909 83.9593 461.188 85.3521 461.453 87.747L469.404 86.8694ZM468.382 81.0203L476.174 79.2066C475.726 77.2841 474.969 75.0909 473.55 73.1513L467.092 77.8732L460.635 82.5951C460.54 82.4651 460.481 82.3646 460.45 82.3079C460.419 82.2513 460.412 82.2294 460.421 82.2522C460.43 82.2747 460.452 82.3325 460.483 82.4319C460.514 82.5309 460.551 82.6636 460.59 82.834L468.382 81.0203ZM467.092 77.8732L473.466 73.0387C471.454 70.3859 468.176 68.1531 463.86 68.3403L464.207 76.3328L464.554 84.3253C463.704 84.3622 462.797 84.1689 461.992 83.7392C461.242 83.3386 460.847 82.8775 460.718 82.7077L467.092 77.8732ZM464.207 76.3328L463.86 68.3403C460.86 68.4705 457.977 69.6827 455.797 72.0604L461.694 77.4668L467.59 82.8732C467.222 83.2749 466.72 83.6627 466.102 83.9416C465.493 84.2164 464.943 84.3084 464.554 84.3253L464.207 76.3328ZM461.694 77.4668L456.17 71.6801C454.181 73.5788 453.415 76.0615 453.106 77.1132C452.676 78.5791 452.357 80.2663 452.102 82.0316L460.02 83.1767L467.937 84.3218C468.036 83.6371 468.134 83.0673 468.227 82.6017C468.322 82.1302 468.403 81.8108 468.46 81.6148C468.523 81.3991 468.527 81.4405 468.432 81.6377C468.381 81.7444 468.277 81.9471 468.105 82.205C467.936 82.4576 467.651 82.8399 467.218 83.2534L461.694 77.4668ZM460.02 83.1767L452.108 81.9915C451.53 85.8482 451.448 90.8555 451.703 96.7339L459.696 96.3872L467.688 96.0404C467.448 90.4949 467.582 86.6952 467.931 84.3619L460.02 83.1767ZM459.696 96.3872L451.703 96.7339C451.958 102.612 452.474 107.594 453.383 111.386L461.162 109.52L468.942 107.654C468.392 105.36 467.929 101.586 467.688 96.0404L459.696 96.3872ZM565.033 127.691L570.772 133.264L570.772 133.264L565.033 127.691ZM541.041 129.885L539.705 137.773L539.796 137.788L539.886 137.801L541.041 129.885ZM530.622 125.981L526.456 132.81L526.487 132.83L526.519 132.849L530.622 125.981ZM519.29 80.3493L527.282 80.0026L526.936 72.0101L518.943 72.3568L519.29 80.3493ZM510.338 77.7908L517.773 74.8377L517.773 74.8377L510.338 77.7908ZM510.112 60.7606L502.607 57.9895L502.585 58.0517L502.563 58.1142L510.112 60.7606ZM518.252 56.4358L518.599 64.4283L526.592 64.0815L526.245 56.0891L518.252 56.4358ZM524.977 34.2355L522.269 26.7077L522.251 26.7141L522.233 26.7206L524.977 34.2355ZM552.78 54.938L544.787 55.2847L545.134 63.2772L553.127 62.9304L552.78 54.938ZM564.899 74.399L557.293 71.9173L557.271 71.985L557.25 72.053L564.899 74.399ZM553.817 78.8515L553.471 70.859L545.478 71.2057L545.825 79.1982L553.817 78.8515ZM557.99 107.113L554.6 114.36L554.726 114.419L554.854 114.473L557.99 107.113ZM566.074 110.35L573.775 108.182L573.775 108.182L566.074 110.35ZM565.033 127.691L559.293 122.119C559.52 121.885 559.719 121.731 559.851 121.64C559.982 121.55 560.062 121.511 560.066 121.509C560.07 121.507 560.019 121.532 559.898 121.574C559.777 121.617 559.604 121.67 559.369 121.73C558.365 121.984 556.731 122.222 554.294 122.328L554.641 130.32L554.987 138.313C558.007 138.182 560.832 137.864 563.293 137.241C565.582 136.662 568.515 135.589 570.772 133.264L565.033 127.691ZM554.641 130.32L554.294 122.328C549.119 122.552 545.13 122.397 542.196 121.969L541.041 129.885L539.886 137.801C544.173 138.427 549.25 138.561 554.987 138.313L554.641 130.32ZM541.041 129.885L542.377 121.997C539.797 121.561 537.257 120.626 534.725 119.113L530.622 125.981L526.519 132.849C530.652 135.318 535.057 136.986 539.705 137.773L541.041 129.885ZM530.622 125.981L534.789 119.152C531.956 117.424 528.692 112.503 528.148 99.9518L520.155 100.299L512.163 100.645C512.765 114.522 516.478 126.723 526.456 132.81L530.622 125.981ZM520.155 100.299L528.148 99.9518L527.282 80.0026L519.29 80.3493L511.297 80.696L512.163 100.645L520.155 100.299ZM519.29 80.3493L518.943 72.3568L512.549 72.6342L512.896 80.6267L513.243 88.6191L519.637 88.3418L519.29 80.3493ZM512.896 80.6267L512.549 72.6342C515.237 72.5176 516.925 73.9597 517.494 74.5906C517.98 75.1299 517.999 75.4062 517.773 74.8377L510.338 77.7908L502.904 80.744C503.445 82.1067 504.273 83.8213 505.612 85.3058C507.033 86.882 509.616 88.7764 513.243 88.6191L512.896 80.6267ZM510.338 77.7908L517.773 74.8377C517.481 74.1005 517.089 72.4459 516.958 69.4321L508.966 69.7788L500.973 70.1255C501.139 73.932 501.662 77.6187 502.904 80.744L510.338 77.7908ZM508.966 69.7788L516.958 69.4321C516.844 66.8047 517.156 64.8499 517.662 63.4071L510.112 60.7606L502.563 58.1142C501.244 61.8754 500.792 65.9326 500.973 70.1255L508.966 69.7788ZM510.112 60.7606L517.617 63.5318C517.897 62.7737 517.989 62.8888 517.594 63.2935C517.365 63.528 516.972 63.8584 516.391 64.1352C515.795 64.4198 515.145 64.5781 514.507 64.6058L514.16 56.6133L513.814 48.6208C507.026 48.9153 503.885 54.5285 502.607 57.9895L510.112 60.7606ZM514.16 56.6133L514.507 64.6058L518.599 64.4283L518.252 56.4358L517.906 48.4433L513.814 48.6208L514.16 56.6133ZM518.252 56.4358L526.245 56.0891L525.574 40.6156L517.581 40.9623L509.589 41.3091L510.26 56.7825L518.252 56.4358ZM517.581 40.9623L525.574 40.6156C525.604 41.3052 525.451 41.9772 525.188 42.5239C524.947 43.0253 524.702 43.2393 524.727 43.2165C524.758 43.1884 524.973 43.0057 525.498 42.7199C526.016 42.4387 526.74 42.1081 527.72 41.7504L524.977 34.2355L522.233 26.7206C519.26 27.806 516.288 29.2639 513.961 31.3805C511.467 33.6487 509.403 37.0194 509.589 41.3091L517.581 40.9623ZM524.977 34.2355L527.684 41.7633C532.132 40.1634 536.374 39.3143 540.436 39.1381L540.089 31.1456L539.742 23.1531C533.914 23.406 528.082 24.6167 522.269 26.7077L524.977 34.2355ZM540.089 31.1456L540.436 39.1381C542.067 39.0673 543.316 39.1157 544.238 39.2269C545.182 39.3407 545.588 39.4976 545.647 39.5237C545.676 39.5366 545.196 39.3284 544.705 38.6642C544.175 37.9471 544.003 37.1998 543.983 36.7421L551.976 36.3954L559.968 36.0487C559.865 33.6728 559.135 31.2681 557.573 29.1545C556.05 27.0936 554.063 25.7497 552.111 24.8876C548.435 23.2642 544.023 22.9674 539.742 23.1531L540.089 31.1456ZM551.976 36.3954L543.983 36.7421L544.787 55.2847L552.78 54.938L560.772 54.5912L559.968 36.0487L551.976 36.3954ZM552.78 54.938L553.127 62.9304L562.59 62.5199L562.243 54.5274L561.896 46.535L552.433 46.9455L552.78 54.938ZM562.243 54.5274L562.59 62.5199C561.882 62.5506 561.096 62.4519 560.304 62.1652C559.519 61.8807 558.895 61.4715 558.434 61.0653C557.581 60.3138 557.355 59.6421 557.403 59.7625C557.43 59.8314 557.56 60.2101 557.694 61.049C557.824 61.86 557.931 62.9372 557.991 64.3209L565.984 63.9742L573.976 63.6275C573.827 60.1851 573.405 56.7159 572.279 53.8715C571.181 51.0992 568.13 46.2645 561.896 46.535L562.243 54.5274ZM565.984 63.9742L557.991 64.3209C558.148 67.9209 557.802 70.36 557.293 71.9173L564.899 74.399L572.504 76.8807C573.805 72.893 574.183 68.3823 573.976 63.6275L565.984 63.9742ZM564.899 74.399L557.25 72.053C557.003 72.8612 556.913 72.7152 557.324 72.236C557.565 71.9542 558.007 71.5286 558.693 71.1641C559.406 70.7853 560.208 70.5667 561.015 70.5317L561.362 78.5242L561.709 86.5166C568.886 86.2053 571.618 79.7738 572.547 76.745L564.899 74.399ZM561.362 78.5242L561.015 70.5317L553.471 70.859L553.817 78.8515L554.164 86.8439L561.709 86.5166L561.362 78.5242ZM553.817 78.8515L545.825 79.1982L546.84 102.6L554.833 102.253L562.825 101.907L561.81 78.5047L553.817 78.8515ZM554.833 102.253L546.84 102.6C546.94 104.903 547.545 107.332 548.988 109.553C550.443 111.792 552.446 113.352 554.6 114.36L557.99 107.113L561.38 99.8668C561.529 99.9368 562.003 100.217 562.405 100.836C562.588 101.118 562.7 101.386 562.762 101.597C562.821 101.8 562.825 101.916 562.825 101.907L554.833 102.253ZM557.99 107.113L554.854 114.473C557.454 115.58 560.425 116.424 563.513 116.29L563.166 108.298L562.82 100.305C562.948 100.3 562.882 100.322 562.57 100.251C562.261 100.18 561.785 100.034 561.126 99.7533L557.99 107.113ZM563.166 108.298L563.513 116.29C563.037 116.311 561.771 116.243 560.432 115.297C559.065 114.333 558.538 113.104 558.373 112.518L566.074 110.35L573.775 108.182C573.206 106.161 571.993 103.873 569.657 102.225C567.348 100.595 564.831 100.218 562.82 100.305L563.166 108.298ZM566.074 110.35L558.373 112.518C558.519 113.035 558.757 114.45 558.876 117.196L566.868 116.85L574.861 116.503C574.729 113.452 574.437 110.533 573.775 108.182L566.074 110.35ZM566.868 116.85L558.876 117.196C558.987 119.765 558.883 121.475 558.708 122.508C558.623 123.011 558.547 123.19 558.563 123.15C558.576 123.119 558.759 122.668 559.293 122.119L565.033 127.691L570.772 133.264C573.198 130.766 574.083 127.544 574.483 125.18C574.92 122.599 574.997 119.646 574.861 116.503L566.868 116.85ZM633.208 124.99L632.007 117.081L631.994 117.083L633.208 124.99ZM608.015 126.083L610.738 118.56L610.738 118.56L608.015 126.083ZM605.322 37.4123L601.888 30.1866L601.888 30.1866L605.322 37.4123ZM667.703 57.7679L659.865 56.1658L659.85 56.237L659.837 56.3085L667.703 57.7679ZM664.85 62.8883L664.803 70.8882L665 70.8894L665.197 70.8808L664.85 62.8883ZM638.835 62.7357L638.882 54.7358L630.478 54.6865L630.842 63.0824L638.835 62.7357ZM639.212 71.4315L631.219 71.7782L631.582 80.1394L639.919 79.4002L639.212 71.4315ZM664.588 71.6119L657.062 74.3268L657.138 74.5371L657.226 74.7429L664.588 71.6119ZM664.903 90.6882L672.75 92.2452L672.754 92.2237L672.758 92.2021L664.903 90.6882ZM661.55 96.0866L661.607 104.086L661.752 104.085L661.896 104.079L661.55 96.0866ZM640.288 96.2402L640.23 88.2404L631.936 88.3003L632.296 96.5869L640.288 96.2402ZM641.398 121.816L633.405 122.163C633.277 119.21 634.907 117.362 635.653 116.709C636.329 116.119 636.803 115.992 636.501 116.109C635.971 116.315 634.607 116.686 632.007 117.081L633.208 124.99L634.408 132.899C637.324 132.457 640.083 131.881 642.283 131.028C643.345 130.616 644.837 129.932 646.181 128.758C647.596 127.522 649.546 125.062 649.39 121.469L641.398 121.816ZM633.208 124.99L631.994 117.083C626.82 117.877 621.923 118.369 617.298 118.57L617.645 126.562L617.992 134.554C623.256 134.326 628.734 133.77 634.421 132.897L633.208 124.99ZM617.645 126.562L617.298 118.57C614.957 118.671 613.189 118.676 611.927 118.613C611.299 118.582 610.875 118.537 610.618 118.499C610.323 118.456 610.419 118.445 610.738 118.56L608.015 126.083L605.293 133.605C607.21 134.299 609.383 134.506 611.132 134.593C613.079 134.69 615.388 134.667 617.992 134.554L617.645 126.562ZM608.015 126.083L610.738 118.56C610.906 118.621 611.68 118.933 612.447 119.841C613.299 120.85 613.669 122.037 613.712 123.017L605.719 123.364L597.727 123.711C597.825 125.97 598.605 128.249 600.223 130.164C601.755 131.979 603.65 133.011 605.293 133.605L608.015 126.083ZM605.719 123.364L613.712 123.017L610.195 41.9414L602.202 42.2881L594.21 42.6348L597.727 123.711L605.719 123.364ZM602.202 42.2881L610.195 41.9414C610.207 42.2229 610.144 42.9437 609.649 43.7183C609.183 44.4468 608.685 44.6713 608.755 44.638L605.322 37.4123L601.888 30.1866C599.782 31.1873 597.677 32.7414 596.171 35.0952C594.636 37.495 594.101 40.1367 594.21 42.6348L602.202 42.2881ZM605.322 37.4123L608.755 44.6381C608.731 44.6496 608.907 44.5663 609.381 44.4402C609.839 44.3183 610.471 44.184 611.308 44.0532C612.991 43.7899 615.246 43.58 618.14 43.4545L617.793 35.462L617.446 27.4695C611.407 27.7315 605.71 28.3707 601.888 30.1866L605.322 37.4123ZM617.793 35.462L618.14 43.4545L665.583 41.3964L665.236 33.4039L664.89 25.4114L617.446 27.4695L617.793 35.462ZM665.236 33.4039L665.583 41.3964C664.55 41.4412 663.488 41.2405 662.51 40.7874C661.566 40.3503 660.913 39.7784 660.506 39.328C659.781 38.527 659.649 37.9148 659.744 38.2091C659.921 38.7544 660.218 40.2978 660.351 43.353L668.343 43.0062L676.336 42.6595C676.187 39.2354 675.827 35.9388 674.967 33.2833C674.545 31.9773 673.801 30.1745 672.37 28.5927C670.73 26.7803 668.144 25.2702 664.89 25.4114L665.236 33.4039ZM668.343 43.0062L660.351 43.353C660.619 49.533 660.372 53.6812 659.865 56.1658L667.703 57.7679L675.54 59.37C676.442 54.9603 676.623 49.2675 676.336 42.6595L668.343 43.0062ZM667.703 57.7679L659.837 56.3085C659.584 57.672 659.384 57.9416 659.534 57.6731C659.629 57.5023 659.992 56.889 660.787 56.2608C661.675 55.5587 662.959 54.9629 664.503 54.8959L664.85 62.8883L665.197 70.8808C669.877 70.6778 672.442 67.3777 673.511 65.4602C674.611 63.4848 675.198 61.2219 675.568 59.2272L667.703 57.7679ZM664.85 62.8883L664.897 54.8885L638.882 54.7358L638.835 62.7357L638.788 70.7355L664.803 70.8882L664.85 62.8883ZM638.835 62.7357L630.842 63.0824L631.219 71.7782L639.212 71.4315L647.204 71.0848L646.827 62.389L638.835 62.7357ZM639.212 71.4315L639.919 79.4002C651.263 78.3943 658.661 77.8266 662.288 77.6693L661.941 69.6768L661.595 61.6843C657.549 61.8598 649.794 62.4619 638.505 63.4628L639.212 71.4315ZM661.941 69.6768L662.288 77.6693C661.437 77.7062 660.108 77.5037 658.84 76.5766C657.651 75.7075 657.195 74.6956 657.062 74.3268L664.588 71.6119L672.113 68.897C671.494 67.1827 670.355 65.1754 668.284 63.6613C666.134 62.0892 663.724 61.5919 661.595 61.6843L661.941 69.6768ZM664.588 71.6119L657.226 74.7429C657.099 74.4443 657.218 74.616 657.372 75.7071C657.508 76.6793 657.628 78.0414 657.706 79.8539L665.699 79.5072L673.691 79.1604C673.527 75.3825 673.167 71.3427 671.949 68.4809L664.588 71.6119ZM665.699 79.5072L657.706 79.8539C657.847 83.0932 657.621 86.1947 657.047 89.1742L664.903 90.6882L672.758 92.2021C673.578 87.9464 673.884 83.5939 673.691 79.1604L665.699 79.5072ZM664.903 90.6882L657.056 89.1311C656.931 89.7571 656.814 90.1761 656.727 90.4299C656.636 90.6981 656.618 90.6678 656.743 90.4659C656.865 90.2691 657.246 89.7125 658.019 89.1688C658.865 88.5732 659.971 88.1475 661.203 88.0941L661.55 96.0866L661.896 104.079C666.234 103.891 668.957 101.126 670.334 98.9082C671.636 96.8131 672.324 94.3894 672.75 92.2452L664.903 90.6882ZM661.55 96.0866L661.492 88.0868L640.23 88.2404L640.288 96.2402L640.346 104.24L661.607 104.086L661.55 96.0866ZM640.288 96.2402L632.296 96.5869L633.405 122.163L641.398 121.816L649.39 121.469L648.281 95.8935L640.288 96.2402ZM703.039 122.345L704.572 114.493L704.572 114.493L703.039 122.345ZM690.251 117.006L694.769 110.404L694.716 110.368L694.663 110.333L690.251 117.006ZM687.872 56.2523L682.856 50.0197L682.844 50.0299L682.831 50.0402L687.872 56.2523ZM729.239 47.0268L728.452 54.988L728.545 54.9972L728.638 55.0043L729.239 47.0268ZM740.236 49.4965L737.47 57.003L737.5 57.0142L737.531 57.0252L740.236 49.4965ZM749.46 55.3743L743.559 60.776L743.609 60.831L743.66 60.8851L749.46 55.3743ZM755.563 66.1279L748.03 68.8193L748.037 68.839L748.044 68.8586L755.563 66.1279ZM748.726 112.292L754.278 118.051L754.297 118.033L754.315 118.015L748.726 112.292ZM714.05 98.5495L706.27 100.415L706.27 100.415L714.05 98.5495ZM716.078 103.971L710.672 109.867L710.868 110.047L711.076 110.214L716.078 103.971ZM721.194 103.749L715.67 97.9622L715.477 98.1461L715.297 98.3424L721.194 103.749ZM722.745 98.1723L714.834 96.9871L714.818 97.0935L714.805 97.2003L722.745 98.1723ZM722.292 75.899L714.34 76.7766L714.356 76.9218L714.377 77.0663L722.292 75.899ZM721.269 70.0499L713.478 71.8636L713.532 72.0959L713.599 72.3247L721.269 70.0499ZM719.98 66.9028L726.437 62.1809L726.396 62.1242L726.354 62.0683L719.98 66.9028ZM714.581 66.4964L720.105 72.283L720.298 72.0991L720.478 71.9028L714.581 66.4964ZM712.907 72.2063L720.819 73.3915L720.822 73.3714L720.824 73.3514L712.907 72.2063ZM719.607 123.292L719.26 115.299C713.293 115.558 708.432 115.247 704.572 114.493L703.039 122.345L701.505 130.197C706.948 131.26 713.134 131.58 719.954 131.284L719.607 123.292ZM703.039 122.345L704.572 114.493C700.979 113.792 697.734 112.433 694.769 110.404L690.251 117.006L685.733 123.608C690.515 126.881 695.794 129.081 701.505 130.197L703.039 122.345ZM690.251 117.006L694.663 110.333C689.834 107.14 685.864 100.053 685.242 85.706L677.249 86.0527L669.257 86.3994C669.966 102.744 674.664 116.292 685.839 123.68L690.251 117.006ZM677.249 86.0527L685.242 85.706C684.715 73.56 687.892 66.5386 692.913 62.4645L687.872 56.2523L682.831 50.0402C672.505 58.4188 668.6 71.2644 669.257 86.3994L677.249 86.0527ZM687.872 56.2523L692.887 62.485C698.41 58.0406 706.1 55.2694 716.636 54.8123L716.29 46.8198L715.943 38.8274C702.95 39.391 691.694 42.9081 682.856 50.0197L687.872 56.2523ZM716.29 46.8198L716.636 54.8123C721.422 54.6047 725.339 54.6803 728.452 54.988L729.239 47.0268L730.026 39.0656C725.933 38.661 721.217 38.5986 715.943 38.8274L716.29 46.8198ZM729.239 47.0268L728.638 55.0043C731.426 55.2141 734.364 55.8583 737.47 57.003L740.236 49.4965L743.003 41.99C738.644 40.3837 734.25 39.3814 729.839 39.0494L729.239 47.0268ZM740.236 49.4965L737.531 57.0252C740.34 58.0348 742.246 59.3418 743.559 60.776L749.46 55.3743L755.361 49.9726C752.011 46.3134 747.767 43.7019 742.942 41.9678L740.236 49.4965ZM749.46 55.3743L743.66 60.8851C745.066 62.3641 746.612 64.8517 748.03 68.8193L755.563 66.1279L763.097 63.4364C761.209 58.152 758.686 53.4704 755.259 49.8635L749.46 55.3743ZM755.563 66.1279L748.044 68.8586C749.341 72.4309 750.208 77.0493 750.461 82.8768L758.453 82.53L766.446 82.1833C766.144 75.2228 765.084 68.9064 763.083 63.3971L755.563 66.1279ZM758.453 82.53L750.461 82.8768C750.957 94.3229 748.08 101.739 743.136 106.568L748.726 112.292L754.315 118.015C763.465 109.079 767.073 96.6542 766.446 82.1833L758.453 82.53ZM748.726 112.292L743.173 106.532C737.868 111.647 730.203 114.825 719.26 115.299L719.607 123.292L719.954 131.284C733.734 130.687 745.482 126.531 754.278 118.051L748.726 112.292ZM714.05 98.5495L706.27 100.415C706.671 102.086 707.111 103.653 707.612 104.991C707.963 105.93 708.824 108.173 710.672 109.867L716.078 103.971L721.485 98.074C721.9 98.4548 722.173 98.8005 722.326 99.012C722.484 99.2312 722.58 99.3982 722.622 99.4756C722.699 99.6169 722.684 99.6159 722.597 99.3832C722.421 98.9148 722.158 98.0564 721.829 96.6837L714.05 98.5495ZM716.078 103.971L711.076 110.214C713.493 112.15 716.329 112.864 719.022 112.747L718.675 104.755L718.328 96.7624C718.598 96.7507 719.037 96.7723 719.572 96.9338C720.121 97.0997 720.64 97.3741 721.081 97.7274L716.078 103.971ZM718.675 104.755L719.022 112.747C721.56 112.637 724.678 111.786 727.09 109.155L721.194 103.749L715.297 98.3424C715.88 97.7067 716.552 97.2842 717.168 97.0381C717.749 96.806 718.18 96.7688 718.328 96.7624L718.675 104.755ZM721.194 103.749L726.718 109.535C728.736 107.608 729.481 105.106 729.781 104.03C730.191 102.556 730.474 100.877 730.686 99.1443L722.745 98.1723L714.805 97.2003C714.724 97.8557 714.643 98.397 714.563 98.8354C714.483 99.2799 714.413 99.5715 714.367 99.7402C714.314 99.9285 714.319 99.8579 714.426 99.6323C714.483 99.5109 714.593 99.2955 714.772 99.0263C714.948 98.7612 715.237 98.3755 715.67 97.9622L721.194 103.749ZM722.745 98.1723L730.657 99.3575C731.223 95.5792 731.346 91.1775 731.134 86.2776L723.141 86.6243L715.149 86.971C715.336 91.2785 715.195 94.5754 714.834 96.9871L722.745 98.1723ZM723.141 86.6243L731.134 86.2776C730.927 81.509 730.63 77.6067 730.206 74.7317L722.292 75.899L714.377 77.0663C714.679 79.1139 714.949 82.3618 715.149 86.971L723.141 86.6243ZM722.292 75.899L730.243 75.0214C729.945 72.316 729.542 69.8093 728.939 67.775L721.269 70.0499L713.599 72.3247C713.796 72.9889 714.076 74.3817 714.34 76.7766L722.292 75.899ZM721.269 70.0499L729.061 68.2362C728.613 66.3137 727.856 64.1205 726.437 62.1809L719.98 66.9028L713.522 71.6247C713.427 71.4947 713.368 71.3942 713.337 71.3375C713.306 71.2809 713.299 71.2591 713.308 71.2818C713.317 71.3043 713.34 71.3621 713.37 71.4615C713.401 71.5606 713.438 71.6932 713.478 71.8636L721.269 70.0499ZM719.98 66.9028L726.354 62.0683C724.342 59.4155 721.063 57.1827 716.747 57.3699L717.094 65.3624L717.441 73.3549C716.591 73.3918 715.684 73.1986 714.879 72.7688C714.129 72.3682 713.734 71.9071 713.606 71.7373L719.98 66.9028ZM717.094 65.3624L716.747 57.3699C713.747 57.5001 710.864 58.7123 708.684 61.09L714.581 66.4964L720.478 71.9028C720.109 72.3045 719.607 72.6923 718.989 72.9712C718.38 73.246 717.83 73.338 717.441 73.3549L717.094 65.3624ZM714.581 66.4964L709.057 60.7098C707.068 62.6084 706.302 65.0911 705.993 66.1428C705.564 67.6087 705.244 69.2959 704.989 71.0612L712.907 72.2063L720.824 73.3514C720.923 72.6667 721.021 72.0969 721.114 71.6313C721.209 71.1598 721.29 70.8404 721.347 70.6444C721.41 70.4287 721.414 70.4701 721.319 70.6673C721.268 70.774 721.164 70.9767 720.992 71.2346C720.823 71.4872 720.538 71.8695 720.105 72.283L714.581 66.4964ZM712.907 72.2063L704.995 71.0211C704.417 74.8778 704.336 79.8851 704.591 85.7635L712.583 85.4168L720.576 85.07C720.335 79.5245 720.469 75.7248 720.819 73.3915L712.907 72.2063ZM712.583 85.4168L704.591 85.7635C704.846 91.6419 705.361 96.6232 706.27 100.415L714.05 98.5495L721.829 96.6837C721.279 94.3894 720.816 90.6156 720.576 85.07L712.583 85.4168ZM773.068 113.542L766.91 118.649L766.938 118.682L766.966 118.715L773.068 113.542ZM772.146 47.9841L774.81 55.5276L774.868 55.507L774.926 55.4856L772.146 47.9841ZM802.065 96.7813L794.246 98.4735L794.25 98.4926L794.254 98.5117L802.065 96.7813ZM815.747 45.9646L818.308 53.5434L818.308 53.5434L815.747 45.9646ZM837.374 116.261L838.477 124.185L838.477 124.185L837.374 116.261ZM813.533 116.014L821.488 115.17L821.45 114.811L821.38 114.456L813.533 116.014ZM811.894 107.758L819.74 106.2L818.404 99.4677L811.547 99.7652L811.894 107.758ZM810.871 107.802L810.524 99.8095L804.283 100.08L803.033 106.2L810.871 107.802ZM806.594 115.547L801.147 109.687L801.138 109.696L801.13 109.704L806.594 115.547ZM801.345 118.593L804.202 126.066L804.281 126.035L804.36 126.003L801.345 118.593ZM793.467 120.088L793.12 112.095C784.713 112.46 780.924 110.438 779.17 108.368L773.068 113.542L766.966 118.715C773.313 126.202 783.124 128.544 793.813 128.08L793.467 120.088ZM773.068 113.542L779.226 108.435C777.034 105.793 774.832 99.5762 774.313 87.6074L766.32 87.9542L758.328 88.3009C758.874 100.885 761.17 111.727 766.91 118.649L773.068 113.542ZM766.32 87.9542L774.313 87.6074L772.804 52.8242L764.812 53.1709L756.819 53.5176L758.328 88.3009L766.32 87.9542ZM764.812 53.1709L772.804 52.8242C772.877 54.497 772.28 55.7547 771.812 56.4327C771.398 57.0328 771.059 57.2332 771.209 57.1271C771.326 57.0444 771.655 56.8369 772.298 56.5345C772.926 56.2392 773.753 55.9007 774.81 55.5276L772.146 47.9841L769.482 40.4407C766.745 41.407 764.084 42.5689 761.97 44.0637C760.193 45.3209 756.597 48.3988 756.819 53.5176L764.812 53.1709ZM772.146 47.9841L774.926 55.4856C779.067 53.9507 783.494 53.0651 788.244 52.859L787.897 44.8665L787.551 36.8741C781.218 37.1488 775.143 38.3416 769.366 40.4827L772.146 47.9841ZM787.897 44.8665L788.244 52.859C789.776 52.7926 790.93 52.8434 791.764 52.9502C792.619 53.0597 792.945 53.2038 792.94 53.2016C792.897 53.1819 792.41 52.9393 791.938 52.272C791.44 51.5687 791.297 50.8703 791.28 50.4852L799.273 50.1385L807.265 49.7918C807.165 47.4885 806.486 45.1317 804.998 43.03C803.537 40.9643 801.606 39.5832 799.668 38.6849C796.03 36.9988 791.688 36.6946 787.551 36.8741L787.897 44.8665ZM799.273 50.1385L791.28 50.4852L792.689 82.9667L800.682 82.6199L808.674 82.2732L807.265 49.7918L799.273 50.1385ZM800.682 82.6199L792.689 82.9667C792.973 89.5082 793.452 94.8046 794.246 98.4735L802.065 96.7813L809.884 95.0891C809.396 92.8347 808.952 88.6901 808.674 82.2732L800.682 82.6199ZM802.065 96.7813L794.254 98.5117C794.737 100.692 795.693 103.359 797.785 105.532C800.151 107.989 803.272 109.093 806.436 108.955L806.09 100.963L805.743 92.9703C806.19 92.9509 806.836 93.0061 807.563 93.2862C808.302 93.5707 808.891 93.9985 809.313 94.436C810.063 95.2156 810.03 95.7472 809.875 95.0509L802.065 96.7813ZM806.09 100.963L806.436 108.955C808.732 108.856 811.924 108.261 814.54 105.851C817.407 103.212 818.145 99.7583 818.025 96.9858L810.032 97.3325L802.04 97.6792C802.019 97.2086 802.15 95.5112 803.702 94.0815C805.004 92.8825 806.175 92.9516 805.743 92.9703L806.09 100.963ZM810.032 97.3325L818.025 96.9858L816.027 50.9491L808.035 51.2958L800.042 51.6425L802.04 97.6792L810.032 97.3325ZM808.035 51.2958L816.027 50.9491C816.099 52.6086 815.504 53.8605 815.031 54.5382C814.615 55.1328 814.281 55.3201 814.454 55.201C814.592 55.1053 814.953 54.8851 815.64 54.5728C816.311 54.2676 817.19 53.9214 818.308 53.5434L815.747 45.9646L813.186 38.3857C810.32 39.3542 807.55 40.5229 805.356 42.0396C803.493 43.3273 799.817 46.4399 800.042 51.6425L808.035 51.2958ZM815.747 45.9646L818.308 53.5434C822.726 52.0504 827.691 51.1478 833.258 50.9063L832.911 42.9138L832.564 34.9213C825.684 35.2198 819.206 36.351 813.186 38.3857L815.747 45.9646ZM832.911 42.9138L833.258 50.9063C834.48 50.8533 835.357 50.8987 835.949 50.9778C836.559 51.0594 836.678 51.152 836.506 51.0698C836.292 50.9672 835.708 50.6245 835.187 49.8645C834.649 49.0799 834.49 48.3061 834.47 47.8429L842.463 47.4962L850.455 47.1494C850.363 45.0238 849.752 42.8122 848.382 40.8146C847.029 38.8415 845.233 37.5103 843.427 36.644C840.059 35.0284 836.127 34.7668 832.564 34.9213L832.911 42.9138ZM842.463 47.4962L834.47 47.8429L837.327 113.701L845.32 113.354L853.312 113.008L850.455 47.1494L842.463 47.4962ZM845.32 113.354L837.327 113.701C837.192 110.584 838.98 108.687 839.733 108.06C840.43 107.479 840.92 107.355 840.623 107.463C840.116 107.649 838.795 107.986 836.271 108.338L837.374 116.261L838.477 124.185C841.302 123.792 843.98 123.272 846.121 122.489C847.148 122.113 848.625 121.476 849.972 120.355C851.374 119.187 853.473 116.721 853.312 113.008L845.32 113.354ZM837.374 116.261L836.271 108.338C831.164 109.049 826.142 109.51 821.204 109.724L821.55 117.716L821.897 125.709C827.36 125.472 832.887 124.963 838.477 124.185L837.374 116.261ZM821.55 117.716L821.204 109.724C818.786 109.829 817.633 109.704 817.307 109.635C817.12 109.595 817.76 109.686 818.633 110.284C819.119 110.616 819.777 111.174 820.358 112.043C820.964 112.95 821.367 114.023 821.488 115.17L813.533 116.014L805.578 116.859C805.921 120.089 807.831 122.279 809.597 123.488C811.175 124.568 812.835 125.042 813.984 125.286C816.331 125.784 819.114 125.83 821.897 125.709L821.55 117.716ZM813.533 116.014L821.38 114.456L819.74 106.2L811.894 107.758L804.047 109.316L805.686 117.572L813.533 116.014ZM811.894 107.758L811.547 99.7652L810.524 99.8095L810.871 107.802L811.217 115.795L812.24 115.75L811.894 107.758ZM810.871 107.802L803.033 106.2C802.716 107.749 802.084 108.816 801.147 109.687L806.594 115.547L812.041 121.406C815.538 118.156 817.757 114.06 818.708 109.404L810.871 107.802ZM806.594 115.547L801.13 109.704C800.997 109.828 800.261 110.397 798.331 111.183L801.345 118.593L804.36 126.003C807.13 124.876 809.893 123.415 812.059 121.389L806.594 115.547ZM801.345 118.593L798.489 111.12C797.184 111.619 795.435 111.995 793.12 112.095L793.467 120.088L793.813 128.08C797.466 127.922 800.97 127.301 804.202 126.066L801.345 118.593ZM924.17 112.496L925.352 120.408L925.42 120.398L925.489 120.387L924.17 112.496ZM899.112 113.711L896.778 121.363L897.04 121.443L897.307 121.505L899.112 113.711ZM894.229 63.1873L886.487 65.201L886.555 65.4613L886.64 65.7164L894.229 63.1873ZM893.323 60.0236L900.943 57.5862L900.837 57.2555L900.703 56.9353L893.323 60.0236ZM881.587 114.343L882.783 122.253L882.844 122.244L882.905 122.234L881.587 114.343ZM856.656 115.553L854.457 123.245L854.652 123.301L854.85 123.347L856.656 115.553ZM858.569 44.4913L855.523 37.0942L855.502 37.1028L855.481 37.1114L858.569 44.4913ZM883.467 45.4611L891.228 43.5198L891.217 43.4764L891.206 43.4332L883.467 45.4611ZM884.862 51.0379L877.101 52.9793L878.686 59.3134L885.209 59.0304L884.862 51.0379ZM885.757 50.9991L886.104 58.9916L891.043 58.7773L893.061 54.2633L885.757 50.9991ZM898.096 40.0861L895.396 32.5555L895.349 32.5722L895.303 32.5894L898.096 40.0861ZM923.96 45.6263L917.2 49.9047L917.242 49.9706L917.285 50.0357L923.96 45.6263ZM929.651 70.491L921.659 70.8378L923.367 110.225L931.36 109.878L939.352 109.531L937.644 70.1443L929.651 70.491ZM931.36 109.878L923.367 110.225C923.211 106.613 925.521 104.639 926.058 104.226C926.714 103.722 927.153 103.61 926.856 103.719C926.364 103.898 925.141 104.223 922.852 104.605L924.17 112.496L925.489 120.387C928.034 119.961 930.425 119.447 932.33 118.753C933.231 118.425 934.563 117.869 935.808 116.912C936.935 116.047 939.529 113.612 939.352 109.531L931.36 109.878ZM924.17 112.496L922.989 104.584C918.445 105.262 913.706 105.711 908.767 105.925L909.114 113.918L909.461 121.91C914.923 121.673 920.221 121.174 925.352 120.408L924.17 112.496ZM909.114 113.918L908.767 105.925C906.3 106.032 904.374 106.064 902.942 106.034C901.365 106.002 900.84 105.9 900.917 105.918L899.112 113.711L897.307 121.505C898.936 121.882 900.855 121.995 902.612 122.031C904.514 122.07 906.812 122.025 909.461 121.91L909.114 113.918ZM899.112 113.711L901.445 106.059C901.493 106.074 902.295 106.314 903.163 107.203C904.188 108.253 904.765 109.66 904.825 111.029L896.832 111.376L888.84 111.723C888.947 114.2 889.929 116.55 891.713 118.379C893.341 120.047 895.259 120.9 896.778 121.363L899.112 113.711ZM896.832 111.376L904.825 111.029L903.061 70.3633L895.068 70.7101L887.076 71.0568L888.84 111.723L896.832 111.376ZM895.068 70.7101L903.061 70.3633C902.904 66.7487 902.628 63.0856 901.819 60.6583L894.229 63.1873L886.64 65.7164C886.557 65.4691 886.655 65.6955 886.783 66.8386C886.895 67.8464 886.997 69.2365 887.076 71.0568L895.068 70.7101ZM894.229 63.1873L901.972 61.1737C901.636 59.883 901.294 58.6829 900.943 57.5862L893.323 60.0236L885.704 62.4611C885.946 63.2177 886.207 64.1268 886.487 65.201L894.229 63.1873ZM893.323 60.0236L900.703 56.9353C899.949 55.1339 898.676 53.1522 896.558 51.6823C894.365 50.1615 891.921 49.6427 889.674 49.7401L890.021 57.7326L890.368 65.7251C889.655 65.756 888.529 65.5857 887.437 64.8285C886.419 64.1223 886.03 63.3195 885.943 63.112L893.323 60.0236ZM890.021 57.7326L889.674 49.7401C887.32 49.8423 884.098 50.5469 881.575 53.1996C879.001 55.9069 878.491 59.2291 878.598 61.6874L886.59 61.3407L894.583 60.994C894.589 61.1505 894.601 62.7204 893.17 64.225C892.508 64.9219 891.79 65.3158 891.24 65.5193C890.724 65.71 890.389 65.7242 890.368 65.7251L890.021 57.7326ZM886.59 61.3407L878.598 61.6874L880.783 112.072L888.776 111.725L896.768 111.379L894.583 60.994L886.59 61.3407ZM888.776 111.725L880.783 112.072C880.627 108.46 882.937 106.486 883.474 106.073C884.13 105.569 884.569 105.458 884.272 105.566C883.78 105.745 882.557 106.07 880.268 106.453L881.587 114.343L882.905 122.234C885.45 121.809 887.841 121.294 889.746 120.6C890.647 120.272 891.979 119.716 893.224 118.76C894.351 117.894 896.945 115.46 896.768 111.379L888.776 111.725ZM881.587 114.343L880.39 106.433C875.942 107.106 871.25 107.553 866.311 107.767L866.658 115.76L867.005 123.752C872.466 123.515 877.727 123.018 882.783 122.253L881.587 114.343ZM866.658 115.76L866.311 107.767C863.844 107.874 861.918 107.906 860.486 107.876C858.909 107.844 858.384 107.742 858.461 107.759L856.656 115.553L854.85 123.347C856.48 123.724 858.399 123.836 860.156 123.873C862.058 123.912 864.356 123.867 867.005 123.752L866.658 115.76ZM856.656 115.553L858.854 107.861C858.87 107.866 859.041 107.915 859.308 108.053C859.577 108.192 859.997 108.45 860.45 108.888C861.509 109.913 862.175 111.37 862.241 112.876L854.248 113.223L846.256 113.57C846.369 116.184 847.461 118.584 849.322 120.385C850.998 122.007 852.944 122.813 854.457 123.245L856.656 115.553ZM854.248 113.223L862.241 112.876L859.506 49.8317L851.513 50.1784L843.521 50.5251L846.256 113.57L854.248 113.223ZM851.513 50.1784L859.506 49.8317C859.569 51.2923 859.098 52.4028 858.719 53.0168C858.379 53.5674 858.1 53.7547 858.239 53.6426C858.355 53.5495 858.667 53.3246 859.274 52.9932C859.868 52.6687 860.652 52.2921 861.658 51.8711L858.569 44.4913L855.481 37.1114C852.816 38.2268 850.234 39.5451 848.199 41.1852C846.386 42.6465 843.314 45.7568 843.521 50.5251L851.513 50.1784ZM858.569 44.4913L861.616 51.8883C865.593 50.2504 869.837 49.3195 874.401 49.1215L874.054 41.129L873.708 33.1365C867.359 33.4119 861.28 34.7225 855.523 37.0942L858.569 44.4913ZM874.054 41.129L874.401 49.1215C875.396 49.0783 876.113 49.1206 876.599 49.1888C877.089 49.2577 877.233 49.3376 877.155 49.3017C877.052 49.2542 876.721 49.0751 876.37 48.6697C876.008 48.2515 875.812 47.8094 875.728 47.4891L883.467 45.4611L891.206 43.4332C890.143 39.3774 887.416 36.411 883.844 34.7673C880.639 33.292 877.043 32.9918 873.708 33.1365L874.054 41.129ZM883.467 45.4611L875.706 47.4025L877.101 52.9793L884.862 51.0379L892.623 49.0966L891.228 43.5198L883.467 45.4611ZM884.862 51.0379L885.209 59.0304L886.104 58.9916L885.757 50.9991L885.41 43.0066L884.515 43.0454L884.862 51.0379ZM885.757 50.9991L893.061 54.2633C894.309 51.4695 896.601 49.18 900.889 47.5827L898.096 40.0861L895.303 32.5894C887.654 35.4389 881.72 40.4248 878.453 47.7348L885.757 50.9991ZM898.096 40.0861L900.796 47.6166C902.373 47.0512 904.276 46.6724 906.577 46.5726L906.23 38.5801L905.883 30.5876C902.216 30.7467 898.697 31.3719 895.396 32.5555L898.096 40.0861ZM906.23 38.5801L906.577 46.5726C913.708 46.2633 916.143 48.2335 917.2 49.9047L923.96 45.6263L930.72 41.348C925.359 32.8771 915.974 30.1499 905.883 30.5876L906.23 38.5801ZM923.96 45.6263L917.285 50.0357C919.324 53.1218 921.169 59.5574 921.659 70.8378L929.651 70.491L937.644 70.1443C937.127 58.2358 935.179 48.0949 930.635 41.2169L923.96 45.6263ZM955.632 111.644L957.902 103.973L957.902 103.973L955.632 111.644ZM948.705 108.485L943.983 114.943L944.059 114.999L944.137 115.053L948.705 108.485ZM943.99 103.18L937.172 107.365L937.172 107.365L943.99 103.18ZM940.766 96.786L933.26 99.5522L933.276 99.5974L933.293 99.6424L940.766 96.786ZM938.893 89.0519L946.799 87.8247L946.797 87.8165L946.796 87.8083L938.893 89.0519ZM942.806 46.3462L949.529 50.6831L949.543 50.6613L949.557 50.6393L942.806 46.3462ZM977.423 41.0009L983.132 35.3965L983.051 35.3144L982.968 35.2346L977.423 41.0009ZM979.346 43.9924L971.936 47.007L974.061 52.2292L979.693 51.9848L979.346 43.9924ZM980.369 43.948L980.716 51.9405L990.219 51.5282L988.184 42.2369L980.369 43.948ZM978.452 35.1908L970.46 35.5376L970.49 36.2274L970.637 36.9019L978.452 35.1908ZM984.681 13.3964L981.55 6.03452L981.55 6.03453L984.681 13.3964ZM1011.31 12.8819L1017.66 8.01448L1017.61 7.94987L1017.56 7.88627L1011.31 12.8819ZM1009.19 108.808L1010.4 116.716L1010.46 116.706L1010.53 116.696L1009.19 108.808ZM987.085 110.151L985.223 117.931L985.538 118.007L985.857 118.056L987.085 110.151ZM984.739 109.228L978.553 114.301L978.913 114.74L979.332 115.125L984.739 109.228ZM984.155 107.588L992.06 106.36L992.043 106.247L992.022 106.133L984.155 107.588ZM982.816 100.343L990.683 98.8887L989.418 92.049L982.469 92.3505L982.816 100.343ZM981.793 100.387L981.446 92.3948L975.249 92.6637L973.966 98.7327L981.793 100.387ZM977.516 108.132L971.947 102.389L971.911 102.424L971.875 102.459L977.516 108.132ZM980.988 90.6851L988.537 93.3315L989.047 91.8776L988.98 90.3384L980.988 90.6851ZM978.016 54.684L974.202 61.7159L974.602 61.9332L975.025 62.1036L978.016 54.684ZM974.004 89.1943L966.35 91.5206L966.39 91.6521L966.435 91.7822L974.004 89.1943ZM964.517 112.668L964.17 104.675C961.817 104.777 959.747 104.519 957.902 103.973L955.632 111.644L953.362 119.315C957.055 120.408 960.907 120.832 964.864 120.66L964.517 112.668ZM955.632 111.644L957.902 103.973C955.734 103.331 954.254 102.6 953.273 101.917L948.705 108.485L944.137 115.053C946.854 116.943 949.992 118.318 953.362 119.315L955.632 111.644ZM948.705 108.485L953.427 102.027C952.656 101.464 951.752 100.534 950.809 98.9957L943.99 103.18L937.172 107.365C938.986 110.32 941.225 112.926 943.983 114.943L948.705 108.485ZM943.99 103.18L950.809 98.9957C949.634 97.0823 948.799 95.3962 948.239 93.9296L940.766 96.786L933.293 99.6424C934.274 102.209 935.589 104.786 937.172 107.365L943.99 103.18ZM940.766 96.786L948.273 94.0199C947.736 92.5641 947.219 90.5364 946.799 87.8247L938.893 89.0519L930.988 90.2791C931.515 93.6761 932.247 96.8044 933.26 99.5522L940.766 96.786ZM938.893 89.0519L946.796 87.8083C946.146 83.6767 945.689 78.839 945.447 73.265L937.455 73.6118L929.462 73.9585C929.723 79.9789 930.226 85.4346 930.99 90.2955L938.893 89.0519ZM937.455 73.6118L945.447 73.265C944.967 62.1881 946.727 55.0251 949.529 50.6831L942.806 46.3462L936.084 42.0093C930.721 50.321 928.915 61.335 929.462 73.9585L937.455 73.6118ZM942.806 46.3462L949.557 50.6393C952.233 46.4307 955.676 44.4426 960.651 44.2268L960.304 36.2343L959.958 28.2419C949.758 28.6843 941.535 33.4375 936.056 42.0531L942.806 46.3462ZM960.304 36.2343L960.651 44.2268C967.37 43.9353 970.471 45.4144 971.878 46.7673L977.423 41.0009L982.968 35.2346C977.066 29.5589 968.754 27.8603 959.958 28.2419L960.304 36.2343ZM977.423 41.0009L971.714 46.6053C971.715 46.606 971.81 46.6962 971.936 47.007L979.346 43.9924L986.757 40.9777C985.927 38.9384 984.74 37.0343 983.132 35.3965L977.423 41.0009ZM979.346 43.9924L979.693 51.9848L980.716 51.9405L980.369 43.948L980.023 35.9555L979 35.9999L979.346 43.9924ZM980.369 43.948L988.184 42.2369L986.267 33.4798L978.452 35.1908L970.637 36.9019L972.555 45.659L980.369 43.948ZM978.452 35.1908L986.445 34.8441L985.751 18.8592L977.759 19.2059L969.766 19.5526L970.46 35.5376L978.452 35.1908ZM977.759 19.2059L985.751 18.8592C985.808 20.1775 985.411 21.2097 985.054 21.8221C984.733 22.371 984.459 22.5686 984.571 22.4749C984.665 22.396 984.949 22.1813 985.525 21.8581C986.088 21.5418 986.839 21.1721 987.812 20.7582L984.681 13.3964L981.55 6.03453C978.904 7.15987 976.322 8.51016 974.286 10.2187C972.383 11.8155 969.566 14.9365 969.766 19.5526L977.759 19.2059ZM984.681 13.3964L987.812 20.7582C991.552 19.1676 995.719 18.2346 1000.39 18.0321L1000.04 10.0397L999.692 2.04718C993.275 2.32553 987.203 3.63032 981.55 6.03452L984.681 13.3964ZM1000.04 10.0397L1000.39 18.0321C1002.85 17.9251 1004.4 18.1039 1005.25 18.3187C1006.11 18.5359 1005.66 18.6285 1005.06 17.8775L1011.31 12.8819L1017.56 7.88627C1015.24 4.98902 1012.06 3.53474 1009.16 2.8045C1006.26 2.07194 1003.02 1.90278 999.692 2.04718L1000.04 10.0397ZM1011.31 12.8819L1004.96 17.7493C1004.82 17.565 1004.37 16.8671 1004.32 15.7474L1012.31 15.4007L1020.31 15.0539C1020.18 12.2292 1019.07 9.85206 1017.66 8.01448L1011.31 12.8819ZM1012.31 15.4007L1004.32 15.7474L1008.26 106.542L1016.25 106.195L1024.25 105.849L1020.31 15.0539L1012.31 15.4007ZM1016.25 106.195L1008.26 106.542C1008.11 102.995 1010.34 101.027 1010.91 100.584C1011.57 100.065 1012.02 99.945 1011.74 100.049C1011.28 100.219 1010.1 100.54 1007.86 100.92L1009.19 108.808L1010.53 116.696C1013.03 116.271 1015.4 115.755 1017.29 115.055C1018.19 114.723 1019.52 114.159 1020.76 113.188C1021.91 112.293 1024.42 109.865 1024.25 105.849L1016.25 106.195ZM1009.19 108.808L1007.98 100.9C1003.58 101.574 999.321 101.997 995.195 102.176L995.542 110.169L995.888 118.161C1000.63 117.955 1005.47 117.472 1010.4 116.716L1009.19 108.808ZM995.542 110.169L995.195 102.176C993.085 102.268 991.425 102.308 990.183 102.306C989.563 102.304 989.089 102.292 988.74 102.275C988.365 102.256 988.252 102.236 988.312 102.246L987.085 110.151L985.857 118.056C988.08 118.402 991.738 118.341 995.888 118.161L995.542 110.169ZM987.085 110.151L988.947 102.371C988.552 102.276 988.443 102.228 988.521 102.259C988.567 102.277 988.736 102.345 988.979 102.481C989.206 102.607 989.646 102.874 990.145 103.331L984.739 109.228L979.332 115.125C980.581 116.269 981.933 116.861 982.663 117.148C983.523 117.486 984.41 117.737 985.223 117.931L987.085 110.151ZM984.739 109.228L990.925 104.155C991.543 104.909 991.819 105.585 991.927 105.889C992.042 106.213 992.066 106.399 992.06 106.36L984.155 107.588L976.25 108.815C976.435 110.01 976.905 112.291 978.553 114.301L984.739 109.228ZM984.155 107.588L992.022 106.133L990.683 98.8887L982.816 100.343L974.949 101.797L976.288 109.042L984.155 107.588ZM982.816 100.343L982.469 92.3505L981.446 92.3948L981.793 100.387L982.14 108.38L983.163 108.335L982.816 100.343ZM981.793 100.387L973.966 98.7327C973.657 100.193 973.017 101.351 971.947 102.389L977.516 108.132L983.085 113.875C986.442 110.621 988.653 106.616 989.62 102.042L981.793 100.387ZM977.516 108.132L971.875 102.459C971.069 103.261 969.031 104.464 964.17 104.675L964.517 112.668L964.864 120.66C971.768 120.361 978.396 118.54 983.158 113.804L977.516 108.132ZM978.029 93.3758L978.376 101.368C980.878 101.26 983.261 100.318 985.175 98.5768C986.952 96.9602 987.952 95.0009 988.537 93.3315L980.988 90.6851L973.438 88.0387C973.438 88.0387 973.439 88.0368 973.44 88.0331C973.441 88.0293 973.444 88.0237 973.447 88.0163C973.452 88.0016 973.462 87.9789 973.476 87.9493C973.503 87.8908 973.548 87.7995 973.618 87.6841C973.758 87.4539 974.006 87.1068 974.409 86.7407C975.337 85.8969 976.545 85.4327 977.683 85.3833L978.029 93.3758ZM980.988 90.6851L988.98 90.3384L987.499 56.1945L979.506 56.5412L971.514 56.8879L972.995 91.0318L980.988 90.6851ZM979.506 56.5412L987.499 56.1945C987.412 54.2037 986.741 52.1702 985.346 50.4315C984.021 48.7789 982.388 47.8208 981.008 47.2645L978.016 54.684L975.025 62.1036C974.601 61.9329 973.695 61.477 972.866 60.4436C971.968 59.3239 971.563 58.0262 971.514 56.8879L979.506 56.5412ZM978.016 54.684L981.831 47.6522C980.23 46.7834 977.982 45.9093 975.335 46.0241L975.681 54.0166L976.028 62.0091C975.367 62.0378 974.866 61.9356 974.578 61.8533C974.296 61.7725 974.165 61.6962 974.202 61.7159L978.016 54.684ZM975.681 54.0166L975.335 46.0241C970.971 46.2134 968.278 49.0327 966.954 51.2623C965.716 53.3472 965.109 55.7287 964.754 57.7822C964.022 62.0111 963.912 67.712 964.206 74.5012L972.199 74.1545L980.191 73.8077C979.909 67.2975 980.09 62.9923 980.52 60.5086C980.745 59.2058 980.935 59.0543 980.712 59.4296C980.404 59.9497 978.942 61.8827 976.028 62.0091L975.681 54.0166ZM972.199 74.1545L964.206 74.5012C964.515 81.6098 965.133 87.5162 966.35 91.5206L974.004 89.1943L981.659 86.8681C981.082 84.9713 980.497 80.8511 980.191 73.8077L972.199 74.1545ZM974.004 89.1943L966.435 91.7822C967.111 93.7609 968.17 96.0528 969.981 97.9339C972.007 100.039 974.911 101.519 978.376 101.368L978.029 93.3758L977.683 85.3833C978.431 85.3509 979.237 85.4852 979.999 85.8153C980.736 86.1348 981.229 86.5483 981.508 86.838C981.977 87.3253 981.876 87.4895 981.574 86.6065L974.004 89.1943Z" fill="url(#paint1_linear_2195_967)" mask="url(#path-1-outside-1_2195_967)"/>
</g>
<defs>
<filter id="filter0_d_2195_967" x="0" y="0" width="1028.25" height="164.782" filterUnits="userSpaceOnUse" color-interpolation-filters="sRGB">
<feFlood flood-opacity="0" result="BackgroundImageFix"/>
<feColorMatrix in="SourceAlpha" type="matrix" values="0 0 0 0 0 0 0 0 0 0 0 0 0 0 0 0 0 0 127 0" result="hardAlpha"/>
<feOffset dy="2"/>
<feGaussianBlur stdDeviation="2"/>
<feComposite in2="hardAlpha" operator="out"/>
<feColorMatrix type="matrix" values="0 0 0 0 0 0 0 0 0 0 0 0 0 0 0 0 0 0 0.25 0"/>
<feBlend mode="normal" in2="BackgroundImageFix" result="effect1_dropShadow_2195_967"/>
<feBlend mode="normal" in="SourceGraphic" in2="effect1_dropShadow_2195_967" result="shape"/>
</filter>
<linearGradient id="paint0_linear_2195_967" x1="8.82838" y1="83.908" x2="459.297" y2="620.912" gradientUnits="userSpaceOnUse">
<stop stop-color="#FFB820"/>
<stop offset="0.288462" stop-color="#FF6A15"/>
<stop offset="0.697115" stop-color="#FF3A8C"/>
<stop offset="1" stop-color="#9A1AEF"/>
</linearGradient>
<linearGradient id="paint1_linear_2195_967" x1="512.184" y1="35.0467" x2="516.084" y2="124.962" gradientUnits="userSpaceOnUse">
<stop stop-color="white"/>
<stop offset="1" stop-color="#FEE1C6"/>
</linearGradient>
</defs>
</svg>
