<svg width="138" height="175" viewBox="0 0 138 175" fill="none" xmlns="http://www.w3.org/2000/svg">
<path d="M138.003 29.4052C138.003 27.2097 137.615 25.206 135.814 23.74C134.66 22.798 133.317 22.4898 131.834 22.4966C126.525 22.5309 121.219 22.4727 115.91 22.5412C114.708 22.5549 114.334 22.1644 113.995 21.017C110.604 9.48092 102.877 2.58602 91.1973 0.0171259C91.1665 0.0102756 91.1357 0.00342519 91.1048 0H84.0524C81.3705 1.29815 80.3224 3.55192 80.4388 6.75104C80.6135 11.4264 80.4183 16.1121 80.521 20.7909C80.5518 22.274 80.062 22.5446 78.692 22.5412C54.606 22.5001 30.5236 22.5103 6.43764 22.5138C3.01588 22.5138 1.0738 23.8496 0.193523 26.6925C0.00171259 27.3159 0.00513778 27.929 0.00513778 28.5524C-0.00171259 75.2342 -0.00171259 121.92 0.00513778 168.601C0.00513778 172.273 2.41305 174.65 6.1191 174.65C48.0091 174.654 89.8992 174.654 131.789 174.65C135.461 174.65 137.862 172.29 137.989 168.601C138.003 168.259 137.992 167.916 137.992 167.574C137.992 121.519 137.985 75.4603 138.003 29.4052ZM13.1613 33.8546C24.1185 33.8922 35.0756 33.8785 46.0362 33.8785C56.9934 33.8785 67.9506 33.8991 78.9112 33.8477C80.1785 33.8409 80.5176 34.1388 80.5107 35.4336C80.4525 45.8222 80.4491 56.2107 80.5142 66.5959C80.521 67.9489 80.0894 68.151 78.8769 68.151C62.21 68.1133 45.543 68.127 28.8795 68.1236C26.4955 68.1236 24.7281 69.1717 23.615 71.261C22.5189 73.3264 22.7861 75.3507 24.1116 77.2003C25.2899 78.8444 26.9716 79.4918 28.9994 79.4883C42.4672 79.4609 55.9384 79.4746 69.4063 79.4746C72.6602 79.4746 75.9141 79.5192 79.1646 79.4507C80.2436 79.4267 80.5039 79.7726 80.5005 80.807C80.4662 92.7952 80.4731 104.78 80.4902 116.765C80.4936 117.631 80.3463 118.025 79.3291 118.186C74.2838 118.984 69.5638 120.752 65.231 123.454C64.2377 124.074 63.8917 123.971 63.3506 122.954C55.9076 108.9 44.4915 99.899 29.0199 96.0868C23.704 94.7784 18.3093 94.5968 12.8941 94.9428C11.6097 95.025 11.5103 94.6311 11.5103 93.5967C11.5309 74.193 11.5412 54.7859 11.4898 35.3822C11.4864 33.9881 11.9967 33.8511 13.1613 33.8546ZM103.432 152.407C103.254 157.62 99.0205 162.272 93.8142 163.042C92.6222 163.22 91.4371 163.289 90.2383 163.289C77.6302 163.286 65.0186 163.286 52.4105 163.286C39.4051 163.286 26.3962 163.258 13.3873 163.323C11.8768 163.33 11.4898 162.943 11.4932 161.433C11.548 143.748 11.548 126.061 11.4966 108.376C11.4898 106.934 11.8186 106.513 13.3291 106.383C26.499 105.256 37.5863 109.585 46.7178 119.012C51.0987 123.533 54.0443 128.924 55.8699 134.963C57.2982 139.669 62.3024 140.864 65.8441 137.398C69.5399 133.781 73.8659 131.305 78.8461 129.924C80.0209 129.599 80.6649 129.643 80.5073 131.147C80.384 132.332 80.4662 133.541 80.4868 134.74C80.5416 137.925 82.9255 140.296 86.1109 140.405C88.9504 140.505 91.807 140.114 94.6328 140.738C99.9007 141.906 103.624 146.817 103.432 152.407ZM103.442 130.452V131.976C100.75 130.623 98.1676 129.664 95.4137 129.246C95.2459 129.219 95.0815 129.164 94.9137 129.133C93.982 128.965 92.7626 129.513 92.1632 128.753C91.5433 127.972 91.9474 126.766 91.9474 125.752C91.9372 88.6062 91.9372 51.46 91.9372 14.3173C91.9372 11.858 91.9954 11.7929 94.1944 13.0123C100.11 16.2868 103.391 21.3286 103.405 28.09C103.483 62.2117 103.442 96.33 103.442 130.452ZM124.747 163.32C120.548 163.227 116.342 163.286 112.228 163.286C112.002 162.888 112.166 162.71 112.273 162.515C114.304 158.703 114.992 154.603 114.992 150.331C114.978 112.199 114.999 74.0663 114.937 35.9336C114.934 34.156 115.413 33.7312 117.095 33.8409C119.428 33.9916 121.774 33.8785 124.113 33.8785C126.398 33.8785 126.401 33.8785 126.401 36.0843V142.433C126.401 148.824 126.364 155.219 126.432 161.611C126.446 162.94 126.121 163.351 124.747 163.32Z" fill="#FF3A8C"/>
</svg>
