<svg width="138" height="175" viewBox="0 0 138 175" fill="none" xmlns="http://www.w3.org/2000/svg">
<path d="M122.667 41.5833H107.333C107.333 18.2967 90.4667 0 69 0C47.5333 0 30.6667 18.2967 30.6667 41.5833H15.3333C6.9 41.5833 0 49.0683 0 58.2167V158.017C0 167.165 6.9 174.65 15.3333 174.65H122.667C131.1 174.65 138 167.165 138 158.017V58.2167C138 49.0683 131.1 41.5833 122.667 41.5833ZM69 16.6333C82.0333 16.6333 92 27.445 92 41.5833H46C46 27.445 55.9667 16.6333 69 16.6333ZM122.667 158.017H15.3333V58.2167H122.667V158.017ZM69 91.4833C55.9667 91.4833 46 80.6717 46 66.5333H30.6667C30.6667 89.82 47.5333 108.117 69 108.117C90.4667 108.117 107.333 89.82 107.333 66.5333H92C92 80.6717 82.0333 91.4833 69 91.4833Z" fill="url(#paint0_linear_2257_1188)"/>
<defs>
<linearGradient id="paint0_linear_2257_1188" x1="0" y1="0" x2="151.936" y2="161.543" gradientUnits="userSpaceOnUse">
<stop stop-color="#443BF4"/>
<stop offset="1" stop-color="#635BF7"/>
</linearGradient>
</defs>
</svg>
