<svg width="50" height="50" viewBox="0 0 50 50" fill="none" xmlns="http://www.w3.org/2000/svg">
<path d="M26.1025 22.1562C26.025 22.5545 25.8964 22.94 25.7207 23.3018C25.6582 23.43 25.5611 23.5246 25.4482 23.584C25.1272 23.7528 24.6573 23.6279 24.5312 23.208L23.1807 19.7402L23.1416 19.6592C23.0371 19.4794 22.8381 19.3623 22.6162 19.3623H19.0166C18.8827 19.3624 18.7611 19.3956 18.6562 19.4512C18.338 19.6195 18.1721 19.996 18.3057 20.3506H18.3066L18.8896 21.8984L18.9043 21.9385C18.9089 21.9505 18.9133 21.9631 18.918 21.9756C18.9499 22.0569 18.9818 22.1408 19.0117 22.2188L19.0127 22.2197L19.0684 22.3672L19.3848 23.209C19.4243 23.3127 19.5202 23.4585 19.6611 23.6279L19.7539 23.7266C20.2338 24.1808 21.0209 24.1386 21.4473 23.6299L21.3008 23.0049L21.2764 22.8994L21.2178 22.6533L21.4639 22.5977L22.4463 22.375L22.6895 22.3203L22.7451 22.5635L22.8535 23.041L23.0693 23.9873L23.083 24.0479L23.5322 26.0225L23.5869 26.2656L23.3428 26.3213L23.2832 26.335L22.3613 26.543L22.1152 26.5986L22.0615 26.3516L21.8525 25.3779C21.8313 25.3908 21.8099 25.403 21.7891 25.416L21.79 25.417C21.6997 25.4734 21.6114 25.5293 21.5273 25.5889C21.5159 25.5972 21.5021 25.6088 21.4932 25.6152H21.4922C21.4106 25.6733 21.3289 25.7327 21.249 25.792C21.0343 25.9511 20.8251 26.1146 20.623 26.2871V26.2881C20.0645 26.7628 19.5785 27.2788 19.208 27.8877L19.0557 28.1533C18.7181 28.7792 18.5015 29.4506 18.3701 30.1602C18.3246 30.4065 18.3001 30.6375 18.2598 30.9033L18.2588 30.9072L18.2578 30.917C18.2509 30.965 18.2486 31.0116 18.251 31.0566C18.2564 31.1617 18.2851 31.2624 18.333 31.3525L18.3916 31.4453C18.4575 31.5343 18.544 31.6091 18.6445 31.6621C18.7499 31.7178 18.8715 31.75 19.0029 31.75H23.2363C23.4327 31.75 23.5864 31.6013 23.5977 31.4219C23.6057 31.2883 23.6161 31.1566 23.6279 31.0674L23.6982 30.6094C23.7776 30.1529 23.8884 29.7002 24.0508 29.2568C24.0539 29.2481 24.0568 29.2402 24.0596 29.2334C24.1881 28.8973 24.4866 28.4109 24.7012 28.0869H24.7021C24.8076 27.9284 24.8995 27.7965 24.9512 27.7305C24.9612 27.7176 24.9754 27.7013 24.9902 27.6855H24.9893L25.0049 27.6699L25.0059 27.6709C25.0212 27.6563 25.0352 27.645 25.0469 27.6377C25.0549 27.6327 25.0628 27.6282 25.0693 27.625C25.0724 27.6235 25.0754 27.6223 25.0781 27.6211C25.0796 27.6204 25.0816 27.6197 25.083 27.6191L25.085 27.6182H25.0859V27.6172L25.334 27.5166L25.418 27.7705L25.4502 27.8652L25.8145 28.9736L26.042 29.6641L26.126 29.918L26.4775 30.9854L26.5947 31.3428V31.3438C26.6732 31.5826 26.9037 31.75 27.1689 31.75H30.9746C31.1102 31.75 31.2335 31.7166 31.3389 31.6602L31.3408 31.6592C31.3822 31.6373 31.4213 31.611 31.458 31.5811H31.459C31.6954 31.3896 31.8019 31.0683 31.6865 30.7617L31.334 29.8242L30.7549 28.2871C30.5625 27.7754 30.2412 27.3357 29.834 26.998V26.9971C29.7581 26.9339 29.6781 26.8745 29.5957 26.8184C29.0764 26.4637 28.4479 26.2608 27.7832 26.2607C27.4082 26.2607 27.0694 26.1867 26.7646 26.0615H26.7637C26.5863 25.9883 26.4655 25.852 26.4102 25.6934V25.6924C26.3882 25.6296 26.3771 25.5634 26.376 25.4971V25.4961C26.375 25.4452 26.3797 25.3943 26.3906 25.3457C26.4164 25.2288 26.4759 25.1166 26.5684 25.0273L26.5693 25.0264C26.5992 24.9977 26.6322 24.9718 26.668 24.9492L26.7578 24.9014C26.7888 24.888 26.8211 24.8769 26.8545 24.8682C27.4114 24.7226 27.9965 24.6732 28.5811 24.7217C28.8606 24.7443 29.1444 24.7264 29.4229 24.667H29.4238C29.4685 24.6575 29.5131 24.6466 29.5576 24.6348H29.5586C30.0405 24.5082 30.5001 24.2573 30.8838 23.8818C31.8758 22.9101 32.0139 21.4479 31.3076 20.4072L31.3066 20.4062C31.259 20.3356 31.2073 20.2667 31.1514 20.2002V20.1992C31.0971 20.1343 31.0381 20.0709 30.9756 20.0098C30.0702 19.1232 28.6466 19.0104 27.5449 19.6807V19.6816C27.4733 19.7251 27.4021 19.7718 27.333 19.8223C27.2192 19.9056 27.1101 19.9987 27.0059 20.1006C26.8977 20.2062 26.7995 20.3175 26.7119 20.4336L26.6016 20.5898C26.5667 20.643 26.5339 20.6972 26.5029 20.752L26.4072 20.9365C26.3779 20.9984 26.3506 21.0608 26.3262 21.124V21.125C26.2469 21.3297 26.1925 21.5395 26.1641 21.751V21.752C26.1617 21.7689 26.1602 21.7866 26.1582 21.8037L25.9092 21.7744L26.1572 21.8037C26.1441 21.9155 26.1275 22.0271 26.1064 22.1377V22.1406C26.1058 22.144 26.1044 22.1495 26.1025 22.1562ZM26.1025 22.1562C26.1034 22.1517 26.1046 22.1472 26.1055 22.1426V22.1445C26.1049 22.1475 26.1037 22.1515 26.1025 22.1562Z" stroke="#B2B2B2" stroke-width="0.5"/>
</svg>
