<svg width="50" height="50" viewBox="0 0 50 50" fill="none" xmlns="http://www.w3.org/2000/svg">
<path d="M29.041 17.0723C30.4761 16.1812 32.3215 16.3344 33.4932 17.5049C33.5745 17.5861 33.6514 17.6701 33.7217 17.7559V17.7568C33.7941 17.8448 33.8621 17.9359 33.9238 18.0293L33.9248 18.0303C34.8427 19.4097 34.6658 21.3575 33.3691 22.6533C32.8684 23.1533 32.2698 23.4865 31.6436 23.6543H31.6426C31.5846 23.67 31.5259 23.6837 31.4678 23.6963V23.6973C31.1056 23.7761 30.7362 23.7996 30.373 23.7695H30.374C29.6635 23.7094 28.9522 23.7555 28.2666 23.9062L27.9736 23.9775C27.9201 23.9918 27.8683 24.0102 27.8184 24.0322L27.6777 24.1074C27.6183 24.1453 27.5638 24.1891 27.5146 24.2373H27.5137C27.3641 24.3843 27.2709 24.5686 27.2305 24.7578C27.2136 24.8353 27.2045 24.9158 27.2061 24.9971V24.998C27.2078 25.1056 27.2266 25.2133 27.2617 25.3154C27.35 25.5733 27.5434 25.7976 27.8291 25.918L27.8301 25.9189C28.2631 26.1004 28.7452 26.207 29.2773 26.207C30.1442 26.2071 30.9643 26.4775 31.6426 26.9502H31.6436C31.7511 27.0251 31.8544 27.1046 31.9531 27.1885L31.9541 27.1895C32.4862 27.6397 32.9072 28.2263 33.1592 28.9102L33.9443 31.0381L34.4229 32.3369C34.5564 32.6995 34.4327 33.0775 34.1602 33.3027L34.1592 33.3037C34.1169 33.3388 34.0727 33.3695 34.0264 33.3945L34.0234 33.3955C33.9042 33.4607 33.7649 33.4999 33.6094 33.5H28.4434C28.1574 33.4999 27.9051 33.3153 27.8184 33.0459V33.0449L27.6582 32.5488L27.1816 31.0723V31.0713L27.0674 30.7197L26.7598 29.7646L26.2637 28.2305V28.2295L26.2217 28.0986L26.0547 27.582L25.5537 27.791H25.5518L25.5459 27.7939C25.5432 27.7951 25.54 27.7965 25.5371 27.7979C25.5313 27.8005 25.525 27.8034 25.5186 27.8066C25.5056 27.8132 25.4905 27.8219 25.4746 27.832C25.4518 27.8466 25.4243 27.8687 25.3945 27.8975L25.3936 27.8965C25.3898 27.9001 25.3865 27.9045 25.3828 27.9082C25.3766 27.9146 25.3695 27.9206 25.3633 27.9277L25.3643 27.9287L25.3057 27.9971C25.232 28.0932 25.103 28.2799 24.959 28.501H24.958C24.6652 28.952 24.2474 29.6438 24.0684 30.127C24.0654 30.1347 24.0627 30.1433 24.0596 30.1523C23.761 30.9842 23.5891 31.8358 23.4785 32.6895C23.4617 32.8183 23.4475 33.0048 23.4365 33.1904C23.4258 33.3634 23.2821 33.5 23.1064 33.5H17.3613C17.2114 33.5 17.0729 33.463 16.9531 33.3984V33.3975C16.8388 33.3359 16.7399 33.2489 16.6641 33.1445L16.5957 33.0352L16.5586 32.9531C16.5366 32.8972 16.5205 32.8387 16.5107 32.7783L16.501 32.6865V32.6025L16.5098 32.5156L16.5107 32.5117L16.5117 32.5029C16.5679 32.1257 16.5987 31.8177 16.6602 31.4785C16.8615 30.3693 17.212 29.3335 17.7793 28.3818C18.2713 27.557 18.9176 26.8549 19.667 26.2051L19.668 26.2041C19.9389 25.968 20.2204 25.7442 20.5098 25.5254V25.5244C20.6172 25.443 20.7261 25.362 20.8359 25.2822L20.8379 25.2812C20.8483 25.2736 20.8701 25.2567 20.8857 25.2451C20.9604 25.1912 21.0388 25.141 21.1182 25.0889L21.3545 26.209L21.46 26.708L21.9561 26.5938L23.207 26.3057L23.2891 26.2871L23.7725 26.1748L23.6641 25.6904L23.0557 22.958L23.0361 22.874L22.7441 21.5635L22.5967 20.9023L22.4873 20.4102L21.9961 20.5234L20.6631 20.832L20.1758 20.9443L20.2891 21.4326L20.3232 21.5791L20.5059 22.3701C19.9778 22.95 19.0606 22.9832 18.4941 22.4365L18.3809 22.3135C18.239 22.1394 18.1377 21.9908 18.0771 21.877L18.0303 21.7754L17.6016 20.6123L17.6006 20.6113L17.5254 20.4072L17.5244 20.4053L17.3975 20.0674C17.3911 20.0502 17.3849 20.0329 17.3789 20.0166C17.372 19.9981 17.3658 19.9804 17.3594 19.9629L17.3584 19.9619L16.5674 17.8193V17.8184L16.542 17.7393C16.4369 17.3441 16.6268 16.9423 16.9688 16.7578C17.0878 16.6935 17.2265 16.6553 17.3799 16.6553H22.2656C22.5391 16.6555 22.7828 16.8245 22.8789 17.0771L22.8799 17.0781L24.7168 21.8877C24.9263 22.5543 25.6715 22.7584 26.1875 22.4814C26.3249 22.4076 26.4461 22.301 26.54 22.165L26.625 22.0195C26.8674 21.5102 27.0436 20.9682 27.1514 20.4082L27.1562 20.3896L27.1602 20.3711L27.1611 20.3662C27.1899 20.2113 27.2124 20.0557 27.2305 19.8994L27.2314 19.8984C27.234 19.8758 27.2362 19.8532 27.2393 19.8311L27.2402 19.8281C27.268 19.6171 27.3138 19.407 27.3789 19.2002L27.4512 18.9941C27.5151 18.8252 27.591 18.6589 27.6807 18.498H27.6816C27.7624 18.3525 27.853 18.2105 27.9541 18.0742L27.9551 18.0732C28.0693 17.9189 28.1968 17.7704 28.3379 17.6299C28.4742 17.494 28.6172 17.3706 28.7656 17.2598C28.8556 17.1927 28.9472 17.1298 29.04 17.0723H29.041Z" stroke="#B2B2B2"/>
</svg>
