<svg width="52" height="52" viewBox="0 0 52 52" fill="none" xmlns="http://www.w3.org/2000/svg">
<rect width="52" height="52" rx="26" fill="white"/>
<path d="M18.3942 22.362C20.4595 21.8744 21.7384 19.8048 21.2507 17.7395C20.763 15.6742 18.6935 14.3953 16.6282 14.883C14.5629 15.3707 13.284 17.4402 13.7717 19.5055C14.2593 21.5708 16.3289 22.8497 18.3942 22.362Z" fill="#FFB820"/>
<path d="M36.3435 14.9625L26.7314 17.5337L27.7222 21.2374L37.3342 18.6662L36.3435 14.9625Z" fill="#FFB820"/>
<path d="M34.8391 22.6252L36.1328 24.4461H12.5V28.2802H33.3221C32.4332 29.7168 31.5636 31.0657 30.4609 32.1672C28.3084 34.3172 24.2749 34.8265 21.4702 33.3035C20.2246 32.6272 19.3886 31.3744 19.4367 30.2585L15.6062 30.0916C15.4921 32.6969 17.0764 35.2806 19.6397 36.6727C21.2889 37.5688 23.1891 38 25.0917 38C28.1078 38 31.1311 36.9165 33.1695 34.8806C34.6998 33.3515 35.794 31.5762 36.8522 29.8585C37.006 29.6099 37.1585 29.3613 37.3123 29.1138C37.5021 28.8099 38.1531 28.428 38.8606 28.291L40.6023 30.7438L43.7277 28.5241L37.9633 20.4042L34.8391 22.6252Z" fill="#FFB820"/>
</svg>
