<svg width="52" height="52" viewBox="0 0 52 52" fill="none" xmlns="http://www.w3.org/2000/svg">
<rect width="52" height="52" rx="26" fill="white"/>
<path d="M35.7594 18.7871C35.8528 18.4284 35.8994 18.0565 35.8994 17.67C35.8994 15.0915 33.8139 13.0001 31.2354 13.0001C28.6568 13.0001 26.5713 15.09 26.5713 17.67C26.5713 18.0565 26.618 18.4284 26.7069 18.7871H35.7594Z" fill="#E12D2D"/>
<path d="M21.194 18.7871C21.2873 18.4284 21.334 18.0565 21.334 17.67C21.334 15.0915 19.244 13.0001 16.6699 13.0001C14.0914 13.0001 12 15.09 12 17.67C12 18.0565 12.0467 18.4284 12.1356 18.7871H21.194Z" fill="#E12D2D"/>
<path d="M33.4425 24.8279H12.9734L12.7473 26.9033C12.7225 27.1323 12.1742 32.5504 15.6219 36.3948C17.7673 38.7866 20.8708 40 24.8494 40C28.8995 40 31.9899 38.9135 34.0317 36.7696C36.4717 34.2086 36.3988 31.1692 36.3827 30.8309L31.7332 31.0555C31.7332 31.0686 31.7303 32.4366 30.6613 33.5581C29.5471 34.7278 27.5373 35.3447 24.848 35.3447C22.2622 35.3447 20.3312 34.6593 19.1061 33.3087C18.0663 32.161 17.6346 30.6777 17.4625 29.4847H36.7488L39.4557 33.2971L43.2505 30.6019L36.2515 20.7443L32.4552 23.4366L33.4425 24.8279Z" fill="#E12D2D"/>
</svg>
