<svg width="36" height="30" viewBox="0 0 36 30" fill="none" xmlns="http://www.w3.org/2000/svg">
<path d="M9.70695 10.1224C11.9874 9.58396 13.3995 7.29881 12.861 5.0184C12.3225 2.73799 10.0374 1.32587 7.75698 1.86434C5.47657 2.40281 4.06444 4.68796 4.60291 6.96837C5.14138 9.24878 7.42654 10.6609 9.70695 10.1224Z" fill="#443BF4"/>
<path d="M24.9806 9.00023C26.6375 7.34334 26.6375 4.65701 24.9806 3.00013C23.3237 1.34325 20.6374 1.34325 18.9805 3.00013C17.3236 4.65701 17.3236 7.34335 18.9805 9.00023C20.6374 10.6571 23.3237 10.6571 24.9806 9.00023Z" fill="#443BF4"/>
<path d="M35.1131 18.6618L28.7483 9.69614L25.296 12.1471L27.4579 15.1922C27.0441 17.1657 24.7204 25.7666 15.6315 25.7666C5.94171 25.7666 4.24673 16.3116 4.17909 15.9097L0 16.5848C0.741387 21.2254 4.9616 30.0001 15.6315 30.0001C23.9963 30.0001 28.5215 24.4019 30.5348 19.5265L31.6608 21.1127L35.1131 18.6618Z" fill="#443BF4"/>
</svg>
