<svg width="46" height="39" viewBox="0 0 46 39" fill="none" xmlns="http://www.w3.org/2000/svg">
<path d="M30.4894 11.1022L32.4986 12.887L4.00746 19.4647L4.25475 21.5436C4.28942 21.8433 5.19057 28.9456 10.7189 32.833C14.1435 35.2412 18.4706 35.8634 23.5812 34.6835C28.8 33.4787 32.4412 31.188 34.3999 27.8777C36.7066 23.9812 35.75 20.2407 35.6319 19.8267L31.1389 21.0936C31.1453 21.1146 31.6775 23.3095 30.3819 25.4999C29.0977 27.6683 26.4557 29.2284 22.5295 30.1349C18.78 31.0005 15.7177 30.6297 13.4288 29.0311C11.1117 27.415 9.93783 24.8204 9.37154 23.0177L36.7782 16.6904L39.5524 19.1557L42.6526 15.666L33.5893 7.61103L30.4894 11.1022Z" fill="#FF3A8C"/>
<path d="M7.92468 11.9794C9.17089 11.6167 10.6514 11.9698 12.3144 13.009L14.7883 9.04985C11.9571 7.28073 9.2201 6.75828 6.6449 7.48941C2.79576 8.58671 0.988983 12.0676 0.795966 12.4604L4.98536 14.5209C4.99567 14.5005 6.04451 12.5156 7.92468 11.9794Z" fill="#FF3A8C"/>
<path d="M24.7857 8.08691C26.0314 7.72875 27.5124 8.07733 29.1754 9.11645L31.6493 5.15734C28.8181 3.38822 26.0815 2.86117 23.5059 3.5969C19.6582 4.69387 17.85 8.17504 17.6569 8.56786L21.8463 10.6284C21.8566 10.608 22.9055 8.62306 24.7857 8.08691Z" fill="#FF3A8C"/>
</svg>
