<svg width="1440" height="649" viewBox="0 0 1440 649" fill="none" xmlns="http://www.w3.org/2000/svg">
<g opacity="0.7" filter="url(#filter0_f_2171_1115)">
<path d="M981.155 447.464C988.375 461.06 996.411 474.306 1002.64 488.339C1017.63 522.052 1023.14 556.959 1012.71 593.205C1001.94 630.674 970.412 655.624 936.757 653.382C896.144 650.675 862.489 621.445 856.317 583.481C850.465 547.584 873.436 518.646 907.236 519.315C930.964 519.781 943.948 531.397 943.453 551.689C942.958 571.224 930.76 580.744 906.479 580.57C910.002 595.272 917.455 599.726 930.818 595.068C947.937 589.1 959.145 574.019 960.485 555.649C961.824 537.045 956.613 520.072 947.937 504.031C930.673 472.094 906.538 446.561 873.931 430.316C848.952 417.885 841.149 421.349 831.629 447.406C799.575 535.211 797.479 622.813 835.152 709.629C842.721 727.039 852.532 743.226 869.331 753.94C884.411 763.547 899.9 764.042 914.515 754.376C928.722 744.944 929.712 730.795 924.908 715.452C923.394 710.59 920.221 704.651 925.112 700.429C929.916 696.266 935.36 700.4 940.164 702.001C962.435 709.338 974.546 738.917 965.812 763.925C944.56 824.743 869.011 841.309 818.877 796.154C788.512 768.787 769.094 734.375 755.789 696.353C727.549 615.535 728.277 534.629 756.4 453.898C758.438 448.017 760.505 442.107 763.504 433.489C752.674 437.856 744.115 441.699 735.293 444.814C699.338 457.508 661.462 460.943 624.226 467.377C602.187 471.191 580.294 475.442 560.206 485.777C542.912 494.656 534.004 509.97 530.073 528.195C526.987 542.548 534.761 559.579 546.726 565.722C560.642 572.884 572.841 570.176 583.06 558.007C586.146 554.368 590.6 550.438 595.637 553.873C601.285 557.716 598.548 563.48 596.743 568.43C585.301 600.192 548.735 613.118 517.06 596.669C487.801 581.472 470.77 547.002 475.486 513.609C482.066 467.173 510.626 438.584 550.89 419.049C590.484 399.834 633.455 394.798 676.193 388.713C693.021 386.326 709.79 383.647 726.064 378.698C733.721 376.369 741.785 374.448 747.55 368.043C743.532 361.871 737.564 363.122 732.673 361.812C688.188 349.905 657.357 322.276 641.577 279.451C632.378 254.442 634.328 228.823 647.487 204.804C650.806 198.749 655.232 193.683 660.385 189.17C663.121 186.783 666.207 185.502 669.614 187.918C673.369 190.597 673.369 193.916 672.001 198.166C660.21 235.053 668.536 257.528 701.813 277.617C724.842 291.504 749.064 296.395 775.586 287.486C799.808 279.363 808.746 261.08 811.628 237.964C812.036 234.616 811.745 231.181 812.007 227.775C817.014 165.21 785.863 142.793 725.162 136.009C671.186 129.983 627.166 153.186 586.175 184.891C538.691 221.603 500.523 267.776 458.542 310.049C401.451 367.577 344.185 424.93 276.962 470.929C219.434 510.29 158.791 543.479 90.4332 560.511C86.3864 561.53 80.2727 560.977 79.3119 565.693C78.2056 571.079 83.9992 573.815 87.813 576.407C146.884 616.263 209.565 620.077 274.953 594.486C291.199 588.139 307.036 580.715 323.136 573.961C326.746 572.447 330.997 571.399 333.908 575.009C337.198 579.085 334.053 582.346 331.229 584.995C294.43 619.523 254.807 649.394 204.499 661.592C156.957 673.121 109.473 672.713 62.0768 660.923C47.8404 657.371 46.3556 658.564 49.2378 673.849C60.1262 731.843 66.7058 790.04 54.8276 848.674C48.4809 880.029 37.3596 909.317 12.1184 931.065C-6.54328 947.165 -28.2618 953.628 -51.4651 945.33C-71.4951 938.198 -82.7328 921.545 -86.4885 900.467C-89.3124 884.658 -81.0151 867.627 -67.7395 861.106C-53.503 854.118 -41.8577 856.651 -29.5137 871.616C-23.3417 879.098 -19.5278 878.515 -13.6178 872.11C3.76283 853.303 8.74121 830.828 6.81973 806.14C2.88943 755.279 -21.0999 712.977 -50.0968 672.801C-60.0827 658.943 -72.6596 647.472 -84.334 635.186C-92.1364 626.976 -101.278 625.462 -110.856 630.092C-176.419 661.854 -228.823 704.68 -237.994 783.606C-241.866 816.912 -225.592 847.539 -198.225 857.088C-186.988 860.989 -176.74 859.941 -168.879 851.032C-161.077 842.153 -161.368 830.915 -165.618 820.784C-170.015 810.303 -180.466 809.4 -190.423 809.4C-195.576 809.4 -201.661 812.486 -205.009 806.547C-208.502 800.346 -203.67 795.63 -200.351 790.943C-190.103 776.473 -176.419 770.097 -158.748 773.649C-136.913 778.045 -123.288 791.932 -118.28 812.807C-109.808 848.15 -117.96 880.35 -145.763 903.99C-173.159 927.28 -205.416 931.356 -238.343 915.198C-265.302 901.981 -279.888 877.904 -289.408 850.683C-313.863 780.928 -297.909 716.82 -260.149 656.497C-236.917 619.407 -205.213 590.235 -169.84 564.878C-157.35 555.94 -157.234 554.746 -169.898 545.779C-205.183 520.713 -239.566 494.977 -262.828 457.042C-281.111 427.23 -287.399 396.37 -277.122 362.482C-267.981 332.379 -232.695 313.834 -202.738 323.79C-197.061 325.683 -191.296 328.012 -190.394 334.708C-189.433 341.87 -196.1 342.889 -200.671 345.043C-221.924 355.087 -227.688 364.17 -219.594 399.223C-206.843 454.451 -165.269 482.865 -114.263 499.751C-102.85 503.536 -100.9 495.617 -100.026 487.291C-94.611 435.44 -94.5237 383.647 -103.491 332.175C-112.312 281.489 -121.279 230.744 -146.171 184.687C-157.874 163.056 -172.198 143.666 -194.528 131.759C-213.131 121.831 -235.141 124.044 -250.513 136.912C-265.914 149.809 -270.834 167.335 -264.691 186.725C-262.886 192.402 -260.033 197.38 -255.928 201.631C-248.271 209.521 -239.828 216.828 -227.95 212.81C-217.178 209.171 -215.577 198.632 -213.859 189.083C-212.666 182.445 -212.782 175.574 -211.967 168.849C-211.676 166.433 -209.958 164.424 -207.338 163.754C-204.485 163.056 -202.272 164.541 -201.748 167.044C-197.439 187.045 -186.318 206.26 -196.013 227.804C-210.831 260.731 -247.107 270.309 -275.9 248.416C-330.283 207.133 -338.348 143.695 -296.046 90.0395C-276.307 65.0021 -237.994 54.7542 -203.145 65.4388C-167.918 76.2398 -140.668 98.6279 -118.804 127.217C-69.0204 192.256 -39.3831 265.564 -31.9592 347.459C-30.9111 358.901 -29.3972 370.284 -27.9124 383.24C-21.624 379.193 -21.3328 373.603 -19.8189 368.974C14.5057 263.118 67.4919 168.005 145.719 88.351C175.357 58.1896 209.507 32.9483 251.401 20.9828C298.564 7.50329 339.731 27.6497 356.704 73.5322C366.369 99.7051 369.717 127.188 369.397 155.079C369.368 158.863 370.183 163.405 365.874 165.414C361.566 167.423 358.654 163.929 355.772 161.425C349.076 155.661 344.389 148.324 339.643 140.959C323.835 116.504 310.967 112.224 282.989 120.172C241.357 132.021 213.32 161.513 188.283 194.032C125.369 275.637 82.7473 367.751 50.1113 464.932C46.3265 476.199 52.9644 476.344 60.3009 475.995C90.2876 474.656 118.382 465.922 145.748 454.131C235.272 415.672 306.279 353.777 367.621 279.509C414.61 222.622 462.705 166.724 522.97 123.025C586.844 76.7056 657.211 49.1935 737.36 53.8808C788.687 56.8795 834.337 74.4931 867.264 115.892C900.337 157.495 902.404 203.727 882.024 251.473C873.698 271.008 872.824 270.629 893.349 276.51C988.899 303.877 1081.25 241.05 1090.62 142.327C1093.5 111.845 1076.15 79.5879 1049.6 66.0502C1030.12 56.1226 1007.71 60.2275 995.537 75.9196C982.64 92.5433 983.775 112.894 998.157 130.565C1001.53 134.699 1010.27 138.076 1005.99 144.219C1001.36 150.857 993.354 146.112 987.24 143.87C963.25 135.02 948.752 106.46 952.275 78.2487C958.039 32.1333 1005.03 5.378 1039.96 1.47682C1101.74 -5.45215 1141.31 33.618 1164.02 91.0294C1191.47 160.436 1170.71 221.05 1124.65 275.695C1095.89 309.816 1060.61 334.533 1019.18 350.778C1016.94 351.652 1014.72 352.729 1012.63 353.923C1011.9 354.33 1011.52 355.378 1010.88 356.252C1012.71 361.317 1017.66 362.948 1021.62 365.306C1098.25 410.752 1177.47 450.142 1264.69 471.511C1305.22 481.439 1346.09 483.855 1387.46 481.497C1401.64 480.682 1415.26 476.577 1427.93 470.347C1465.28 452.035 1478.64 408.452 1458.82 371.158C1440.36 336.484 1397.77 324.023 1362.34 342.947C1337.97 355.961 1326.99 385.336 1336.19 413.197C1338.78 421 1342.48 428.482 1342.86 436.925C1343 439.894 1343.18 442.864 1340.3 444.727C1336.86 446.969 1333.69 445.659 1330.95 443.388C1270.22 392.993 1268.42 331.855 1335.11 287.544C1394.42 248.183 1491.77 271.357 1532.24 329.38C1570.76 384.55 1564.88 452.005 1517.66 502.721C1478.21 545.081 1428.98 565.344 1372 569.681C1277.53 576.872 1190.92 549.797 1106.9 510.378C1064.74 490.61 1023.49 469.153 981.155 447.464ZM34.7103 557.308C34.6521 524.876 7.8096 497.218 -23.5454 497.247C-55.1916 497.277 -84.072 526.099 -84.1011 557.658C-84.1303 588.139 -54.5802 617.98 -24.5062 617.922C7.98428 617.835 34.7685 590.41 34.7103 557.308Z" fill="url(#paint0_radial_2171_1115)" fill-opacity="0.7"/>
</g>
<defs>
<filter id="filter0_f_2171_1115" x="-323.682" y="1.19209e-07" width="1881.92" height="949.633" filterUnits="userSpaceOnUse" color-interpolation-filters="sRGB">
<feFlood flood-opacity="0" result="BackgroundImageFix"/>
<feBlend mode="normal" in="SourceGraphic" in2="BackgroundImageFix" result="shape"/>
<feGaussianBlur stdDeviation="0.340893" result="effect1_foregroundBlur_2171_1115"/>
</filter>
<radialGradient id="paint0_radial_2171_1115" cx="0" cy="0" r="1" gradientUnits="userSpaceOnUse" gradientTransform="translate(617.279 474.817) rotate(-131.736) scale(993.082 500.761)">
<stop offset="0.4375" stop-color="#FEE1C6"/>
<stop offset="1" stop-color="#FEE1C6" stop-opacity="0"/>
</radialGradient>
</defs>
</svg>
