<svg width="1440" height="1291" viewBox="0 0 1440 1291" fill="none" xmlns="http://www.w3.org/2000/svg">
<g opacity="0.7" filter="url(#filter0_f_2342_776)">
<path d="M253.402 470.782C246.182 484.378 238.147 497.624 231.917 511.657C216.923 545.37 211.421 580.277 221.844 616.523C232.616 653.992 264.145 678.942 297.8 676.7C338.413 673.993 372.068 644.763 378.24 606.799C384.092 570.903 361.122 541.964 327.321 542.634C303.594 543.099 290.609 554.716 291.104 575.008C291.599 594.543 303.798 604.063 328.078 603.888C324.555 618.59 317.102 623.045 303.739 618.387C286.621 612.418 275.412 597.338 274.073 578.967C272.734 560.364 277.945 543.391 286.621 527.349C303.885 495.412 328.02 469.88 360.627 453.634C385.606 441.203 393.408 444.667 402.928 470.724C434.982 558.53 437.078 646.131 399.406 732.947C391.836 750.357 382.025 766.544 365.227 777.258C350.146 786.865 334.658 787.36 320.043 777.695C305.836 768.262 304.846 754.113 309.649 738.77C311.163 733.908 314.337 727.969 309.446 723.748C304.642 719.584 299.198 723.718 294.394 725.32C272.122 732.656 260.011 762.235 268.745 787.244C289.998 848.061 365.547 864.627 415.68 819.472C446.045 792.106 465.464 757.694 478.769 719.672C507.009 638.853 506.281 557.947 478.157 477.216C476.119 471.335 474.052 465.425 471.054 456.808C481.884 461.175 490.443 465.018 499.264 468.133C535.219 480.826 573.096 484.261 610.332 490.696C632.371 494.509 654.264 498.76 674.352 509.095C691.645 517.975 700.554 533.288 704.484 551.513C707.57 565.866 699.797 582.897 687.831 589.04C673.915 596.202 661.717 593.495 651.498 581.325C648.412 577.686 643.958 573.756 638.921 577.191C633.273 581.034 636.01 586.799 637.815 591.748C649.256 623.51 685.823 636.437 717.498 619.988C746.757 604.791 763.788 570.32 759.072 536.927C752.492 490.492 723.932 461.902 683.668 442.367C644.074 423.153 601.103 418.116 558.365 412.031C541.537 409.644 524.768 406.966 508.493 402.016C500.837 399.687 492.772 397.766 487.008 391.361C491.025 385.189 496.994 386.441 501.885 385.131C546.37 373.223 577.201 345.595 592.98 302.769C602.18 277.761 600.229 252.141 587.07 228.123C583.751 222.067 579.326 217.001 574.173 212.489C571.436 210.101 568.35 208.82 564.944 211.237C561.188 213.915 561.188 217.234 562.557 221.485C574.348 258.371 566.021 280.847 532.745 300.935C509.716 314.822 485.494 319.713 458.972 310.804C434.749 302.682 425.812 284.399 422.929 261.283C422.522 257.935 422.813 254.499 422.551 251.093C417.543 188.528 448.695 166.111 509.396 159.328C563.372 153.301 607.391 176.505 648.383 208.209C695.867 244.921 734.034 291.095 776.016 333.367C833.107 390.895 890.373 448.248 957.595 494.247C1015.12 533.609 1075.77 566.798 1144.12 583.829C1148.17 584.848 1154.28 584.295 1155.25 589.011C1156.35 594.397 1150.56 597.134 1146.74 599.725C1087.67 639.581 1024.99 643.395 959.604 617.804C943.359 611.458 927.521 604.034 911.422 597.279C907.812 595.765 903.561 594.717 900.65 598.327C897.36 602.403 900.504 605.664 903.328 608.313C940.127 642.842 979.751 672.712 1030.06 684.91C1077.6 696.439 1125.08 696.032 1172.48 684.241C1186.72 680.689 1188.2 681.883 1185.32 697.167C1174.43 755.161 1167.85 813.358 1179.73 871.993C1186.08 903.348 1197.2 932.636 1222.44 954.383C1241.1 970.483 1262.82 976.946 1286.02 968.649C1306.05 961.516 1317.29 944.863 1321.05 923.785C1323.87 907.977 1315.57 890.945 1302.3 884.424C1288.06 877.437 1276.42 879.97 1264.07 894.934C1257.9 902.416 1254.09 901.834 1248.18 895.429C1230.79 876.622 1225.82 854.146 1227.74 829.458C1231.67 778.597 1255.66 736.295 1284.65 696.119C1294.64 682.261 1307.22 670.79 1318.89 658.505C1326.69 650.295 1335.84 648.781 1345.41 653.41C1410.98 685.172 1463.38 727.998 1472.55 806.924C1476.42 840.23 1460.15 870.857 1432.78 880.406C1421.55 884.307 1411.3 883.259 1403.44 874.351C1395.63 865.471 1395.93 854.233 1400.18 844.102C1404.57 833.621 1415.02 832.719 1424.98 832.719C1430.13 832.719 1436.22 835.805 1439.57 829.866C1443.06 823.664 1438.23 818.948 1434.91 814.261C1424.66 799.792 1410.98 793.416 1393.31 796.968C1371.47 801.364 1357.85 815.251 1352.84 836.125C1344.37 871.468 1352.52 903.668 1380.32 927.308C1407.72 950.598 1439.97 954.674 1472.9 938.516C1499.86 925.299 1514.45 901.222 1523.97 874.001C1548.42 804.246 1532.47 740.138 1494.71 679.816C1471.47 642.725 1439.77 613.554 1404.4 588.196C1391.91 579.258 1391.79 578.064 1404.46 569.098C1439.74 544.031 1474.12 518.295 1497.39 480.36C1515.67 450.548 1521.96 419.688 1511.68 385.8C1502.54 355.697 1467.25 337.152 1437.3 347.109C1431.62 349.001 1425.85 351.33 1424.95 358.026C1423.99 365.188 1430.66 366.207 1435.23 368.361C1456.48 378.405 1462.25 387.489 1454.15 422.541C1441.4 477.769 1399.83 506.184 1348.82 523.069C1337.41 526.854 1335.46 518.935 1334.58 510.609C1329.17 458.758 1329.08 406.966 1338.05 355.493C1346.87 304.807 1355.84 254.063 1380.73 208.005C1392.43 186.374 1406.76 166.985 1429.09 155.077C1447.69 145.15 1469.7 147.362 1485.07 160.23C1500.47 173.127 1505.39 190.654 1499.25 210.043C1497.44 215.72 1494.59 220.699 1490.49 224.949C1482.83 232.839 1474.39 240.146 1462.51 236.129C1451.74 232.489 1450.13 221.95 1448.42 212.401C1447.22 205.763 1447.34 198.893 1446.52 192.168C1446.23 189.751 1444.52 187.742 1441.9 187.073C1439.04 186.374 1436.83 187.859 1436.31 190.363C1432 210.363 1420.88 229.578 1430.57 251.122C1445.39 284.049 1481.66 293.627 1510.46 271.734C1564.84 230.452 1572.91 167.014 1530.6 113.358C1510.86 88.3204 1472.55 78.0725 1437.7 88.7571C1402.48 99.5581 1375.23 121.946 1353.36 150.535C1303.58 215.575 1273.94 288.882 1266.52 370.778C1265.47 382.219 1263.95 393.603 1262.47 406.558C1256.18 402.511 1255.89 396.921 1254.38 392.292C1220.05 286.436 1167.07 191.323 1088.84 111.669C1059.2 81.5079 1025.05 56.2666 983.157 44.301C935.993 30.8216 894.827 50.968 877.854 96.8505C868.188 123.023 864.84 150.506 865.161 178.397C865.19 182.182 864.375 186.723 868.683 188.732C872.992 190.741 875.903 187.247 878.786 184.744C885.482 178.979 890.169 171.643 894.914 164.277C910.723 139.822 923.591 135.542 951.569 143.49C993.201 155.339 1021.24 184.831 1046.27 217.351C1109.19 298.955 1151.81 391.07 1184.45 488.25C1188.23 499.517 1181.59 499.662 1174.26 499.313C1144.27 497.974 1116.18 489.24 1088.81 477.449C999.286 438.99 928.278 377.095 866.936 302.827C819.948 245.94 771.852 190.042 711.588 146.343C647.713 100.024 577.346 72.5118 497.197 77.1991C445.871 80.1977 400.221 97.8114 367.294 139.211C334.221 180.813 332.154 227.045 352.533 274.791C360.86 294.326 361.733 293.948 341.208 299.829C245.658 327.195 153.311 264.369 143.936 165.645C141.054 135.164 158.406 102.906 184.957 89.3685C204.434 79.4409 226.851 83.5458 239.02 99.2379C251.918 115.862 250.782 136.212 236.4 153.884C233.023 158.018 224.289 161.395 228.569 167.538C233.198 174.176 241.204 169.43 247.318 167.188C271.307 158.338 285.806 129.778 282.283 101.567C276.518 55.4516 229.529 28.6963 194.593 24.7951C132.815 17.8661 93.2501 56.9363 70.5417 114.348C43.0879 183.754 63.8457 244.368 109.903 299.013C138.667 333.134 173.952 357.851 215.38 374.097C217.622 374.97 219.835 376.047 221.931 377.241C222.659 377.649 223.037 378.697 223.678 379.57C221.844 384.636 216.894 386.266 212.935 388.624C136.309 434.07 57.0915 473.46 -30.132 494.83C-70.6577 504.757 -111.533 507.174 -152.903 504.816C-167.081 504 -180.706 499.895 -193.37 493.665C-230.723 475.353 -244.086 431.77 -224.26 394.476C-205.802 359.802 -163.209 347.342 -127.778 366.265C-103.41 379.279 -92.4345 408.654 -101.634 436.516C-104.225 444.318 -107.923 451.8 -108.301 460.243C-108.447 463.213 -108.622 466.182 -105.739 468.045C-102.304 470.287 -99.1306 468.977 -96.3939 466.706C-35.6636 416.311 -33.8586 355.173 -100.557 310.863C-159.861 271.501 -257.216 294.676 -297.683 352.698C-336.2 407.868 -330.319 475.324 -283.098 526.039C-243.649 568.399 -194.419 588.662 -137.444 593C-42.9711 600.191 43.6411 573.115 127.662 533.696C169.818 513.928 211.072 492.471 253.402 470.782ZM1199.85 580.626C1199.91 548.194 1226.75 520.537 1258.1 520.566C1289.75 520.595 1318.63 549.417 1318.66 580.976C1318.69 611.457 1289.14 641.299 1259.06 641.24C1226.57 641.153 1199.79 613.728 1199.85 580.626Z" fill="url(#paint0_radial_2342_776)" fill-opacity="0.7"/>
</g>
<g filter="url(#filter1_f_2342_776)">
<ellipse cx="1379.38" cy="231" rx="118.5" ry="163" fill="#FEE1C6"/>
</g>
<g filter="url(#filter2_f_2342_776)">
<ellipse cx="-3.92708" cy="598.912" rx="129" ry="257.292" transform="rotate(15 -3.92708 598.912)" fill="#FEE1C6"/>
</g>
<g filter="url(#filter3_f_2342_776)">
<ellipse cx="1350.93" cy="917.658" rx="169.971" ry="238.519" transform="rotate(15 1350.93 917.658)" fill="#FEE1C6"/>
</g>
<defs>
<filter id="filter0_f_2342_776" x="-323.682" y="23.3183" width="1881.92" height="949.633" filterUnits="userSpaceOnUse" color-interpolation-filters="sRGB">
<feFlood flood-opacity="0" result="BackgroundImageFix"/>
<feBlend mode="normal" in="SourceGraphic" in2="BackgroundImageFix" result="shape"/>
<feGaussianBlur stdDeviation="0.340893" result="effect1_foregroundBlur_2342_776"/>
</filter>
<filter id="filter1_f_2342_776" x="1060.88" y="-132" width="637" height="726" filterUnits="userSpaceOnUse" color-interpolation-filters="sRGB">
<feFlood flood-opacity="0" result="BackgroundImageFix"/>
<feBlend mode="normal" in="SourceGraphic" in2="BackgroundImageFix" result="shape"/>
<feGaussianBlur stdDeviation="100" result="effect1_foregroundBlur_2342_776"/>
</filter>
<filter id="filter2_f_2342_776" x="-345.237" y="148.126" width="682.62" height="901.574" filterUnits="userSpaceOnUse" color-interpolation-filters="sRGB">
<feFlood flood-opacity="0" result="BackgroundImageFix"/>
<feBlend mode="normal" in="SourceGraphic" in2="BackgroundImageFix" result="shape"/>
<feGaussianBlur stdDeviation="100" result="effect1_foregroundBlur_2342_776"/>
</filter>
<filter id="filter3_f_2342_776" x="975.478" y="483.061" width="750.899" height="869.195" filterUnits="userSpaceOnUse" color-interpolation-filters="sRGB">
<feFlood flood-opacity="0" result="BackgroundImageFix"/>
<feBlend mode="normal" in="SourceGraphic" in2="BackgroundImageFix" result="shape"/>
<feGaussianBlur stdDeviation="100" result="effect1_foregroundBlur_2342_776"/>
</filter>
<radialGradient id="paint0_radial_2342_776" cx="0" cy="0" r="1" gradientUnits="userSpaceOnUse" gradientTransform="translate(617.279 498.135) rotate(-48.2637) scale(993.082 500.761)">
<stop offset="0.586538" stop-color="#FEE1C6"/>
<stop offset="1" stop-color="#FEE1C6" stop-opacity="0"/>
</radialGradient>
</defs>
</svg>
