<svg width="944" height="453" viewBox="0 0 944 453" fill="none" xmlns="http://www.w3.org/2000/svg">
<g filter="url(#filter0_dg_2306_724)">
<path d="M102.5 54.5513L11 73.8768L21 214.47L11 380.185L53 417.387L239 265.682L102.5 54.5513Z" fill="#443BF4"/>
</g>
<g filter="url(#filter1_dg_2306_724)">
<path d="M128.5 42.956L6 50.2031L64 341.051L128.5 42.956Z" fill="#E63535"/>
</g>
<g filter="url(#filter2_dg_2306_724)">
<path d="M48.5 102.382L16.5 419.803L39.5 441.544H293L536 420.769L48.5 102.382Z" fill="#FF6A15"/>
</g>
<g filter="url(#filter3_dg_2306_724)">
<path d="M846.5 428.241L938 408.534L928 265.16L938 96.1669L896 58.2296L710 212.935L846.5 428.241Z" fill="#FF3A8C"/>
</g>
<g filter="url(#filter4_dg_2306_724)">
<path d="M884.5 136.568L668.5 420.851L786.5 444.5L931.5 439.573L912.5 244.96L884.5 136.568Z" fill="#FFB820"/>
</g>
<g filter="url(#filter5_dg_2306_724)">
<path d="M672 46.8977L900.5 379.465L931 59.215L913.5 40L672 46.8977Z" fill="#9A1AEF"/>
</g>
<g filter="url(#filter6_d_2306_724)">
<g filter="url(#filter7_d_2306_724)">
<path d="M905.861 358.981C907.413 239.263 895.374 119.787 897.759 0C897.759 0 888.862 0 873.643 0V11.9476C878.981 13.2635 882.919 17.6616 882.919 22.9601C882.919 29.2629 877.316 34.3882 870.425 34.3882C863.535 34.3882 857.932 29.2629 857.932 22.9601C857.932 17.6616 861.869 13.2635 867.207 11.9476V0C857.289 0 845.325 0 831.734 0V11.9476C837.072 13.2635 841.01 17.6616 841.01 22.9601C841.01 29.2629 835.407 34.3882 828.516 34.3882C821.626 34.3882 816.023 29.2629 816.023 22.9601C816.023 17.6616 819.961 13.2635 825.298 11.9476V0C813.865 0 801.448 0 788.273 0V11.9476C793.611 13.2635 797.548 17.6616 797.548 22.9601C797.548 29.2629 791.945 34.3882 785.055 34.3882C778.165 34.3882 772.562 29.2629 772.562 22.9601C772.562 17.6616 776.499 13.2635 781.837 11.9476V0C770.48 0 758.592 0 746.364 0V11.9476C751.702 13.2635 755.639 17.6616 755.639 22.9601C755.639 29.2629 750.036 34.3882 743.146 34.3882C736.256 34.3882 730.653 29.2629 730.653 22.9601C730.653 17.6616 734.59 13.2635 739.928 11.9476V0C728.344 0 716.494 0 704.455 0V11.9476C709.793 13.2635 713.73 17.6616 713.73 22.9601C713.73 29.2629 708.127 34.3882 701.237 34.3882C694.347 34.3882 688.744 29.2629 688.744 22.9601C688.744 17.6616 692.681 13.2635 698.019 11.9476V0C686.283 0 674.434 0 662.546 0V11.9476C667.884 13.2635 671.821 17.6616 671.821 22.9601C671.821 29.2629 666.218 34.3882 659.328 34.3882C652.438 34.3882 646.835 29.2629 646.835 22.9601C646.835 17.6616 650.772 13.2635 656.11 11.9476V0C644.223 0 632.373 0 620.637 0V11.9476C625.975 13.2635 629.912 17.6616 629.912 22.9601C629.912 29.2629 624.309 34.3882 617.419 34.3882C610.529 34.3882 604.926 29.2629 604.926 22.9601C604.926 17.6616 608.863 13.2635 614.201 11.9476V0C602.162 0 590.313 0 578.728 0V11.9476C584.066 13.2635 588.003 17.6616 588.003 22.9601C588.003 29.2629 582.4 34.3882 575.51 34.3882C568.62 34.3882 563.017 29.2629 563.017 22.9601C563.017 17.6616 566.954 13.2635 572.292 11.9476V0C560.026 0 548.177 0 536.819 0V11.9476C542.157 13.2635 546.094 17.6616 546.094 22.9601C546.094 29.2629 540.491 34.3882 533.601 34.3882C526.711 34.3882 521.108 29.2629 521.108 22.9601C521.108 17.6616 525.045 13.2635 530.383 11.9476V0C517.776 0 505.889 0 494.91 0V11.9476C500.248 13.2635 504.185 17.6616 504.185 22.9601C504.185 29.2629 498.582 34.3882 491.692 34.3882C484.802 34.3882 479.199 29.2629 479.199 22.9601C479.199 17.6616 483.136 13.2635 488.474 11.9476V0C474.845 0 462.882 0 453.001 0V11.9476C458.339 13.2635 462.276 17.6616 462.276 22.9601C462.276 29.2629 456.673 34.3882 449.783 34.3882C442.893 34.3882 437.29 29.2629 437.29 22.9601C437.29 17.6616 441.227 13.2635 446.565 11.9476V0C431.763 0 423.131 0 423.131 0C423.282 5.05608 423.434 10.1122 423.585 15.1336C425.554 86.1611 425.402 157.258 423.775 228.285C422.98 262.708 421.844 297.131 420.481 331.554C419.799 348.384 419.042 365.18 418.247 382.011C417.869 390.08 416.165 398.079 416.619 406.218C416.922 410.789 417.49 415.222 418.096 419.758C418.777 421.386 420.784 422.182 422.677 422.355C424.57 422.529 426.5 422.286 428.355 422.633C429.453 422.84 430.475 423.256 431.573 423.325C432.596 423.394 433.618 423.221 434.64 423.013C439.902 422.009 445.164 420.97 450.389 419.966C452.017 419.654 453.872 419.377 455.159 420.347C455.651 420.728 456.03 421.282 456.56 421.594C458.642 422.84 461.519 420.312 463.791 421.247C462.769 418.546 466.63 416.053 469.621 416.78C472.612 417.507 474.542 420.139 476.057 422.598C476.473 421.455 478.442 421.905 479.313 422.84C480.183 423.775 481.016 425.057 482.341 424.953C482.947 424.918 483.439 424.537 484.045 424.468C485.256 424.295 486.278 425.264 487.414 425.715C491.465 427.238 494.418 422.494 498.166 422.252C501.8 422.009 504.98 425.403 508.463 425.195C511.53 425.022 512.628 421.247 515.278 419.793C517.587 418.477 520.767 419.273 522.849 420.866C524.97 422.459 526.295 424.71 527.809 426.788C528.15 427.273 528.566 427.792 529.134 428.035C530.572 428.658 532.2 427.481 533.79 427.446C534.926 427.412 535.948 427.931 537.046 428.243C539.772 428.97 542.687 428.277 545.262 427.169C546.738 426.546 548.177 425.749 549.767 425.576C551.394 425.403 553.25 426.096 553.742 427.481C554.007 428.208 553.855 429.074 554.461 429.628C555.332 430.459 556.808 429.801 557.906 429.282C565.44 425.853 575.321 431.256 582.59 427.412C583.195 427.1 583.839 426.684 584.558 426.719C585.391 426.754 586.035 427.377 586.792 427.689C587.511 427.966 588.306 428 589.101 428C597.619 428.035 606.251 428.381 614.769 428C617.495 427.896 619.729 427.031 622.379 426.615C626.164 426.026 627.452 427.308 631.048 425.438C633.66 424.087 636.878 425.403 639.415 426.857C641.951 428.312 644.791 429.974 647.668 429.282C651.87 428.277 653.574 422.771 657.89 422.182C660.464 421.836 662.773 423.394 665.196 424.295C667.506 425.161 670.042 425.403 672.541 425.611C676.894 426.026 681.248 426.407 685.564 426.823C688.328 427.1 692.038 428.416 694.574 426.857C695.066 426.546 695.483 426.165 696.013 425.922C697.149 425.438 698.474 425.853 699.647 426.269C702.184 427.169 704.909 428.208 706.386 430.321C706.689 430.736 706.954 431.221 707.446 431.394C708.165 431.636 708.885 431.152 709.604 430.978C712.065 430.355 714.298 433.264 716.797 432.779C718.425 432.468 719.485 430.771 721.151 430.598C722.286 430.459 723.574 431.082 724.596 430.563C725.883 429.87 725.504 427.896 726.602 426.927C727.208 426.373 728.154 426.303 728.949 425.992C730.994 425.195 731.864 423.048 732.811 421.178C733.757 419.343 735.461 417.334 737.695 417.646C738.414 417.75 739.133 418.061 739.777 417.784C740.496 417.473 740.648 416.641 741.026 415.983C742.162 413.975 745.493 413.975 747.424 415.36C750.112 417.334 749.582 421.559 753.179 422.113C754.655 422.355 756.321 422.113 757.57 422.875C758.933 423.706 759.236 425.368 759.88 426.754C762.151 431.706 770.063 432.294 774.379 429.282C775.061 428.797 775.704 428.243 776.499 427.966C777.143 427.723 777.862 427.723 778.581 427.654C780.702 427.412 782.708 426.65 784.677 425.888C785.32 425.645 785.964 425.368 786.456 424.918C787.365 424.087 787.516 422.84 788.084 421.801C789.56 419.066 794.141 418.304 796.564 420.416C797.738 421.455 798.343 422.944 799.328 424.156C801.296 426.58 804.969 427.758 808.149 426.996C808.982 425.368 811.556 425.715 813.373 425.057C814.85 424.503 816.137 423.152 817.689 423.498C818.446 423.671 819.052 424.225 819.847 424.433C822.194 424.987 824.39 421.732 826.586 422.633C827.494 423.013 827.986 423.983 828.933 424.226C829.993 424.503 830.977 423.81 832.037 423.498C834.687 422.736 837.678 425.403 836.921 427.862C838.852 427.515 840.82 427.169 842.751 426.823C843.243 426.754 843.735 426.65 844.228 426.65C844.909 426.65 845.59 426.857 846.272 427.065C848.506 427.689 850.815 428.104 853.124 428.347C856.721 428.728 860.355 428.589 863.99 428.485C865.277 428.45 866.602 428.416 867.813 427.966C869.82 427.273 871.258 425.576 873.189 424.676C875.877 423.429 879.057 423.845 882.048 424.018C884.13 424.122 890.301 424.156 889.771 421.247C893.935 421.282 898.213 423.498 901.393 425.853C901.81 426.165 902.188 426.477 902.605 426.788C904.536 421.663 903.248 415.222 903.703 409.646C904.99 392.85 905.634 375.916 905.861 358.981Z" fill="url(#paint0_linear_2306_724)"/>
<path d="M782.48 420.036C778.467 420.659 774.719 421.074 770.63 420.486C763.475 419.481 757.077 416.157 750.149 414.391C746.439 413.421 742.615 412.971 738.792 413.49C734.211 414.079 729.744 415.88 725.352 417.161C720.544 418.546 715.66 419.828 710.701 420.52C706.12 421.144 701.426 421.109 696.769 421.455C687.683 422.148 678.597 423.187 669.511 423.083C665.498 423.048 661.675 422.806 657.927 421.352C654.065 419.828 650.544 417.369 646.38 416.607C641.685 415.741 637.862 417.473 633.546 418.824C629.117 420.209 624.763 419.828 620.144 419.481C609.43 418.685 598.565 419.585 587.775 419.308C577.364 419.066 566.953 418.443 556.58 417.819C553.968 417.646 551.28 417.265 548.668 417.508C546.775 417.681 544.958 418.027 543.065 417.923C539.203 417.715 536.213 415.949 533.297 413.767C530.117 411.413 527.127 409.785 523 409.3C518.874 408.815 514.633 409.127 510.469 409.473C506.267 409.854 502.064 410.235 497.9 411.032C493.963 411.793 489.988 412.555 485.975 411.932C481.848 411.309 478.365 409.231 475.072 406.945C472.914 405.421 470.983 403.794 468.144 403.655C466.629 403.586 464.055 403.482 463.071 404.521C462.162 405.491 462.011 406.876 460.837 407.707C459.588 408.573 458.035 408.365 456.673 407.846C454.817 407.118 454.969 406.876 452.887 407.43C448.949 408.469 445.239 410.131 441.226 410.893C436.683 411.759 432.216 411.309 427.673 410.824C425.099 410.547 422.524 410.339 419.912 410.478C418.89 410.547 417.868 410.616 416.846 410.685C417.149 413.698 417.489 416.676 417.906 419.724C418.587 421.352 420.594 422.148 422.487 422.321C424.379 422.494 426.31 422.252 428.165 422.598C429.263 422.806 430.285 423.222 431.383 423.291C432.405 423.36 433.428 423.187 434.45 422.979C439.712 421.975 444.974 420.936 450.199 419.932C451.827 419.62 453.682 419.343 454.969 420.313C455.461 420.694 455.84 421.248 456.37 421.559C458.452 422.806 461.329 420.278 463.601 421.213C462.578 418.512 466.44 416.018 469.431 416.746C472.422 417.473 474.352 420.105 475.867 422.564C476.283 421.421 478.252 421.871 479.122 422.806C479.993 423.741 480.826 425.022 482.151 424.918C482.757 424.884 483.249 424.503 483.855 424.434C485.066 424.26 486.088 425.23 487.224 425.68C491.275 427.204 494.228 422.46 497.976 422.217C501.61 421.975 504.79 425.369 508.273 425.161C511.34 424.988 512.438 421.213 515.088 419.759C517.397 418.443 520.577 419.239 522.659 420.832C524.779 422.425 526.104 424.676 527.619 426.754C527.959 427.239 528.376 427.758 528.944 428.001C530.382 428.624 532.01 427.447 533.6 427.412C534.736 427.377 535.758 427.897 536.856 428.208C539.582 428.936 542.497 428.243 545.071 427.135C546.548 426.511 547.986 425.715 549.577 425.542C551.204 425.369 553.059 426.061 553.552 427.447C553.817 428.174 553.665 429.04 554.271 429.594C555.142 430.425 556.618 429.767 557.716 429.247C565.25 425.819 575.131 431.221 582.4 427.377C583.005 427.066 583.649 426.65 584.368 426.685C585.201 426.719 585.845 427.343 586.602 427.654C587.321 427.931 588.116 427.966 588.911 427.966C597.429 428.001 606.061 428.347 614.579 427.966C617.305 427.862 619.538 426.996 622.188 426.581C625.974 425.992 627.262 427.273 630.858 425.403C633.47 424.053 636.688 425.369 639.225 426.823C641.761 428.278 644.601 429.94 647.478 429.247C651.68 428.243 653.384 422.737 657.699 422.148C660.274 421.802 662.583 423.36 665.006 424.261C667.315 425.126 669.852 425.369 672.351 425.576C676.704 425.992 681.058 426.373 685.374 426.789C688.137 427.066 691.848 428.382 694.384 426.823C694.876 426.511 695.293 426.131 695.823 425.888C696.958 425.403 698.283 425.819 699.457 426.234C701.994 427.135 704.719 428.174 706.196 430.286C706.499 430.702 706.764 431.187 707.256 431.36C707.975 431.602 708.694 431.117 709.414 430.944C711.875 430.321 714.108 433.23 716.607 432.745C718.235 432.433 719.295 430.736 720.96 430.563C722.096 430.425 723.383 431.048 724.406 430.529C725.693 429.836 725.314 427.862 726.412 426.892C727.018 426.338 727.964 426.269 728.759 425.957C730.804 425.161 731.674 423.014 732.621 421.144C733.567 419.308 735.271 417.3 737.505 417.611C738.224 417.715 738.943 418.027 739.587 417.75C740.306 417.438 740.457 416.607 740.836 415.949C741.972 413.941 745.303 413.941 747.234 415.326C749.922 417.3 749.392 421.525 752.989 422.079C754.465 422.321 756.131 422.079 757.38 422.841C758.743 423.672 759.046 425.334 759.689 426.719C761.961 431.671 769.873 432.26 774.189 429.247C774.871 428.762 775.514 428.208 776.309 427.931C776.953 427.689 777.672 427.689 778.391 427.62C780.511 427.377 782.518 426.615 784.486 425.854C785.13 425.611 785.774 425.334 786.266 424.884C787.174 424.053 787.326 422.806 787.894 421.767C788.689 420.243 790.468 419.378 792.285 419.239C789.067 419.343 785.774 419.551 782.48 420.036Z" fill="url(#paint1_linear_2306_724)"/>
<path d="M900.637 417.229C896.964 414.493 890.377 416.675 886.288 417.333C882.389 417.922 878.528 418.095 874.59 418.303C869.29 418.58 863.99 419.134 858.69 419.688C847.787 420.831 836.884 422.078 825.867 421.801C816.251 421.558 806.824 419.723 797.246 419.307C795.997 419.238 794.747 419.307 793.498 419.307C794.596 419.411 795.656 419.757 796.489 420.485C797.662 421.523 798.268 423.013 799.253 424.225C801.221 426.649 804.893 427.826 808.073 427.064C808.906 425.437 811.481 425.783 813.298 425.125C814.774 424.571 816.062 423.22 817.614 423.567C818.371 423.74 818.977 424.294 819.772 424.502C822.119 425.056 824.315 421.8 826.51 422.701C827.419 423.082 827.911 424.051 828.858 424.294C829.918 424.571 830.902 423.878 831.962 423.567C834.612 422.805 837.603 425.471 836.846 427.93C838.776 427.584 840.745 427.238 842.676 426.891C843.168 426.822 843.66 426.718 844.152 426.718C844.834 426.718 845.515 426.926 846.197 427.134C848.43 427.757 850.74 428.173 853.049 428.415C856.645 428.796 860.28 428.657 863.914 428.553C865.201 428.519 866.526 428.484 867.738 428.034C869.744 427.341 871.183 425.645 873.114 424.744C875.802 423.497 878.982 423.913 881.973 424.086C884.055 424.19 890.226 424.225 889.696 421.316C893.86 421.35 898.138 423.567 901.318 425.922C901.735 426.233 902.113 426.545 902.53 426.857C903.135 425.194 903.4 423.428 903.552 421.593C902.908 419.93 902.075 418.303 900.637 417.229Z" fill="url(#paint2_linear_2306_724)"/>
<path d="M779.718 358.981C781.27 239.263 769.231 119.787 771.616 0C771.616 0 762.72 0 747.501 0V11.9476C752.839 13.2635 756.776 17.6616 756.776 22.9601C756.776 29.2629 751.173 34.3882 744.283 34.3882C737.393 34.3882 731.79 29.2629 731.79 22.9601C731.79 17.6616 735.727 13.2635 741.065 11.9476V0C731.146 0 719.183 0 705.592 0V11.9476C710.93 13.2635 714.867 17.6616 714.867 22.9601C714.867 29.2629 709.264 34.3882 702.374 34.3882C695.484 34.3882 689.881 29.2629 689.881 22.9601C689.881 17.6616 693.818 13.2635 699.156 11.9476V0C687.723 0 675.305 0 662.131 0V11.9476C667.469 13.2635 671.406 17.6616 671.406 22.9601C671.406 29.2629 665.803 34.3882 658.913 34.3882C652.022 34.3882 646.419 29.2629 646.419 22.9601C646.419 17.6616 650.357 13.2635 655.695 11.9476V0C644.337 0 632.45 0 620.222 0V11.9476C625.56 13.2635 629.497 17.6616 629.497 22.9601C629.497 29.2629 623.894 34.3882 617.004 34.3882C610.113 34.3882 604.51 29.2629 604.51 22.9601C604.51 17.6616 608.448 13.2635 613.786 11.9476V0C602.201 0 590.351 0 578.313 0V11.9476C583.651 13.2635 587.588 17.6616 587.588 22.9601C587.588 29.2629 581.985 34.3882 575.095 34.3882C568.204 34.3882 562.601 29.2629 562.601 22.9601C562.601 17.6616 566.539 13.2635 571.877 11.9476V0C560.141 0 548.291 0 536.404 0V11.9476C541.742 13.2635 545.679 17.6616 545.679 22.9601C545.679 29.2629 540.076 34.3882 533.186 34.3882C526.295 34.3882 520.692 29.2629 520.692 22.9601C520.692 17.6616 524.63 13.2635 529.968 11.9476V0C518.08 0 506.231 0 494.495 0V11.9476C499.833 13.2635 503.77 17.6616 503.77 22.9601C503.77 29.2629 498.167 34.3882 491.277 34.3882C484.386 34.3882 478.783 29.2629 478.783 22.9601C478.783 17.6616 482.721 13.2635 488.059 11.9476V0C476.02 0 464.17 0 452.586 0V11.9476C457.924 13.2635 461.861 17.6616 461.861 22.9601C461.861 29.2629 456.258 34.3882 449.368 34.3882C442.477 34.3882 436.874 29.2629 436.874 22.9601C436.874 17.6616 440.812 13.2635 446.15 11.9476V0C433.884 0 422.034 0 410.677 0V11.9476C416.015 13.2635 419.952 17.6616 419.952 22.9601C419.952 29.2629 414.349 34.3882 407.459 34.3882C400.568 34.3882 394.965 29.2629 394.965 22.9601C394.965 17.6616 398.903 13.2635 404.241 11.9476V0C391.634 0 379.746 0 368.768 0V11.9476C374.106 13.2635 378.043 17.6616 378.043 22.9601C378.043 29.2629 372.44 34.3882 365.55 34.3882C358.659 34.3882 353.056 29.2629 353.056 22.9601C353.056 17.6616 356.994 13.2635 362.332 11.9476V0C348.703 0 336.74 0 326.859 0V11.9476C332.197 13.2635 336.134 17.6616 336.134 22.9601C336.134 29.2629 330.531 34.3882 323.641 34.3882C316.75 34.3882 311.147 29.2629 311.147 22.9601C311.147 17.6616 315.085 13.2635 320.423 11.9476V0C305.62 0 296.988 0 296.988 0C297.14 5.05608 297.291 10.1122 297.443 15.1336C299.411 86.1611 299.26 157.258 297.632 228.285C296.837 262.708 295.701 297.131 294.338 331.554C293.657 348.384 292.9 365.18 292.105 382.011C291.726 390.08 290.023 398.079 290.477 406.218C290.78 410.789 291.348 415.222 291.953 419.758C292.635 421.386 294.641 422.182 296.534 422.355C298.427 422.529 300.358 422.286 302.213 422.633C303.311 422.84 304.333 423.256 305.431 423.325C306.453 423.394 307.475 423.221 308.497 423.013C313.76 422.009 319.022 420.97 324.246 419.966C325.874 419.654 327.729 419.377 329.016 420.347C329.509 420.728 329.887 421.282 330.417 421.594C332.499 422.84 335.377 420.312 337.648 421.247C336.626 418.546 340.487 416.053 343.478 416.78C346.469 417.507 348.4 420.139 349.914 422.598C350.331 421.455 352.299 421.905 353.17 422.84C354.041 423.775 354.874 425.057 356.199 424.953C356.804 424.918 357.296 424.537 357.902 424.468C359.114 424.295 360.136 425.264 361.309 425.715C365.36 427.238 368.313 422.494 372.061 422.252C375.696 422.009 378.876 425.403 382.359 425.195C385.425 425.022 386.523 421.247 389.173 419.793C391.482 418.477 394.663 419.273 396.745 420.866C398.865 422.459 400.19 424.71 401.704 426.788C402.045 427.273 402.461 427.792 403.029 428.035C404.468 428.658 406.096 427.481 407.686 427.446C408.821 427.412 409.844 427.931 410.942 428.243C413.667 428.97 416.582 428.277 419.157 427.169C420.633 426.546 422.072 425.749 423.662 425.576C425.29 425.403 427.145 426.096 427.637 427.481C427.902 428.208 427.751 429.074 428.356 429.628C429.227 430.459 430.704 429.801 431.801 429.282C439.335 425.853 449.216 431.256 456.485 427.412C457.091 427.1 457.734 426.684 458.454 426.719C459.286 426.754 459.93 427.377 460.687 427.689C461.407 427.966 462.202 428 462.997 428C471.515 428.035 480.146 428.381 488.664 428C491.39 427.896 493.624 427.031 496.274 426.615C500.06 426.026 501.347 427.308 504.943 425.438C507.556 424.087 510.774 425.403 513.31 426.857C515.847 428.312 518.686 429.974 521.563 429.282C525.765 428.277 527.469 422.771 531.785 422.182C534.359 421.836 536.669 423.394 539.092 424.295C541.401 425.161 543.937 425.403 546.436 425.611C550.79 426.026 555.143 426.407 559.459 426.823C562.223 427.1 565.933 428.416 568.469 426.857C568.962 426.546 569.378 426.165 569.908 425.922C571.044 425.438 572.369 425.853 573.542 426.269C576.079 427.169 578.805 428.208 580.281 430.321C580.584 430.736 580.849 431.221 581.341 431.394C582.061 431.636 582.78 431.152 583.499 430.978C585.96 430.355 588.194 433.264 590.692 432.779C592.32 432.468 593.38 430.771 595.046 430.598C596.182 430.459 597.469 431.082 598.491 430.563C599.778 429.87 599.4 427.896 600.497 426.927C601.103 426.373 602.05 426.303 602.845 425.992C604.889 425.195 605.76 423.048 606.706 421.178C607.653 419.343 609.356 417.334 611.59 417.646C612.309 417.75 613.029 418.061 613.672 417.784C614.391 417.473 614.543 416.641 614.921 415.983C616.057 413.975 619.389 413.975 621.319 415.36C624.007 417.334 623.477 421.559 627.074 422.113C628.55 422.355 630.216 422.113 631.465 422.875C632.828 423.706 633.131 425.368 633.775 426.754C636.046 431.706 643.959 432.294 648.274 429.282C648.956 428.797 649.6 428.243 650.395 427.966C651.038 427.723 651.757 427.723 652.477 427.654C654.597 427.412 656.603 426.65 658.572 425.888C659.216 425.645 659.859 425.368 660.351 424.918C661.26 424.087 661.411 422.84 661.979 421.801C663.456 419.066 668.036 418.304 670.459 420.416C671.633 421.455 672.239 422.944 673.223 424.156C675.192 426.58 678.864 427.758 682.044 426.996C682.877 425.368 685.451 425.715 687.268 425.057C688.745 424.503 690.032 423.152 691.584 423.498C692.341 423.671 692.947 424.225 693.742 424.433C696.089 424.987 698.285 421.732 700.481 422.633C701.39 423.013 701.882 423.983 702.828 424.226C703.888 424.503 704.872 423.81 705.932 423.498C708.583 422.736 711.573 425.403 710.816 427.862C712.747 427.515 714.716 427.169 716.646 426.823C717.139 426.754 717.631 426.65 718.123 426.65C718.804 426.65 719.486 426.857 720.167 427.065C722.401 427.689 724.71 428.104 727.02 428.347C730.616 428.728 734.25 428.589 737.885 428.485C739.172 428.45 740.497 428.416 741.709 427.966C743.715 427.273 745.154 425.576 747.084 424.676C749.772 423.429 752.952 423.845 755.943 424.018C758.025 424.122 764.196 424.156 763.666 421.247C767.831 421.282 772.109 423.498 775.289 425.853C775.705 426.165 776.084 426.477 776.5 426.788C778.431 421.663 777.144 415.222 777.598 409.646C778.885 392.85 779.491 375.916 779.718 358.981Z" fill="url(#paint3_linear_2306_724)"/>
<path d="M656.338 420.036C652.326 420.659 648.578 421.074 644.489 420.486C637.334 419.481 630.936 416.157 624.008 414.391C620.297 413.421 616.474 412.971 612.65 413.49C608.069 414.079 603.602 415.88 599.21 417.161C594.402 418.546 589.519 419.828 584.559 420.52C579.978 421.144 575.284 421.109 570.628 421.455C561.542 422.148 552.456 423.187 543.37 423.083C539.357 423.048 535.533 422.806 531.785 421.352C527.923 419.828 524.403 417.369 520.238 416.607C515.544 415.741 511.72 417.473 507.404 418.824C502.975 420.209 498.621 419.828 494.003 419.481C483.289 418.685 472.423 419.585 461.634 419.308C451.223 419.066 440.812 418.443 430.439 417.819C427.826 417.646 425.139 417.265 422.526 417.508C420.633 417.681 418.816 418.027 416.923 417.923C413.062 417.715 410.071 415.949 407.156 413.767C403.976 411.413 400.985 409.785 396.858 409.3C392.732 408.815 388.492 409.127 384.327 409.473C380.125 409.854 375.923 410.235 371.758 411.032C367.821 411.793 363.846 412.555 359.833 411.932C355.707 411.309 352.224 409.231 348.93 406.945C346.772 405.421 344.841 403.794 342.002 403.655C340.488 403.586 337.913 403.482 336.929 404.521C336.02 405.491 335.869 406.876 334.695 407.707C333.446 408.573 331.894 408.365 330.531 407.846C328.676 407.118 328.827 406.876 326.745 407.43C322.808 408.469 319.098 410.131 315.085 410.893C310.542 411.759 306.075 411.309 301.532 410.824C298.957 410.547 296.383 410.339 293.771 410.478C292.748 410.547 291.726 410.616 290.704 410.685C291.007 413.698 291.348 416.676 291.764 419.724C292.446 421.352 294.452 422.148 296.345 422.321C298.238 422.494 300.169 422.252 302.024 422.598C303.122 422.806 304.144 423.222 305.242 423.291C306.264 423.36 307.286 423.187 308.308 422.979C313.57 421.975 318.833 420.936 324.057 419.932C325.685 419.62 327.54 419.343 328.827 420.313C329.319 420.694 329.698 421.248 330.228 421.559C332.31 422.806 335.187 420.278 337.459 421.213C336.437 418.512 340.298 416.018 343.289 416.746C346.28 417.473 348.211 420.105 349.725 422.564C350.141 421.421 352.11 421.871 352.981 422.806C353.852 423.741 354.684 425.022 356.009 424.918C356.615 424.884 357.107 424.503 357.713 424.434C358.925 424.26 359.947 425.23 361.12 425.68C365.171 427.204 368.124 422.46 371.872 422.217C375.506 421.975 378.687 425.369 382.169 425.161C385.236 424.988 386.334 421.213 388.984 419.759C391.293 418.443 394.473 419.239 396.556 420.832C398.676 422.425 400.001 424.676 401.515 426.754C401.856 427.239 402.272 427.758 402.84 428.001C404.279 428.624 405.907 427.447 407.497 427.412C408.632 427.377 409.655 427.897 410.752 428.208C413.478 428.936 416.393 428.243 418.968 427.135C420.444 426.511 421.883 425.715 423.473 425.542C425.101 425.369 426.956 426.061 427.448 427.447C427.713 428.174 427.561 429.04 428.167 429.594C429.038 430.425 430.514 429.767 431.612 429.247C439.146 425.819 449.027 431.221 456.296 427.377C456.902 427.066 457.545 426.65 458.264 426.685C459.097 426.719 459.741 427.343 460.498 427.654C461.217 427.931 462.012 427.966 462.807 427.966C471.326 428.001 479.957 428.347 488.475 427.966C491.201 427.862 493.435 426.996 496.085 426.581C499.871 425.992 501.158 427.273 504.754 425.403C507.367 424.053 510.584 425.369 513.121 426.823C515.657 428.278 518.497 429.94 521.374 429.247C525.576 428.243 527.28 422.737 531.596 422.148C534.17 421.802 536.479 423.36 538.902 424.261C541.212 425.126 543.748 425.369 546.247 425.576C550.601 425.992 554.954 426.373 559.27 426.789C562.034 427.066 565.744 428.382 568.28 426.823C568.772 426.511 569.189 426.131 569.719 425.888C570.855 425.403 572.18 425.819 573.353 426.234C575.89 427.135 578.616 428.174 580.092 430.286C580.395 430.702 580.66 431.187 581.152 431.36C581.871 431.602 582.591 431.117 583.31 430.944C585.771 430.321 588.004 433.23 590.503 432.745C592.131 432.433 593.191 430.736 594.857 430.563C595.992 430.425 597.28 431.048 598.302 430.529C599.589 429.836 599.21 427.862 600.308 426.892C600.914 426.338 601.861 426.269 602.656 425.957C604.7 425.161 605.571 423.014 606.517 421.144C607.464 419.308 609.167 417.3 611.401 417.611C612.12 417.715 612.839 418.027 613.483 417.75C614.202 417.438 614.354 416.607 614.732 415.949C615.868 413.941 619.2 413.941 621.13 415.326C623.818 417.3 623.288 421.525 626.885 422.079C628.361 422.321 630.027 422.079 631.276 422.841C632.639 423.672 632.942 425.334 633.586 426.719C635.857 431.671 643.77 432.26 648.085 429.247C648.767 428.762 649.41 428.208 650.205 427.931C650.849 427.689 651.568 427.689 652.288 427.62C654.408 427.377 656.414 426.615 658.383 425.854C659.026 425.611 659.67 425.334 660.162 424.884C661.071 424.053 661.222 422.806 661.79 421.767C662.585 420.243 664.364 419.378 666.182 419.239C662.926 419.343 659.632 419.551 656.338 420.036Z" fill="url(#paint4_linear_2306_724)"/>
<path d="M774.494 417.229C770.822 414.493 764.235 416.675 760.146 417.333C756.246 417.922 752.385 418.095 748.448 418.303C743.148 418.58 737.847 419.134 732.547 419.688C721.644 420.831 710.741 422.078 699.724 421.801C690.108 421.558 680.682 419.723 671.103 419.307C669.854 419.238 668.605 419.307 667.355 419.307C668.453 419.411 669.513 419.757 670.346 420.485C671.52 421.523 672.126 423.013 673.11 424.225C675.078 426.649 678.751 427.826 681.931 427.064C682.764 425.437 685.338 425.783 687.155 425.125C688.632 424.571 689.919 423.22 691.471 423.567C692.228 423.74 692.834 424.294 693.629 424.502C695.976 425.056 698.172 421.8 700.368 422.701C701.276 423.082 701.769 424.051 702.715 424.294C703.775 424.571 704.759 423.878 705.819 423.567C708.469 422.805 711.46 425.471 710.703 427.93C712.634 427.584 714.602 427.238 716.533 426.891C717.025 426.822 717.518 426.718 718.01 426.718C718.691 426.718 719.373 426.926 720.054 427.134C722.288 427.757 724.597 428.173 726.906 428.415C730.503 428.796 734.137 428.657 737.772 428.553C739.059 428.519 740.384 428.484 741.595 428.034C743.602 427.341 745.04 425.645 746.971 424.744C749.659 423.497 752.839 423.913 755.83 424.086C757.912 424.19 764.083 424.225 763.553 421.316C767.717 421.35 771.995 423.567 775.176 425.922C775.592 426.233 775.971 426.545 776.387 426.857C776.993 425.194 777.258 423.428 777.409 421.593C776.803 419.93 775.971 418.303 774.494 417.229Z" fill="url(#paint5_linear_2306_724)"/>
<path d="M653.574 358.981C655.126 239.263 643.087 119.787 645.472 0C645.472 0 636.575 0 621.356 0V11.9476C626.694 13.2635 630.632 17.6616 630.632 22.9601C630.632 29.2629 625.029 34.3882 618.138 34.3882C611.248 34.3882 605.645 29.2629 605.645 22.9601C605.645 17.6616 609.582 13.2635 614.92 11.9476V0C605.002 0 593.038 0 579.447 0V11.9476C584.785 13.2635 588.723 17.6616 588.723 22.9601C588.723 29.2629 583.12 34.3882 576.229 34.3882C569.339 34.3882 563.736 29.2629 563.736 22.9601C563.736 17.6616 567.673 13.2635 573.011 11.9476V0C561.578 0 549.161 0 535.986 0V11.9476C541.324 13.2635 545.261 17.6616 545.261 22.9601C545.261 29.2629 539.658 34.3882 532.768 34.3882C525.878 34.3882 520.275 29.2629 520.275 22.9601C520.275 17.6616 524.212 13.2635 529.55 11.9476V0C518.193 0 506.305 0 494.077 0V11.9476C499.415 13.2635 503.352 17.6616 503.352 22.9601C503.352 29.2629 497.749 34.3882 490.859 34.3882C483.969 34.3882 478.366 29.2629 478.366 22.9601C478.366 17.6616 482.303 13.2635 487.641 11.9476V0C476.057 0 464.207 0 452.168 0V11.9476C457.506 13.2635 461.443 17.6616 461.443 22.9601C461.443 29.2629 455.84 34.3882 448.95 34.3882C442.06 34.3882 436.457 29.2629 436.457 22.9601C436.457 17.6616 440.394 13.2635 445.732 11.9476V0C433.996 0 422.147 0 410.259 0V11.9476C415.597 13.2635 419.534 17.6616 419.534 22.9601C419.534 29.2629 413.931 34.3882 407.041 34.3882C400.151 34.3882 394.548 29.2629 394.548 22.9601C394.548 17.6616 398.485 13.2635 403.823 11.9476V0C391.936 0 380.086 0 368.35 0V11.9476C373.688 13.2635 377.625 17.6616 377.625 22.9601C377.625 29.2629 372.022 34.3882 365.132 34.3882C358.242 34.3882 352.639 29.2629 352.639 22.9601C352.639 17.6616 356.576 13.2635 361.914 11.9476V0C349.875 0 338.026 0 326.441 0V11.9476C331.779 13.2635 335.716 17.6616 335.716 22.9601C335.716 29.2629 330.113 34.3882 323.223 34.3882C316.333 34.3882 310.73 29.2629 310.73 22.9601C310.73 17.6616 314.667 13.2635 320.005 11.9476V0C307.739 0 295.889 0 284.532 0V11.9476C289.87 13.2635 293.807 17.6616 293.807 22.9601C293.807 29.2629 288.204 34.3882 281.314 34.3882C274.424 34.3882 268.821 29.2629 268.821 22.9601C268.821 17.6616 272.758 13.2635 278.096 11.9476V0C265.489 0 253.602 0 242.623 0V11.9476C247.961 13.2635 251.898 17.6616 251.898 22.9601C251.898 29.2629 246.295 34.3882 239.405 34.3882C232.515 34.3882 226.912 29.2629 226.912 22.9601C226.912 17.6616 230.849 13.2635 236.187 11.9476V0C222.558 0 210.595 0 200.714 0V11.9476C206.052 13.2635 209.989 17.6616 209.989 22.9601C209.989 29.2629 204.386 34.3882 197.496 34.3882C190.606 34.3882 185.003 29.2629 185.003 22.9601C185.003 17.6616 188.94 13.2635 194.278 11.9476V0C179.476 0 170.844 0 170.844 0C170.995 5.05608 171.147 10.1122 171.298 15.1336C173.267 86.1611 173.115 157.258 171.487 228.285C170.692 262.708 169.557 297.131 168.194 331.554C167.512 348.384 166.755 365.18 165.96 382.011C165.582 390.08 163.878 398.079 164.332 406.218C164.635 410.789 165.203 415.222 165.809 419.758C166.49 421.386 168.497 422.182 170.39 422.355C172.283 422.529 174.213 422.286 176.068 422.633C177.166 422.84 178.188 423.256 179.286 423.325C180.308 423.394 181.331 423.221 182.353 423.013C187.615 422.009 192.877 420.97 198.102 419.966C199.73 419.654 201.585 419.377 202.872 420.347C203.364 420.728 203.743 421.282 204.273 421.594C206.355 422.84 209.232 420.312 211.504 421.247C210.481 418.546 214.343 416.053 217.334 416.78C220.325 417.507 222.255 420.139 223.77 422.598C224.186 421.455 226.155 421.905 227.025 422.84C227.896 423.775 228.729 425.057 230.054 424.953C230.66 424.918 231.152 424.537 231.758 424.468C232.969 424.295 233.991 425.264 235.165 425.715C239.216 427.238 242.169 422.494 245.917 422.252C249.551 422.009 252.731 425.403 256.214 425.195C259.281 425.022 260.378 421.247 263.029 419.793C265.338 418.477 268.518 419.273 270.6 420.866C272.72 422.459 274.045 424.71 275.56 426.788C275.9 427.273 276.317 427.792 276.885 428.035C278.323 428.658 279.951 427.481 281.541 427.446C282.677 427.412 283.699 427.931 284.797 428.243C287.523 428.97 290.438 428.277 293.012 427.169C294.489 426.546 295.927 425.749 297.517 425.576C299.145 425.403 301 426.096 301.492 427.481C301.72 428.208 301.606 429.074 302.212 429.628C303.083 430.459 304.559 429.801 305.657 429.282C313.191 425.853 323.072 431.256 330.34 427.412C330.946 427.1 331.59 426.684 332.309 426.719C333.142 426.754 333.786 427.377 334.543 427.689C335.262 427.966 336.057 428 336.852 428C345.37 428.035 354.002 428.381 362.52 428C365.246 427.896 367.479 427.031 370.129 426.615C373.915 426.026 375.202 427.308 378.799 425.438C381.411 424.087 384.629 425.403 387.166 426.857C389.702 428.312 392.541 429.974 395.419 429.282C399.621 428.277 401.325 422.771 405.64 422.182C408.215 421.836 410.524 423.394 412.947 424.295C415.256 425.161 417.793 425.403 420.291 425.611C424.645 426.026 428.999 426.407 433.315 426.823C436.078 427.1 439.788 428.416 442.325 426.857C442.817 426.546 443.234 426.165 443.764 425.922C444.899 425.438 446.224 425.853 447.398 426.269C449.934 427.169 452.66 428.208 454.137 430.321C454.44 430.736 454.705 431.221 455.197 431.394C455.916 431.636 456.635 431.152 457.355 430.978C459.815 430.355 462.049 433.264 464.548 432.779C466.176 432.468 467.236 430.771 468.901 430.598C470.037 430.459 471.324 431.082 472.346 430.563C473.634 429.87 473.255 427.896 474.353 426.927C474.959 426.373 475.905 426.303 476.7 425.992C478.744 425.195 479.615 423.048 480.562 421.178C481.508 419.343 483.212 417.334 485.445 417.646C486.165 417.75 486.884 418.061 487.528 417.784C488.247 417.473 488.398 416.641 488.777 415.983C489.913 413.975 493.244 413.975 495.175 415.36C497.863 417.334 497.333 421.559 500.929 422.113C502.406 422.355 504.072 422.113 505.321 422.875C506.684 423.706 506.987 425.368 507.63 426.754C509.902 431.706 517.814 432.294 522.13 429.282C522.811 428.797 523.455 428.243 524.25 427.966C524.894 427.723 525.613 427.723 526.332 427.654C528.452 427.412 530.459 426.65 532.427 425.888C533.071 425.645 533.715 425.368 534.207 424.918C535.115 424.087 535.267 422.84 535.835 421.801C537.311 419.066 541.892 418.304 544.315 420.416C545.488 421.455 546.094 422.944 547.079 424.156C549.047 426.58 552.719 427.758 555.899 426.996C556.732 425.368 559.307 425.715 561.124 425.057C562.6 424.503 563.888 423.152 565.44 423.498C566.197 423.671 566.803 424.225 567.598 424.433C569.945 424.987 572.103 421.732 574.336 422.633C575.245 423.013 575.737 423.983 576.684 424.226C577.744 424.503 578.728 423.81 579.788 423.498C582.438 422.736 585.429 425.403 584.672 427.862C586.602 427.515 588.571 427.169 590.502 426.823C590.994 426.754 591.486 426.65 591.978 426.65C592.66 426.65 593.341 426.857 594.023 427.065C596.256 427.689 598.566 428.104 600.875 428.347C604.471 428.728 608.106 428.589 611.74 428.485C613.027 428.45 614.352 428.416 615.564 427.966C617.57 427.273 619.009 425.576 620.94 424.676C623.628 423.429 626.808 423.845 629.799 424.018C631.881 424.122 638.052 424.156 637.522 421.247C641.686 421.282 645.964 423.498 649.144 425.853C649.561 426.165 649.939 426.477 650.356 426.788C652.286 421.663 650.999 415.222 651.454 409.646C652.741 392.85 653.384 375.916 653.574 358.981Z" fill="url(#paint6_linear_2306_724)"/>
<path d="M530.232 420.036C526.219 420.659 522.471 421.074 518.382 420.486C511.227 419.481 504.829 416.157 497.901 414.391C494.191 413.421 490.367 412.971 486.544 413.49C481.963 414.079 477.496 415.88 473.104 417.161C468.296 418.546 463.412 419.828 458.453 420.52C453.872 421.144 449.178 421.109 444.521 421.455C435.435 422.148 426.349 423.187 417.263 423.083C413.25 423.048 409.427 422.806 405.679 421.352C401.817 419.828 398.296 417.369 394.132 416.607C389.437 415.741 385.614 417.473 381.298 418.824C376.869 420.209 372.515 419.828 367.896 419.481C357.182 418.685 346.317 419.585 335.527 419.308C325.116 419.066 314.705 418.443 304.332 417.819C301.72 417.646 299.032 417.265 296.42 417.508C294.527 417.681 292.71 418.027 290.817 417.923C286.955 417.715 283.965 415.949 281.049 413.767C277.869 411.413 274.879 409.785 270.752 409.3C266.625 408.815 262.385 409.127 258.221 409.473C254.019 409.854 249.816 410.235 245.652 411.032C241.715 411.793 237.74 412.555 233.727 411.932C229.6 411.309 226.117 409.231 222.824 406.945C220.666 405.421 218.735 403.794 215.896 403.655C214.381 403.586 211.807 403.482 210.823 404.521C209.914 405.491 209.762 406.876 208.589 407.707C207.34 408.573 205.787 408.365 204.424 407.846C202.569 407.118 202.721 406.876 200.639 407.43C196.701 408.469 192.991 410.131 188.978 410.893C184.435 411.759 179.968 411.309 175.425 410.824C172.851 410.547 170.276 410.339 167.664 410.478C166.642 410.547 165.62 410.616 164.598 410.685C164.901 413.698 165.241 416.676 165.658 419.724C166.339 421.352 168.346 422.148 170.239 422.321C172.131 422.494 174.062 422.252 175.917 422.598C177.015 422.806 178.037 423.222 179.135 423.291C180.157 423.36 181.18 423.187 182.202 422.979C187.464 421.975 192.726 420.936 197.951 419.932C199.579 419.62 201.434 419.343 202.721 420.313C203.213 420.694 203.592 421.248 204.122 421.559C206.204 422.806 209.081 420.278 211.353 421.213C210.33 418.512 214.192 416.018 217.183 416.746C220.173 417.473 222.104 420.105 223.619 422.564C224.035 421.421 226.004 421.871 226.874 422.806C227.745 423.741 228.578 425.022 229.903 424.918C230.509 424.884 231.001 424.503 231.607 424.434C232.818 424.26 233.84 425.23 235.014 425.68C239.065 427.204 242.018 422.46 245.766 422.217C249.4 421.975 252.58 425.369 256.063 425.161C259.13 424.988 260.227 421.213 262.878 419.759C265.187 418.443 268.367 419.239 270.449 420.832C272.569 422.425 273.894 424.676 275.409 426.754C275.749 427.239 276.166 427.758 276.734 428.001C278.172 428.624 279.8 427.447 281.39 427.412C282.526 427.377 283.548 427.897 284.646 428.208C287.372 428.936 290.287 428.243 292.861 427.135C294.338 426.511 295.776 425.715 297.366 425.542C298.994 425.369 300.849 426.061 301.341 427.447C301.569 428.174 301.455 429.04 302.061 429.594C302.931 430.425 304.408 429.767 305.506 429.247C313.04 425.819 322.921 431.221 330.189 427.377C330.795 427.066 331.439 426.65 332.158 426.685C332.991 426.719 333.634 427.343 334.392 427.654C335.111 427.931 335.906 427.966 336.701 427.966C345.219 428.001 353.851 428.347 362.369 427.966C365.095 427.862 367.328 426.996 369.978 426.581C373.764 425.992 375.051 427.273 378.648 425.403C381.26 424.053 384.478 425.369 387.015 426.823C389.551 428.278 392.39 429.94 395.268 429.247C399.47 428.243 401.173 422.737 405.489 422.148C408.064 421.802 410.373 423.36 412.796 424.261C415.105 425.126 417.642 425.369 420.14 425.576C424.494 425.992 428.848 426.373 433.164 426.789C435.927 427.066 439.637 428.382 442.174 426.823C442.666 426.511 443.082 426.131 443.612 425.888C444.748 425.403 446.073 425.819 447.247 426.234C449.783 427.135 452.509 428.174 453.986 430.286C454.289 430.702 454.553 431.187 455.046 431.36C455.765 431.602 456.484 431.117 457.204 430.944C459.664 430.321 461.898 433.23 464.397 432.745C466.025 432.433 467.085 430.736 468.75 430.563C469.886 430.425 471.173 431.048 472.195 430.529C473.483 429.836 473.104 427.862 474.202 426.892C474.808 426.338 475.754 426.269 476.549 425.957C478.593 425.161 479.464 423.014 480.411 421.144C481.357 419.308 483.061 417.3 485.294 417.611C486.014 417.715 486.733 418.027 487.377 417.75C488.096 417.438 488.247 416.607 488.626 415.949C489.762 413.941 493.093 413.941 495.024 415.326C497.712 417.3 497.182 421.525 500.778 422.079C502.255 422.321 503.921 422.079 505.17 422.841C506.533 423.672 506.836 425.334 507.479 426.719C509.751 431.671 517.663 432.26 521.979 429.247C522.66 428.762 523.304 428.208 524.099 427.931C524.743 427.689 525.462 427.689 526.181 427.62C528.301 427.377 530.308 426.615 532.276 425.854C532.92 425.611 533.564 425.334 534.056 424.884C534.964 424.053 535.116 422.806 535.684 421.767C536.479 420.243 538.258 419.378 540.075 419.239C536.819 419.343 533.488 419.551 530.232 420.036Z" fill="url(#paint7_linear_2306_724)"/>
<path d="M648.387 417.229C644.714 414.493 638.127 416.675 634.038 417.333C630.139 417.922 626.278 418.095 622.34 418.303C617.04 418.58 611.74 419.134 606.44 419.688C595.537 420.831 584.596 422.078 573.617 421.801C564.001 421.558 554.574 419.723 544.996 419.307C543.747 419.238 542.497 419.307 541.248 419.307C542.346 419.411 543.406 419.757 544.239 420.485C545.412 421.523 546.018 423.013 547.003 424.225C548.971 426.649 552.643 427.826 555.823 427.064C556.656 425.437 559.231 425.783 561.048 425.125C562.524 424.571 563.812 423.22 565.364 423.567C566.121 423.74 566.727 424.294 567.522 424.502C569.869 425.056 572.027 421.8 574.26 422.701C575.169 423.082 575.661 424.051 576.608 424.294C577.668 424.571 578.652 423.878 579.712 423.567C582.362 422.805 585.353 425.471 584.596 427.93C586.526 427.584 588.495 427.238 590.426 426.891C590.918 426.822 591.41 426.718 591.902 426.718C592.584 426.718 593.265 426.926 593.947 427.134C596.18 427.757 598.49 428.173 600.799 428.415C604.396 428.796 608.03 428.657 611.664 428.553C612.951 428.519 614.276 428.484 615.488 428.034C617.494 427.341 618.933 425.645 620.864 424.744C623.552 423.497 626.732 423.913 629.723 424.086C631.805 424.19 637.976 424.225 637.446 421.316C641.61 421.35 645.888 423.567 649.068 425.922C649.485 426.233 649.863 426.545 650.28 426.857C650.885 425.194 651.15 423.428 651.302 421.593C650.658 419.93 649.825 418.303 648.387 417.229Z" fill="url(#paint8_linear_2306_724)"/>
<path d="M527.469 358.981C529.021 239.263 516.982 119.787 519.368 0C519.368 0 510.471 0 495.252 0V11.9476C500.59 13.2635 504.527 17.6616 504.527 22.9601C504.527 29.2629 498.924 34.3882 492.034 34.3882C485.144 34.3882 479.541 29.2629 479.541 22.9601C479.541 17.6616 483.478 13.2635 488.816 11.9476V0C478.897 0 466.934 0 453.343 0V11.9476C458.681 13.2635 462.618 17.6616 462.618 22.9601C462.618 29.2629 457.015 34.3882 450.125 34.3882C443.235 34.3882 437.632 29.2629 437.632 22.9601C437.632 17.6616 441.569 13.2635 446.907 11.9476V0C435.474 0 423.056 0 409.882 0V11.9476C415.22 13.2635 419.157 17.6616 419.157 22.9601C419.157 29.2629 413.554 34.3882 406.664 34.3882C399.774 34.3882 394.171 29.2629 394.171 22.9601C394.171 17.6616 398.108 13.2635 403.446 11.9476V0C392.088 0 380.201 0 367.973 0V11.9476C373.311 13.2635 377.248 17.6616 377.248 22.9601C377.248 29.2629 371.645 34.3882 364.755 34.3882C357.865 34.3882 352.262 29.2629 352.262 22.9601C352.262 17.6616 356.199 13.2635 361.537 11.9476V0C349.952 0 338.103 0 326.064 0V11.9476C331.402 13.2635 335.339 17.6616 335.339 22.9601C335.339 29.2629 329.736 34.3882 322.846 34.3882C315.956 34.3882 310.353 29.2629 310.353 22.9601C310.353 17.6616 314.29 13.2635 319.628 11.9476V0C307.892 0 296.042 0 284.155 0V11.9476C289.493 13.2635 293.43 17.6616 293.43 22.9601C293.43 29.2629 287.827 34.3882 280.937 34.3882C274.046 34.3882 268.443 29.2629 268.443 22.9601C268.443 17.6616 272.381 13.2635 277.719 11.9476V0C265.831 0 253.982 0 242.246 0V11.9476C247.584 13.2635 251.521 17.6616 251.521 22.9601C251.521 29.2629 245.918 34.3882 239.028 34.3882C232.137 34.3882 226.534 29.2629 226.534 22.9601C226.534 17.6616 230.472 13.2635 235.81 11.9476V0C223.771 0 211.921 0 200.337 0V11.9476C205.675 13.2635 209.612 17.6616 209.612 22.9601C209.612 29.2629 204.009 34.3882 197.119 34.3882C190.228 34.3882 184.625 29.2629 184.625 22.9601C184.625 17.6616 188.563 13.2635 193.901 11.9476V0C181.635 0 169.785 0 158.428 0V11.9476C163.766 13.2635 167.703 17.6616 167.703 22.9601C167.703 29.2629 162.1 34.3882 155.21 34.3882C148.319 34.3882 142.716 29.2629 142.716 22.9601C142.716 17.6616 146.654 13.2635 151.992 11.9476V0C139.385 0 127.497 0 116.519 0V11.9476C121.857 13.2635 125.794 17.6616 125.794 22.9601C125.794 29.2629 120.191 34.3882 113.301 34.3882C106.41 34.3882 100.807 29.2629 100.807 22.9601C100.807 17.6616 104.745 13.2635 110.083 11.9476V0C96.4538 0 84.4906 0 74.6096 0V11.9476C79.9476 13.2635 83.8848 17.6616 83.8848 22.9601C83.8848 29.2629 78.2818 34.3882 71.3916 34.3882C64.5014 34.3882 58.8984 29.2629 58.8984 22.9601C58.8984 17.6616 62.8357 13.2635 68.1737 11.9476V0C53.2197 0 44.588 0 44.588 0C44.7395 5.05608 44.8909 10.1122 45.0423 15.1336C47.011 86.1611 46.8595 157.258 45.2316 228.285C44.4366 262.743 43.3387 297.166 41.938 331.589C41.2565 348.419 40.4993 365.215 39.7043 382.045C39.3257 390.114 37.6221 398.114 38.0764 406.252C38.3793 410.823 38.9472 415.256 39.5529 419.793C40.2343 421.42 42.2408 422.217 44.1337 422.39C46.0266 422.563 47.9574 422.321 49.8125 422.667C50.9103 422.875 51.9325 423.29 53.0304 423.36C54.0526 423.429 55.0747 423.256 56.0969 423.048C61.3592 422.044 66.6215 421.005 71.8459 420.001C73.4738 419.689 75.3289 419.412 76.6161 420.382C77.1082 420.762 77.4868 421.317 78.0168 421.628C80.099 422.875 82.9762 420.347 85.2477 421.282C84.2256 418.581 88.0871 416.087 91.0779 416.815C94.0687 417.542 95.9995 420.174 97.5138 422.633C97.9302 421.49 99.8988 421.94 100.77 422.875C101.64 423.81 102.473 425.091 103.798 424.987C104.404 424.953 104.896 424.572 105.502 424.503C106.713 424.329 107.735 425.299 108.909 425.749C112.96 427.273 115.913 422.529 119.661 422.286C123.295 422.044 126.475 425.438 129.958 425.23C133.025 425.057 134.123 421.282 136.773 419.827C139.082 418.511 142.262 419.308 144.344 420.901C146.464 422.494 147.789 424.745 149.304 426.823C149.645 427.308 150.061 427.827 150.629 428.07C152.067 428.693 153.695 427.515 155.285 427.481C156.421 427.446 157.443 427.966 158.541 428.277C161.267 429.005 164.182 428.312 166.756 427.204C168.233 426.58 169.671 425.784 171.262 425.611C172.889 425.438 174.744 426.13 175.237 427.515C175.502 428.243 175.35 429.108 175.956 429.663C176.827 430.494 178.303 429.836 179.401 429.316C186.935 425.888 196.816 431.29 204.085 427.446C204.69 427.134 205.334 426.719 206.053 426.754C206.886 426.788 207.53 427.412 208.287 427.723C209.006 428 209.801 428.035 210.596 428.035C219.114 428.07 227.746 428.416 236.264 428.035C238.99 427.931 241.223 427.065 243.874 426.65C247.659 426.061 248.947 427.342 252.543 425.472C255.155 424.122 258.373 425.438 260.91 426.892C263.446 428.347 266.286 430.009 269.163 429.316C273.365 428.312 275.069 422.806 279.385 422.217C281.959 421.871 284.268 423.429 286.691 424.329C289 425.195 291.537 425.438 294.036 425.645C298.389 426.061 302.743 426.442 307.059 426.857C309.822 427.134 313.533 428.45 316.069 426.892C316.561 426.58 316.978 426.199 317.508 425.957C318.643 425.472 319.968 425.888 321.142 426.303C323.679 427.204 326.404 428.243 327.881 430.355C328.184 430.771 328.449 431.256 328.941 431.429C329.66 431.671 330.379 431.186 331.099 431.013C333.56 430.39 335.793 433.299 338.292 432.814C339.92 432.502 340.98 430.805 342.646 430.632C343.781 430.494 345.068 431.117 346.091 430.598C347.378 429.905 346.999 427.931 348.097 426.961C348.703 426.407 349.649 426.338 350.444 426.026C352.489 425.23 353.359 423.083 354.306 421.213C355.252 419.377 356.956 417.369 359.19 417.68C359.909 417.784 360.628 418.096 361.272 417.819C361.991 417.507 362.143 416.676 362.521 416.018C363.657 414.009 366.988 414.009 368.919 415.395C371.607 417.369 371.077 421.594 374.674 422.148C376.15 422.39 377.816 422.148 379.065 422.91C380.428 423.741 380.731 425.403 381.374 426.788C383.646 431.74 391.558 432.329 395.874 429.316C396.556 428.831 397.199 428.277 397.994 428C398.638 427.758 399.357 427.758 400.076 427.689C402.196 427.446 404.203 426.684 406.172 425.922C406.815 425.68 407.459 425.403 407.951 424.953C408.859 424.122 409.011 422.875 409.579 421.836C411.055 419.1 415.636 418.338 418.059 420.451C419.233 421.49 419.838 422.979 420.823 424.191C422.791 426.615 426.464 427.792 429.644 427.031C430.477 425.403 433.051 425.749 434.868 425.091C436.345 424.537 437.632 423.187 439.184 423.533C439.941 423.706 440.547 424.26 441.342 424.468C443.689 425.022 445.847 421.767 448.081 422.667C448.989 423.048 449.481 424.018 450.428 424.26C451.488 424.537 452.51 423.845 453.532 423.533C456.182 422.771 459.173 425.438 458.416 427.896C460.347 427.55 462.315 427.204 464.246 426.857C464.738 426.788 465.23 426.684 465.723 426.684C466.404 426.684 467.085 426.892 467.767 427.1C470 427.723 472.31 428.139 474.619 428.381C478.216 428.762 481.85 428.624 485.484 428.52C486.772 428.485 488.097 428.45 489.308 428C491.315 427.308 492.753 425.611 494.684 424.71C497.372 423.464 500.552 423.879 503.543 424.052C505.625 424.156 511.796 424.191 511.266 421.282C515.43 421.317 519.708 423.533 522.888 425.888C523.305 426.199 523.683 426.511 524.1 426.823C526.031 421.697 524.743 415.256 525.198 409.681C526.598 392.85 527.242 375.916 527.469 358.981Z" fill="url(#paint9_linear_2306_724)"/>
<path d="M404.089 420.036C400.076 420.659 396.328 421.074 392.24 420.486C385.085 419.481 378.687 416.157 371.759 414.391C368.048 413.421 364.225 412.971 360.401 413.49C355.82 414.079 351.353 415.88 346.961 417.161C342.153 418.546 337.27 419.828 332.31 420.52C327.729 421.144 323.035 421.109 318.378 421.455C309.293 422.148 300.207 423.187 291.121 423.083C287.108 423.048 283.284 422.806 279.536 421.352C275.674 419.828 272.154 417.369 267.989 416.607C263.295 415.741 259.471 417.473 255.155 418.824C250.726 420.209 246.372 419.828 241.754 419.481C231.04 418.685 220.174 419.585 209.385 419.308C198.974 419.066 188.563 418.443 178.19 417.819C175.577 417.646 172.889 417.265 170.277 417.508C168.384 417.681 166.567 418.027 164.674 417.923C160.813 417.715 157.822 415.949 154.907 413.767C151.727 411.413 148.736 409.785 144.609 409.3C140.483 408.815 136.243 409.127 132.078 409.473C127.876 409.854 123.674 410.235 119.509 411.032C115.572 411.793 111.597 412.555 107.584 411.932C103.458 411.309 99.9746 409.231 96.681 406.945C94.5231 405.421 92.5923 403.794 89.7529 403.655C88.2386 403.586 85.6642 403.482 84.6799 404.521C83.7713 405.491 83.6199 406.876 82.4463 407.707C81.197 408.573 79.6448 408.365 78.2819 407.846C76.4268 407.118 76.5783 406.876 74.4961 407.43C70.5588 408.469 66.8487 410.131 62.8358 410.893C58.2928 411.759 53.8255 411.309 49.2825 410.824C46.7082 410.547 44.1338 410.339 41.5216 410.478C40.4994 410.547 39.4772 410.616 38.4551 410.685C38.7579 413.698 39.0987 416.676 39.5151 419.724C40.1966 421.352 42.203 422.148 44.0959 422.321C45.9889 422.494 47.9196 422.252 49.7747 422.598C50.8726 422.806 51.8947 423.222 52.9926 423.291C54.0148 423.36 55.037 423.187 56.0591 422.979C61.3214 421.975 66.5837 420.936 71.8081 419.932C73.436 419.62 75.2911 419.343 76.5783 420.313C77.0704 420.694 77.449 421.248 77.979 421.559C80.0612 422.806 82.9384 420.278 85.2099 421.213C84.1878 418.512 88.0493 416.018 91.0401 416.746C94.0309 417.473 95.9617 420.105 97.476 422.564C97.8924 421.421 99.861 421.871 100.732 422.806C101.603 423.741 102.435 425.022 103.76 424.918C104.366 424.884 104.858 424.503 105.464 424.434C106.676 424.26 107.698 425.23 108.871 425.68C112.922 427.204 115.875 422.46 119.623 422.217C123.257 421.975 126.438 425.369 129.92 425.161C132.987 424.988 134.085 421.213 136.735 419.759C139.044 418.443 142.224 419.239 144.307 420.832C146.427 422.425 147.752 424.676 149.266 426.754C149.607 427.239 150.023 427.758 150.591 428.001C152.03 428.624 153.658 427.447 155.248 427.412C156.383 427.377 157.405 427.897 158.503 428.208C161.229 428.936 164.144 428.243 166.719 427.135C168.195 426.511 169.634 425.715 171.224 425.542C172.852 425.369 174.707 426.061 175.199 427.447C175.464 428.174 175.312 429.04 175.918 429.594C176.789 430.425 178.265 429.767 179.363 429.247C186.897 425.819 196.778 431.221 204.047 427.377C204.653 427.066 205.296 426.65 206.015 426.685C206.848 426.719 207.492 427.343 208.249 427.654C208.968 427.931 209.763 427.966 210.558 427.966C219.076 428.001 227.708 428.347 236.226 427.966C238.952 427.862 241.186 426.996 243.836 426.581C247.622 425.992 248.909 427.273 252.505 425.403C255.117 424.053 258.335 425.369 260.872 426.823C263.408 428.278 266.248 429.94 269.125 429.247C273.327 428.243 275.031 422.737 279.347 422.148C281.921 421.802 284.23 423.36 286.653 424.261C288.963 425.126 291.499 425.369 293.998 425.576C298.352 425.992 302.705 426.373 307.021 426.789C309.785 427.066 313.495 428.382 316.031 426.823C316.523 426.511 316.94 426.131 317.47 425.888C318.606 425.403 319.931 425.819 321.104 426.234C323.641 427.135 326.367 428.174 327.843 430.286C328.146 430.702 328.411 431.187 328.903 431.36C329.622 431.602 330.342 431.117 331.061 430.944C333.522 430.321 335.755 433.23 338.254 432.745C339.882 432.433 340.942 430.736 342.608 430.563C343.743 430.425 345.031 431.048 346.053 430.529C347.34 429.836 346.961 427.862 348.059 426.892C348.665 426.338 349.611 426.269 350.406 425.957C352.451 425.161 353.322 423.014 354.268 421.144C355.215 419.308 356.918 417.3 359.152 417.611C359.871 417.715 360.59 418.027 361.234 417.75C361.953 417.438 362.105 416.607 362.483 415.949C363.619 413.941 366.951 413.941 368.881 415.326C371.569 417.3 371.039 421.525 374.636 422.079C376.112 422.321 377.778 422.079 379.027 422.841C380.39 423.672 380.693 425.334 381.337 426.719C383.608 431.671 391.521 432.26 395.836 429.247C396.518 428.762 397.161 428.208 397.956 427.931C398.6 427.689 399.319 427.689 400.039 427.62C402.159 427.377 404.165 426.615 406.134 425.854C406.777 425.611 407.421 425.334 407.913 424.884C408.822 424.053 408.973 422.806 409.541 421.767C410.336 420.243 412.115 419.378 413.933 419.239C410.677 419.343 407.345 419.551 404.089 420.036Z" fill="url(#paint10_linear_2306_724)"/>
<path d="M522.244 417.229C518.572 414.493 511.985 416.675 507.896 417.333C503.996 417.922 500.135 418.095 496.198 418.303C490.898 418.58 485.597 419.134 480.297 419.688C469.394 420.831 458.491 422.078 447.474 421.801C437.858 421.558 428.432 419.723 418.853 419.307C417.604 419.238 416.355 419.307 415.105 419.307C416.203 419.411 417.263 419.757 418.096 420.485C419.27 421.523 419.876 423.013 420.86 424.225C422.829 426.649 426.501 427.826 429.681 427.064C430.514 425.437 433.088 425.783 434.905 425.125C436.382 424.571 437.669 423.22 439.221 423.567C439.978 423.74 440.584 424.294 441.379 424.502C443.726 425.056 445.884 421.8 448.118 422.701C449.026 423.082 449.519 424.051 450.465 424.294C451.525 424.571 452.547 423.878 453.569 423.567C456.219 422.805 459.21 425.471 458.453 427.93C460.384 427.584 462.352 427.238 464.283 426.891C464.775 426.822 465.268 426.718 465.76 426.718C466.441 426.718 467.123 426.926 467.804 427.134C470.038 427.757 472.347 428.173 474.656 428.415C478.253 428.796 481.887 428.657 485.522 428.553C486.809 428.519 488.134 428.484 489.345 428.034C491.352 427.341 492.79 425.645 494.721 424.744C497.409 423.497 500.589 423.913 503.58 424.086C505.662 424.19 511.833 424.225 511.303 421.316C515.468 421.35 519.745 423.567 522.926 425.922C523.342 426.233 523.721 426.545 524.137 426.857C524.743 425.194 525.008 423.428 525.159 421.593C524.516 419.93 523.683 418.303 522.244 417.229Z" fill="url(#paint11_linear_2306_724)"/>
</g>
</g>
<defs>
<filter id="filter0_dg_2306_724" x="5" y="48.5513" width="240" height="376.836" filterUnits="userSpaceOnUse" color-interpolation-filters="sRGB">
<feFlood flood-opacity="0" result="BackgroundImageFix"/>
<feColorMatrix in="SourceAlpha" type="matrix" values="0 0 0 0 0 0 0 0 0 0 0 0 0 0 0 0 0 0 127 0" result="hardAlpha"/>
<feOffset dy="4"/>
<feGaussianBlur stdDeviation="2"/>
<feComposite in2="hardAlpha" operator="out"/>
<feColorMatrix type="matrix" values="0 0 0 0 0 0 0 0 0 0 0 0 0 0 0 0 0 0 0.25 0"/>
<feBlend mode="normal" in2="BackgroundImageFix" result="effect1_dropShadow_2306_724"/>
<feBlend mode="normal" in="SourceGraphic" in2="effect1_dropShadow_2306_724" result="shape"/>
<feTurbulence type="fractalNoise" baseFrequency="2 2" numOctaves="3" seed="6667" />
<feDisplacementMap in="shape" scale="12" xChannelSelector="R" yChannelSelector="G" result="displacedImage" width="100%" height="100%" />
<feMerge result="effect2_texture_2306_724">
<feMergeNode in="displacedImage"/>
</feMerge>
</filter>
<filter id="filter1_dg_2306_724" x="0" y="36.956" width="134.5" height="312.095" filterUnits="userSpaceOnUse" color-interpolation-filters="sRGB">
<feFlood flood-opacity="0" result="BackgroundImageFix"/>
<feColorMatrix in="SourceAlpha" type="matrix" values="0 0 0 0 0 0 0 0 0 0 0 0 0 0 0 0 0 0 127 0" result="hardAlpha"/>
<feOffset dy="4"/>
<feGaussianBlur stdDeviation="2"/>
<feComposite in2="hardAlpha" operator="out"/>
<feColorMatrix type="matrix" values="0 0 0 0 0 0 0 0 0 0 0 0 0 0 0 0 0 0 0.25 0"/>
<feBlend mode="normal" in2="BackgroundImageFix" result="effect1_dropShadow_2306_724"/>
<feBlend mode="normal" in="SourceGraphic" in2="effect1_dropShadow_2306_724" result="shape"/>
<feTurbulence type="fractalNoise" baseFrequency="2 2" numOctaves="3" seed="6667" />
<feDisplacementMap in="shape" scale="12" xChannelSelector="R" yChannelSelector="G" result="displacedImage" width="100%" height="100%" />
<feMerge result="effect2_texture_2306_724">
<feMergeNode in="displacedImage"/>
</feMerge>
</filter>
<filter id="filter2_dg_2306_724" x="10.5" y="96.382" width="531.5" height="353.162" filterUnits="userSpaceOnUse" color-interpolation-filters="sRGB">
<feFlood flood-opacity="0" result="BackgroundImageFix"/>
<feColorMatrix in="SourceAlpha" type="matrix" values="0 0 0 0 0 0 0 0 0 0 0 0 0 0 0 0 0 0 127 0" result="hardAlpha"/>
<feOffset dy="4"/>
<feGaussianBlur stdDeviation="2"/>
<feComposite in2="hardAlpha" operator="out"/>
<feColorMatrix type="matrix" values="0 0 0 0 0 0 0 0 0 0 0 0 0 0 0 0 0 0 0.25 0"/>
<feBlend mode="normal" in2="BackgroundImageFix" result="effect1_dropShadow_2306_724"/>
<feBlend mode="normal" in="SourceGraphic" in2="effect1_dropShadow_2306_724" result="shape"/>
<feTurbulence type="fractalNoise" baseFrequency="2 2" numOctaves="3" seed="6667" />
<feDisplacementMap in="shape" scale="12" xChannelSelector="R" yChannelSelector="G" result="displacedImage" width="100%" height="100%" />
<feMerge result="effect2_texture_2306_724">
<feMergeNode in="displacedImage"/>
</feMerge>
</filter>
<filter id="filter3_dg_2306_724" x="704" y="52.2296" width="240" height="384.012" filterUnits="userSpaceOnUse" color-interpolation-filters="sRGB">
<feFlood flood-opacity="0" result="BackgroundImageFix"/>
<feColorMatrix in="SourceAlpha" type="matrix" values="0 0 0 0 0 0 0 0 0 0 0 0 0 0 0 0 0 0 127 0" result="hardAlpha"/>
<feOffset dy="4"/>
<feGaussianBlur stdDeviation="2"/>
<feComposite in2="hardAlpha" operator="out"/>
<feColorMatrix type="matrix" values="0 0 0 0 0 0 0 0 0 0 0 0 0 0 0 0 0 0 0.25 0"/>
<feBlend mode="normal" in2="BackgroundImageFix" result="effect1_dropShadow_2306_724"/>
<feBlend mode="normal" in="SourceGraphic" in2="effect1_dropShadow_2306_724" result="shape"/>
<feTurbulence type="fractalNoise" baseFrequency="2 2" numOctaves="3" seed="6667" />
<feDisplacementMap in="shape" scale="12" xChannelSelector="R" yChannelSelector="G" result="displacedImage" width="100%" height="100%" />
<feMerge result="effect2_texture_2306_724">
<feMergeNode in="displacedImage"/>
</feMerge>
</filter>
<filter id="filter4_dg_2306_724" x="662.5" y="130.568" width="275" height="321.932" filterUnits="userSpaceOnUse" color-interpolation-filters="sRGB">
<feFlood flood-opacity="0" result="BackgroundImageFix"/>
<feColorMatrix in="SourceAlpha" type="matrix" values="0 0 0 0 0 0 0 0 0 0 0 0 0 0 0 0 0 0 127 0" result="hardAlpha"/>
<feOffset dy="4"/>
<feGaussianBlur stdDeviation="2"/>
<feComposite in2="hardAlpha" operator="out"/>
<feColorMatrix type="matrix" values="0 0 0 0 0 0 0 0 0 0 0 0 0 0 0 0 0 0 0.25 0"/>
<feBlend mode="normal" in2="BackgroundImageFix" result="effect1_dropShadow_2306_724"/>
<feBlend mode="normal" in="SourceGraphic" in2="effect1_dropShadow_2306_724" result="shape"/>
<feTurbulence type="fractalNoise" baseFrequency="2 2" numOctaves="3" seed="6667" />
<feDisplacementMap in="shape" scale="12" xChannelSelector="R" yChannelSelector="G" result="displacedImage" width="100%" height="100%" />
<feMerge result="effect2_texture_2306_724">
<feMergeNode in="displacedImage"/>
</feMerge>
</filter>
<filter id="filter5_dg_2306_724" x="666" y="34" width="271" height="353.465" filterUnits="userSpaceOnUse" color-interpolation-filters="sRGB">
<feFlood flood-opacity="0" result="BackgroundImageFix"/>
<feColorMatrix in="SourceAlpha" type="matrix" values="0 0 0 0 0 0 0 0 0 0 0 0 0 0 0 0 0 0 127 0" result="hardAlpha"/>
<feOffset dy="4"/>
<feGaussianBlur stdDeviation="2"/>
<feComposite in2="hardAlpha" operator="out"/>
<feColorMatrix type="matrix" values="0 0 0 0 0 0 0 0 0 0 0 0 0 0 0 0 0 0 0.25 0"/>
<feBlend mode="normal" in2="BackgroundImageFix" result="effect1_dropShadow_2306_724"/>
<feBlend mode="normal" in="SourceGraphic" in2="effect1_dropShadow_2306_724" result="shape"/>
<feTurbulence type="fractalNoise" baseFrequency="2 2" numOctaves="3" seed="6667" />
<feDisplacementMap in="shape" scale="12" xChannelSelector="R" yChannelSelector="G" result="displacedImage" width="100%" height="100%" />
<feMerge result="effect2_texture_2306_724">
<feMergeNode in="displacedImage"/>
</feMerge>
</filter>
<filter id="filter6_d_2306_724" x="18" y="0" width="908" height="440.869" filterUnits="userSpaceOnUse" color-interpolation-filters="sRGB">
<feFlood flood-opacity="0" result="BackgroundImageFix"/>
<feColorMatrix in="SourceAlpha" type="matrix" values="0 0 0 0 0 0 0 0 0 0 0 0 0 0 0 0 0 0 127 0" result="hardAlpha"/>
<feOffset dy="4"/>
<feGaussianBlur stdDeviation="2"/>
<feComposite in2="hardAlpha" operator="out"/>
<feColorMatrix type="matrix" values="0 0 0 0 0 0 0 0 0 0 0 0 0 0 0 0 0 0 0.25 0"/>
<feBlend mode="normal" in2="BackgroundImageFix" result="effect1_dropShadow_2306_724"/>
<feBlend mode="normal" in="SourceGraphic" in2="effect1_dropShadow_2306_724" result="shape"/>
</filter>
<filter id="filter7_d_2306_724" x="37" y="0" width="875.999" height="440.869" filterUnits="userSpaceOnUse" color-interpolation-filters="sRGB">
<feFlood flood-opacity="0" result="BackgroundImageFix"/>
<feColorMatrix in="SourceAlpha" type="matrix" values="0 0 0 0 0 0 0 0 0 0 0 0 0 0 0 0 0 0 127 0" result="hardAlpha"/>
<feOffset dx="3" dy="4"/>
<feGaussianBlur stdDeviation="2"/>
<feComposite in2="hardAlpha" operator="out"/>
<feColorMatrix type="matrix" values="0 0 0 0 0 0 0 0 0 0 0 0 0 0 0 0 0 0 0.25 0"/>
<feBlend mode="normal" in2="BackgroundImageFix" result="effect1_dropShadow_2306_724"/>
<feBlend mode="normal" in="SourceGraphic" in2="effect1_dropShadow_2306_724" result="shape"/>
</filter>
<linearGradient id="paint0_linear_2306_724" x1="661.271" y1="0" x2="661.271" y2="432.834" gradientUnits="userSpaceOnUse">
<stop stop-color="#FFF5EC"/>
<stop offset="1" stop-color="white"/>
</linearGradient>
<linearGradient id="paint1_linear_2306_724" x1="604.566" y1="403.615" x2="604.566" y2="432.8" gradientUnits="userSpaceOnUse">
<stop stop-color="#FFF5EC"/>
<stop offset="1" stop-color="white"/>
</linearGradient>
<linearGradient id="paint2_linear_2306_724" x1="848.525" y1="415.886" x2="848.525" y2="428.666" gradientUnits="userSpaceOnUse">
<stop stop-color="#FFF5EC"/>
<stop offset="1" stop-color="white"/>
</linearGradient>
<linearGradient id="paint3_linear_2306_724" x1="535.129" y1="0" x2="535.129" y2="432.834" gradientUnits="userSpaceOnUse">
<stop stop-color="#FFF5EC"/>
<stop offset="1" stop-color="white"/>
</linearGradient>
<linearGradient id="paint4_linear_2306_724" x1="478.443" y1="403.615" x2="478.443" y2="432.8" gradientUnits="userSpaceOnUse">
<stop stop-color="#FFF5EC"/>
<stop offset="1" stop-color="white"/>
</linearGradient>
<linearGradient id="paint5_linear_2306_724" x1="722.382" y1="415.886" x2="722.382" y2="428.666" gradientUnits="userSpaceOnUse">
<stop stop-color="#FFF5EC"/>
<stop offset="1" stop-color="white"/>
</linearGradient>
<linearGradient id="paint6_linear_2306_724" x1="408.984" y1="0" x2="408.984" y2="432.834" gradientUnits="userSpaceOnUse">
<stop stop-color="#FFF5EC"/>
<stop offset="1" stop-color="white"/>
</linearGradient>
<linearGradient id="paint7_linear_2306_724" x1="352.336" y1="403.615" x2="352.336" y2="432.8" gradientUnits="userSpaceOnUse">
<stop stop-color="#FFF5EC"/>
<stop offset="1" stop-color="white"/>
</linearGradient>
<linearGradient id="paint8_linear_2306_724" x1="596.275" y1="415.886" x2="596.275" y2="428.666" gradientUnits="userSpaceOnUse">
<stop stop-color="#FFF5EC"/>
<stop offset="1" stop-color="white"/>
</linearGradient>
<linearGradient id="paint9_linear_2306_724" x1="282.804" y1="0" x2="282.804" y2="432.869" gradientUnits="userSpaceOnUse">
<stop stop-color="#FFF5EC"/>
<stop offset="1" stop-color="white"/>
</linearGradient>
<linearGradient id="paint10_linear_2306_724" x1="226.194" y1="403.615" x2="226.194" y2="432.8" gradientUnits="userSpaceOnUse">
<stop stop-color="#FFF5EC"/>
<stop offset="1" stop-color="white"/>
</linearGradient>
<linearGradient id="paint11_linear_2306_724" x1="470.132" y1="415.886" x2="470.132" y2="428.666" gradientUnits="userSpaceOnUse">
<stop stop-color="#FFF5EC"/>
<stop offset="1" stop-color="white"/>
</linearGradient>
</defs>
</svg>
