<svg width="669" height="782" viewBox="0 0 669 782" fill="none" xmlns="http://www.w3.org/2000/svg">
<g opacity="0.7" filter="url(#filter0_f_2171_1315)">
<path d="M333.264 18.0657C344.515 13.1945 355.54 7.65401 367.075 3.59626C394.789 -6.1725 422.849 -8.33089 450.965 2.23828C480.029 13.1622 497.841 39.7731 493.931 66.3497C489.21 98.4208 463.874 123.289 433.344 125.785C404.475 128.158 382.955 108.09 385.627 81.2984C387.499 62.4908 397.543 52.918 413.621 54.5956C429.099 56.2253 435.884 66.5122 434.208 85.7773C446.103 83.9115 450.111 78.2765 447.259 67.3728C443.605 53.4046 432.342 43.5514 417.843 41.3252C403.158 39.0842 389.354 42.1468 376.069 48.0189C349.621 59.7029 327.823 77.247 312.862 102.105C301.411 121.149 303.668 127.562 323.751 136.77C391.43 167.776 460.844 174.987 532.152 150.575C546.453 145.668 559.925 138.903 569.494 126.246C578.076 114.881 579.449 102.617 572.701 90.4019C566.112 78.5256 554.942 76.844 542.457 79.6863C538.501 80.5803 533.585 82.7237 530.544 78.5735C527.543 74.4963 531.169 70.4358 532.745 66.7236C539.979 49.5067 564.229 41.7643 583.53 50.2814C630.467 71.0042 638.835 132.031 599.813 168.973C576.165 191.347 547.616 204.585 516.588 212.74C450.639 230.043 386.454 224.343 324.142 196.905C319.603 194.915 315.042 192.899 308.39 189.973C311.171 198.848 313.68 205.886 315.595 213.087C323.396 242.435 323.725 272.722 326.476 302.691C328.108 320.429 330.097 338.079 337.03 354.681C342.985 368.972 354.578 377.014 368.798 381.288C379.997 384.647 394.01 379.554 399.645 370.444C406.211 359.849 404.834 349.993 395.82 341.11C393.126 338.43 390.288 334.645 393.334 330.864C396.743 326.623 401.146 329.161 404.961 330.907C429.453 342.001 437.4 371.85 422.335 395.955C408.418 418.221 379.974 429.56 353.762 423.702C317.314 415.538 296.425 391.054 283.465 357.852C270.718 325.202 269.44 290.769 267.315 256.454C266.485 242.944 265.42 229.461 262.521 216.228C261.157 210.001 260.142 203.477 255.422 198.496C250.268 201.294 250.884 206.112 249.534 209.912C237.265 244.475 213.379 267.202 178.38 277.018C157.944 282.738 137.728 279.568 119.493 267.6C114.896 264.582 111.154 260.748 107.898 256.371C106.176 254.047 105.354 251.516 107.488 248.965C109.853 246.153 112.487 246.363 115.775 247.719C144.313 259.415 162.683 254.227 180.738 229.081C193.221 211.678 198.637 192.758 193.244 171.138C188.329 151.394 174.38 143.14 156.211 139.389C153.578 138.853 150.833 138.867 148.145 138.443C98.7923 130.507 79.0232 153.818 69.7949 201.579C61.5933 244.049 77.2274 280.465 99.8021 315.015C125.941 355.036 160.182 388.261 191.084 424.266C233.141 473.232 275.048 522.327 307.31 578.607C334.917 626.77 357.426 677.015 366.619 732.362C367.172 735.64 366.346 740.458 370.029 741.52C374.235 742.739 376.775 738.313 379.073 735.449C414.455 691.076 421.451 641.555 405.274 588.024C401.264 574.725 396.373 561.681 392.03 548.472C391.057 545.511 390.494 542.07 393.544 539.987C396.988 537.633 399.378 540.336 401.302 542.746C426.384 574.146 447.59 607.494 454.089 648.205C460.232 686.679 456.902 724.35 444.541 761.231C440.82 772.309 441.673 773.563 453.99 772.243C500.72 767.27 547.339 765.731 593.137 778.873C617.628 785.897 640.175 796.58 655.842 817.996C667.442 833.831 671.198 851.482 663.142 869.378C656.212 884.828 642.279 892.695 625.308 894.342C612.579 895.583 599.583 887.918 595.246 876.966C590.601 865.221 593.349 856.136 606.01 847.284C612.341 842.857 612.12 839.793 607.409 834.695C593.579 819.706 576.051 814.331 556.33 814.293C515.702 814.194 480.601 830.561 446.869 851.038C435.235 858.088 425.332 867.346 414.84 875.837C407.828 881.511 406.047 888.673 409.116 896.57C430.181 950.631 460.862 994.946 522.941 1007.22C549.137 1012.41 574.482 1001.42 583.796 980.303C587.604 971.629 587.421 963.427 580.846 956.622C574.291 949.866 565.351 949.385 557.038 952.118C548.439 954.945 547.061 963.185 546.431 971.09C546.104 975.181 548.169 980.207 543.242 982.489C538.098 984.87 534.66 980.734 531.149 977.803C520.31 968.751 516.115 957.484 520.053 943.68C524.926 926.623 536.813 916.686 553.702 914.032C582.298 909.544 607.344 918.054 624.352 941.623C641.108 964.847 642.301 990.714 627.389 1015.83C615.189 1036.4 595.151 1046.45 572.938 1052.29C516.011 1067.29 466.127 1050.56 420.627 1016.76C392.652 995.973 371.5 968.956 353.608 939.268C347.304 928.787 346.363 928.619 338.443 938.105C316.309 964.531 293.7 990.198 262.111 1006.26C237.286 1018.89 212.388 1021.93 186.135 1011.63C162.815 1002.46 150.326 973.275 160.128 950.123C161.989 945.735 164.203 941.306 169.576 941.014C175.323 940.705 175.71 946.062 177.131 949.827C183.759 967.335 190.606 972.487 218.946 968.281C263.598 961.654 288.789 930.447 305.423 891.023C309.151 882.202 302.987 880.152 296.432 878.931C255.611 871.35 214.499 868.001 173.068 871.861C132.269 875.656 91.416 879.562 53.2754 896.408C35.3616 904.329 19.0616 914.473 8.19469 931.447C-0.864602 945.588 -0.501427 963.201 8.74129 976.22C18.0053 989.263 31.6077 994.279 47.3898 990.629C52.0111 989.556 56.144 987.606 59.7784 984.616C66.5267 979.037 72.8626 972.797 70.425 963.112C68.2179 954.33 59.9524 952.392 52.4802 950.423C47.286 949.056 41.824 948.713 36.5365 947.64C34.6366 947.256 33.1505 945.765 32.7848 943.643C32.4107 941.333 33.7296 939.671 35.7505 939.413C51.9018 937.259 67.8604 929.646 84.3502 938.707C109.553 952.556 114.86 981.961 95.6564 1003.43C59.4393 1043.99 8.56572 1046.38 -31.3532 1009.4C-49.9807 992.145 -55.6908 961.08 -45.0021 934.09C-34.197 906.807 -14.698 886.591 9.38309 871.043C64.1692 835.638 124.244 816.75 189.73 816.041C198.88 815.933 208.013 815.452 218.392 815.093C215.578 809.845 211.159 809.26 207.58 807.765C125.714 773.813 53.5588 725.726 -4.72553 658.578C-26.7942 633.14 -44.671 604.43 -51.5181 570.413C-59.2335 532.117 -40.6331 500.711 -3.13261 490.141C18.2578 484.125 40.2884 483.206 62.4103 485.226C65.4131 485.489 69.0704 485.13 70.3924 488.677C71.7144 492.225 68.7565 494.316 66.5863 496.445C61.586 501.396 55.4648 504.653 49.3168 507.954C28.9011 518.956 24.6889 528.901 29.2275 551.616C35.9987 585.417 57.637 609.542 81.869 631.478C142.671 686.592 213.102 726.261 288.187 758.323C296.892 762.041 297.428 756.78 297.615 750.934C298.45 727.042 293.295 704.186 285.667 681.713C260.802 608.206 216.16 547.915 161.082 494.514C118.895 453.608 77.5628 411.887 46.6857 361.277C13.9569 307.634 -3.42983 250.029 5.36559 186.696C10.9957 146.137 27.8692 111.011 62.8204 87.4916C97.9426 63.8692 134.777 65.1552 171.392 84.357C186.373 92.2041 186.018 92.8735 191.986 76.9512C219.761 2.82723 175.73 -74.4645 97.9477 -88.157C73.931 -92.375 47.2234 -80.642 34.7949 -60.4201C25.6803 -45.5861 27.5199 -27.5292 39.2073 -16.8745C51.5883 -5.58304 67.8162 -5.19609 82.7562 -15.4951C86.2521 -17.9144 89.486 -24.6345 94.0919 -20.8479C99.0686 -16.7528 94.7943 -10.6972 92.6275 -5.98544C84.0824 12.4993 60.4909 22.2014 38.3175 17.6187C2.0716 10.1227 -16.1944 -28.8754 -17.0797 -56.8578C-18.6694 -106.342 14.853 -135.279 61.8694 -149.672C118.709 -167.074 165.516 -146.757 205.983 -106.733C231.25 -81.7368 248.639 -52.159 258.913 -18.2408C259.464 -16.4059 260.18 -14.5811 260.994 -12.8414C261.272 -12.2377 262.08 -11.871 262.733 -11.3072C266.871 -12.4426 268.478 -16.2685 270.601 -19.2626C311.532 -77.2186 347.819 -137.615 370.306 -205.508C380.753 -237.053 385.259 -269.351 386.006 -302.343C386.257 -313.651 383.86 -324.728 379.716 -335.176C367.543 -365.989 333.789 -379.358 302.926 -365.979C274.23 -353.52 261.641 -320.495 274.421 -291.169C283.21 -270.999 305.836 -260.426 328.537 -265.966C334.896 -267.529 341.07 -269.99 347.796 -269.756C350.163 -269.684 352.532 -269.635 353.829 -267.228C355.391 -264.359 354.15 -261.923 352.174 -259.894C308.32 -214.871 259.669 -217.308 228.714 -273.065C201.22 -322.638 225.781 -398.461 274.407 -426.914C320.645 -454 373.825 -445.061 411.098 -404.361C442.23 -370.361 455.2 -329.994 455.036 -284.488C454.764 -209.031 427.786 -141.984 391.171 -77.7759C372.809 -45.5599 353.163 -14.1673 333.264 18.0657ZM360.549 776.398C334.798 774.391 311.141 793.95 309.179 818.844C307.199 843.97 328.252 868.723 353.305 870.744C377.502 872.697 403.064 851.126 404.921 827.247C406.909 801.447 386.832 778.447 360.549 776.398Z" fill="url(#paint0_linear_2171_1315)" fill-opacity="0.7"/>
</g>
<defs>
<filter id="filter0_f_2171_1315" x="-53.9201" y="-443.104" width="722.037" height="1501.6" filterUnits="userSpaceOnUse" color-interpolation-filters="sRGB">
<feFlood flood-opacity="0" result="BackgroundImageFix"/>
<feBlend mode="normal" in="SourceGraphic" in2="BackgroundImageFix" result="shape"/>
<feGaussianBlur stdDeviation="0.340893" result="effect1_foregroundBlur_2171_1315"/>
</filter>
<linearGradient id="paint0_linear_2171_1315" x1="391.471" y1="-437.805" x2="272.413" y2="1055.16" gradientUnits="userSpaceOnUse">
<stop stop-color="#E75757"/>
<stop offset="1" stop-color="#E12D2D"/>
</linearGradient>
</defs>
</svg>
