<svg width="723" height="1502" viewBox="0 0 723 1502" fill="none" xmlns="http://www.w3.org/2000/svg">
<g opacity="0.7" filter="url(#filter0_f_2171_1315)">
<path d="M387.185 461.17C398.436 456.298 409.461 450.758 420.995 446.7C448.709 436.931 476.77 434.773 504.886 445.342C533.95 456.266 551.762 482.877 547.851 509.454C543.131 541.525 517.795 566.393 487.265 568.889C458.396 571.262 436.876 551.194 439.548 524.402C441.42 505.595 451.464 496.022 467.542 497.699C483.019 499.329 489.805 509.616 488.129 528.881C500.024 527.015 504.032 521.38 501.18 510.477C497.526 496.508 486.263 486.655 471.764 484.429C457.079 482.188 443.274 485.251 429.99 491.123C403.542 502.807 381.744 520.351 366.783 545.209C355.332 564.253 357.589 570.666 377.672 579.874C445.351 610.88 514.765 618.09 586.073 593.679C600.374 588.771 613.846 582.007 623.415 569.349C631.997 557.985 633.37 545.72 626.622 533.506C620.033 521.629 608.863 519.948 596.378 522.79C592.422 523.684 587.506 525.828 584.465 521.677C581.464 517.6 585.09 513.54 586.666 509.827C593.9 492.611 618.15 484.868 637.451 493.385C684.388 514.108 692.756 575.135 653.734 612.077C630.086 634.451 601.537 647.689 570.509 655.844C504.56 673.147 440.375 667.447 378.063 640.009C373.524 638.018 368.963 636.003 362.311 633.077C365.092 641.952 367.601 648.99 369.516 656.19C377.317 685.538 377.646 715.826 380.397 745.795C382.029 763.533 384.018 781.183 390.951 797.785C396.905 812.076 408.499 820.118 422.719 824.392C433.918 827.751 447.931 822.658 453.566 813.547C460.132 802.953 458.755 793.097 449.741 784.214C447.047 781.534 444.209 777.749 447.255 773.968C450.664 769.727 455.067 772.265 458.882 774.011C483.373 785.105 491.321 814.953 476.256 839.059C462.339 861.325 433.895 872.664 407.683 866.806C371.235 858.642 350.346 834.158 337.386 800.956C324.638 768.306 323.36 733.873 321.236 699.558C320.406 686.048 319.341 672.565 316.442 659.331C315.078 653.105 314.063 646.581 309.343 641.6C304.189 644.398 304.805 649.216 303.455 653.016C291.186 687.579 267.299 710.306 232.301 720.122C211.865 725.842 191.649 722.672 173.414 710.704C168.817 707.686 165.075 703.852 161.819 699.475C160.097 697.151 159.275 694.62 161.409 692.069C163.773 689.257 166.408 689.467 169.696 690.823C198.234 702.519 216.604 697.331 234.659 672.185C247.142 654.782 252.558 635.862 247.165 614.242C242.25 594.497 228.301 586.244 210.131 582.493C207.499 581.957 204.753 581.971 202.066 581.547C152.713 573.611 132.944 596.922 123.716 644.683C115.514 687.153 131.148 723.569 153.723 758.119C179.862 798.14 214.103 831.365 245.005 867.37C287.062 916.336 328.969 965.43 361.231 1021.71C388.838 1069.87 411.347 1120.12 420.54 1175.47C421.093 1178.74 420.267 1183.56 423.95 1184.62C428.156 1185.84 430.696 1181.42 432.994 1178.55C468.375 1134.18 475.372 1084.66 459.195 1031.13C455.185 1017.83 450.294 1004.79 445.951 991.576C444.978 988.614 444.415 985.174 447.465 983.091C450.909 980.737 453.299 983.44 455.223 985.849C480.305 1017.25 501.511 1050.6 508.01 1091.31C514.153 1129.78 510.823 1167.45 498.462 1204.34C494.74 1215.41 495.594 1216.67 507.911 1215.35C554.641 1210.37 601.26 1208.83 647.058 1221.98C671.549 1229 694.096 1239.68 709.763 1261.1C721.363 1276.93 725.119 1294.59 717.063 1312.48C710.132 1327.93 696.2 1335.8 679.229 1337.45C666.5 1338.69 653.504 1331.02 649.167 1320.07C644.521 1308.32 647.27 1299.24 659.931 1290.39C666.262 1285.96 666.041 1282.9 661.33 1277.8C647.5 1262.81 629.972 1257.43 610.25 1257.4C569.623 1257.3 534.521 1273.66 500.79 1294.14C489.156 1301.19 479.253 1310.45 468.76 1318.94C461.749 1324.62 459.968 1331.78 463.037 1339.67C484.102 1393.74 514.783 1438.05 576.862 1450.33C603.058 1455.51 628.403 1444.53 637.717 1423.41C641.525 1414.73 641.342 1406.53 634.767 1399.73C628.212 1392.97 619.271 1392.49 610.959 1395.22C602.36 1398.05 600.982 1406.29 600.352 1414.19C600.025 1418.28 602.09 1423.31 597.163 1425.59C592.019 1427.97 588.581 1423.84 585.069 1420.91C574.231 1411.85 570.036 1400.59 573.974 1386.78C578.847 1369.73 590.734 1359.79 607.623 1357.14C636.219 1352.65 661.265 1361.16 678.273 1384.73C695.029 1407.95 696.222 1433.82 681.31 1458.94C669.11 1479.5 649.072 1489.56 626.859 1495.39C569.932 1510.39 520.048 1493.67 474.548 1459.87C446.573 1439.08 425.421 1412.06 407.529 1382.37C401.224 1371.89 400.284 1371.72 392.364 1381.21C370.229 1407.64 347.621 1433.3 316.032 1449.37C291.207 1462 266.309 1465.03 240.056 1454.73C216.736 1445.57 204.247 1416.38 214.049 1393.23C215.91 1388.84 218.124 1384.41 223.497 1384.12C229.244 1383.81 229.631 1389.17 231.052 1392.93C237.68 1410.44 244.527 1415.59 272.867 1411.38C317.519 1404.76 342.71 1373.55 359.344 1334.13C363.072 1325.31 356.908 1323.26 350.353 1322.04C309.532 1314.45 268.42 1311.11 226.988 1314.97C186.19 1318.76 145.337 1322.67 107.196 1339.51C89.2825 1347.43 72.9825 1357.58 62.1156 1374.55C53.0563 1388.69 53.4195 1406.31 62.6622 1419.32C71.9262 1432.37 85.5286 1437.38 101.311 1433.73C105.932 1432.66 110.065 1430.71 113.699 1427.72C120.448 1422.14 126.784 1415.9 124.346 1406.22C122.139 1397.43 113.873 1395.5 106.401 1393.53C101.207 1392.16 95.7449 1391.82 90.4574 1390.74C88.5575 1390.36 87.0714 1388.87 86.7057 1386.75C86.3316 1384.44 87.6505 1382.77 89.6714 1382.52C105.823 1380.36 121.781 1372.75 138.271 1381.81C163.474 1395.66 168.781 1425.06 149.577 1446.54C113.36 1487.1 62.4866 1489.48 22.5676 1452.5C3.94021 1435.25 -1.76991 1404.18 8.9188 1377.19C19.7239 1349.91 39.2229 1329.69 63.304 1314.15C118.09 1278.74 178.165 1259.85 243.651 1259.14C252.801 1259.04 261.934 1258.56 272.313 1258.2C269.499 1252.95 265.08 1252.36 261.5 1250.87C179.635 1216.92 107.48 1168.83 49.1954 1101.68C27.1267 1076.24 9.24988 1047.53 2.40279 1013.52C-5.31255 975.221 13.2878 943.815 50.7883 933.245C72.1787 927.228 94.2093 926.31 116.331 928.33C119.334 928.593 122.991 928.233 124.313 931.781C125.635 935.329 122.677 937.419 120.507 939.549C115.507 944.5 109.386 947.757 103.238 951.058C82.822 962.06 78.6098 972.005 83.1484 994.72C89.9196 1028.52 111.558 1052.65 135.79 1074.58C196.592 1129.7 267.023 1169.36 342.108 1201.43C350.813 1205.14 351.349 1199.88 351.536 1194.04C352.371 1170.15 347.216 1147.29 339.588 1124.82C314.723 1051.31 270.081 991.019 215.003 937.618C172.816 896.712 131.484 854.991 100.607 804.38C67.8778 750.738 50.4911 693.133 59.2865 629.799C64.9166 589.241 81.7901 554.115 116.741 530.596C151.864 506.973 188.698 508.259 225.313 527.461C240.294 535.308 239.938 535.977 245.907 520.055C273.682 445.931 229.651 368.639 151.869 354.947C127.852 350.729 101.144 362.462 88.7158 382.684C79.6012 397.518 81.4408 415.575 93.1282 426.229C105.509 437.521 121.737 437.908 136.677 427.609C140.173 425.189 143.407 418.469 148.013 422.256C152.989 426.351 148.715 432.407 146.548 437.118C138.003 455.603 114.412 465.305 92.2384 460.723C55.9925 453.227 37.7265 414.229 36.8412 386.246C35.2515 336.762 68.7739 307.825 115.79 293.432C172.63 276.03 219.436 296.347 259.904 336.371C285.171 361.367 302.56 390.945 312.834 424.863C313.385 426.698 314.1 428.523 314.915 430.263C315.193 430.866 316.001 431.233 316.654 431.797C320.792 430.661 322.399 426.835 324.522 423.841C365.453 365.885 401.74 305.489 424.227 237.596C434.674 206.051 439.18 173.753 439.927 140.76C440.177 129.453 437.781 118.376 433.637 107.928C421.463 77.1144 387.709 63.7463 356.847 77.1251C328.151 89.5835 315.562 122.609 328.342 151.935C337.131 172.105 359.757 182.678 382.458 177.138C388.817 175.575 394.991 173.113 401.717 173.348C404.084 173.42 406.453 173.469 407.749 175.875C409.312 178.745 408.071 181.181 406.095 183.21C362.241 228.233 313.59 225.795 282.635 170.038C255.141 120.465 279.702 44.643 328.328 16.1895C374.566 -10.8961 427.746 -1.95665 465.019 38.7433C496.151 72.7431 509.121 113.11 508.957 158.616C508.685 234.073 481.707 301.12 445.092 365.328C426.73 397.544 407.084 428.937 387.185 461.17ZM414.47 1219.5C388.719 1217.49 365.062 1237.05 363.1 1261.95C361.12 1287.07 382.173 1311.83 407.225 1313.85C431.423 1315.8 456.984 1294.23 458.842 1270.35C460.83 1244.55 440.753 1221.55 414.47 1219.5Z" fill="url(#paint0_linear_2171_1315)" fill-opacity="0.7"/>
</g>
<defs>
<filter id="filter0_f_2171_1315" x="0.000831723" y="-0.000144839" width="722.037" height="1501.6" filterUnits="userSpaceOnUse" color-interpolation-filters="sRGB">
<feFlood flood-opacity="0" result="BackgroundImageFix"/>
<feBlend mode="normal" in="SourceGraphic" in2="BackgroundImageFix" result="shape"/>
<feGaussianBlur stdDeviation="0.340893" result="effect1_foregroundBlur_2171_1315"/>
</filter>
<linearGradient id="paint0_linear_2171_1315" x1="445.392" y1="5.29844" x2="326.334" y2="1498.26" gradientUnits="userSpaceOnUse">
<stop stop-color="#E75757"/>
<stop offset="1" stop-color="#E12D2D"/>
</linearGradient>
</defs>
</svg>
