<svg width="976" height="1505" viewBox="0 0 976 1505" fill="none" xmlns="http://www.w3.org/2000/svg">
<g opacity="0.7" filter="url(#filter0_f_2171_1529)">
<path d="M613.43 1065.56C604.459 1073.91 595.925 1082.83 586.415 1090.51C563.57 1108.99 537.851 1120.42 507.82 1119.88C476.775 1119.31 451.083 1100.2 445.87 1073.85C439.581 1042.05 455.13 1010.13 483.062 997.558C509.471 985.658 536.467 997.363 542.92 1023.5C547.452 1041.85 541.192 1054.24 525.48 1058.04C510.35 1061.68 500.512 1054.26 495.642 1035.55C485.058 1041.29 483.168 1047.94 489.505 1057.26C497.625 1069.2 511.537 1074.71 525.945 1071.96C540.532 1069.15 552.515 1061.64 563.067 1051.66C584.077 1031.8 598.744 1007.97 604.52 979.537C608.934 957.758 604.66 952.47 582.653 950.518C508.499 943.959 440.677 960.403 381.657 1007.28C369.824 1016.69 359.394 1027.57 354.615 1042.71C350.333 1056.29 353.145 1068.3 363.593 1077.55C373.778 1086.54 384.866 1084.38 395.679 1077.53C399.107 1075.36 403.022 1071.69 407.277 1074.59C411.47 1077.42 409.412 1082.46 409.17 1086.49C408.117 1105.14 387.859 1120.55 366.821 1118.99C315.654 1115.17 287.338 1060.47 311.741 1012.59C326.534 983.594 349.004 961.563 375.511 943.49C431.861 905.107 494.251 888.99 562.152 893.984C567.097 894.34 572.069 894.711 579.316 895.242C573.725 887.811 569.004 882.018 564.789 875.874C547.613 850.832 537.163 822.402 524.538 795.083C517.061 778.916 509.279 762.95 497.187 749.627C486.792 738.154 473.175 734.457 458.345 735.19C446.668 735.775 435.168 745.265 432.909 755.736C430.268 767.918 434.865 776.744 446.333 782.097C449.769 783.72 453.71 786.337 452.106 790.92C450.314 796.057 445.315 795.14 441.136 794.771C414.343 792.517 396.862 767.051 402.987 739.294C408.646 713.653 431.653 693.446 458.314 690.191C495.392 685.681 523.272 701.758 546.599 728.706C569.542 755.204 582.274 787.222 595.765 818.846C601.07 831.299 606.587 843.647 613.749 855.146C617.119 860.556 620.259 866.364 626.375 869.478C630.294 865.115 628.101 860.782 628.101 856.75C628.091 820.074 642.99 790.661 672.682 769.695C690.024 757.463 710.135 753.682 731.325 758.855C736.667 760.16 741.476 762.52 746.01 765.554C748.41 767.167 750.032 769.277 748.875 772.395C747.589 775.836 745.036 776.52 741.484 776.344C710.677 774.877 695.104 785.915 686.51 815.655C680.573 836.233 681.804 855.874 694.124 874.441C705.365 891.4 721.273 894.507 739.649 891.96C742.309 891.583 744.892 890.651 747.566 890.151C796.728 881.106 807.552 852.522 800.258 804.427C793.768 761.662 766.844 732.582 734.005 707.583C695.976 678.623 652.588 658.779 611.415 635.197C555.392 603.136 499.468 570.905 450.225 528.673C408.087 492.532 370.055 452.722 342.863 403.646C341.245 400.743 340.411 395.926 336.584 396.159C332.213 396.418 331.302 401.439 330.095 404.907C311.611 458.564 321.597 507.569 354.762 552.596C362.992 563.785 371.968 574.439 380.483 585.431C382.391 587.897 384.074 590.95 381.897 593.934C379.439 597.305 376.283 595.558 373.663 593.932C339.515 572.74 308.37 548.416 288.616 512.23C269.947 478.033 260.473 441.421 259.774 402.53C259.571 390.846 258.347 389.95 247.183 395.317C204.814 415.648 161.4 432.705 113.846 435.654C88.4171 437.234 63.594 434.716 41.6611 419.781C25.4294 408.744 15.9806 393.369 17.5807 373.809C18.939 356.93 29.4333 344.852 44.874 337.618C56.4531 332.187 71.2652 335.06 79.0184 343.928C87.328 353.44 87.78 362.92 78.8127 375.501C74.3291 381.791 75.5632 384.605 81.7086 387.831C99.7592 397.325 118.075 396.522 136.671 389.955C174.987 376.447 202.584 349.273 227.514 318.685C236.116 308.147 242.348 296.107 249.393 284.594C254.1 276.9 253.38 269.555 247.845 263.141C209.896 219.252 166.15 187.766 103.543 196.98C77.1236 200.867 56.9173 219.699 55.2123 242.72C54.5277 252.169 57.4463 259.836 65.9198 264.047C74.359 268.219 82.9439 265.679 89.8616 260.32C97.0181 254.778 95.558 246.552 93.5057 238.892C92.4435 234.928 88.8152 230.884 92.694 227.084C96.7442 223.118 101.369 225.864 105.659 227.451C118.902 232.352 126.627 241.564 127.537 255.89C128.656 273.594 120.782 286.938 105.756 295.092C80.3132 308.895 53.8627 309.261 29.9459 292.746C6.38194 276.472 -3.4027 252.497 2.24001 223.836C6.85092 200.373 22.3661 184.189 41.3442 171.255C89.9647 138.063 142.57 137.122 196.758 153.736C230.08 163.963 259.056 182.339 285.854 204.324C295.304 212.089 296.247 211.933 300.534 200.342C312.544 168.031 325.255 136.276 349.643 110.562C368.808 90.3523 391.251 79.1536 419.439 80.0743C444.481 80.9016 466.021 104.223 464.536 129.321C464.251 134.079 463.647 138.993 458.682 141.068C453.371 143.283 451.213 138.364 448.613 135.292C436.506 121.013 428.33 118.451 403.033 131.903C363.176 153.096 349.887 190.935 347.411 233.654C346.852 243.213 353.346 243.081 359.931 242.037C400.935 235.515 440.796 224.906 478.544 207.398C515.717 190.164 552.906 172.807 583.206 144.164C597.434 130.702 609.397 115.686 613.954 96.054C617.757 79.6965 611.518 63.221 598.45 54.0482C585.354 44.8591 570.857 44.6868 557.208 53.4091C553.212 55.9678 549.971 59.1888 547.547 63.2229C543.056 70.7394 539.175 78.7405 544.714 87.0501C549.734 94.5865 558.171 93.646 565.871 92.999C571.224 92.549 576.485 91.0432 581.827 90.284C583.746 90.0099 585.645 90.9172 586.7 92.7948C587.826 94.8456 587.14 96.8538 585.322 97.773C570.824 105.21 558.335 117.726 539.763 114.709C511.378 110.097 496.533 84.1654 507.44 57.5027C527.988 7.15708 575.127 -12.123 625.122 9.35883C648.452 19.3826 664.233 46.7436 663.197 75.7543C662.149 105.08 650.543 130.658 633.057 153.37C593.285 205.074 543.001 242.984 481.53 265.576C472.945 268.741 464.5 272.252 454.84 276.065C459.249 280.068 463.609 279.14 467.482 279.35C555.99 283.936 640.08 305.091 717.481 348.851C746.793 365.433 773.25 386.501 791.09 416.263C811.181 449.767 804.169 485.588 772.371 508.102C754.229 520.933 733.777 529.173 712.255 534.676C709.338 535.434 706.012 536.997 703.579 534.096C701.145 531.196 703.232 528.236 704.564 525.503C707.619 519.163 712.296 514.045 716.984 508.876C732.539 491.674 733.178 480.893 721.297 461.009C703.6 431.424 675.134 415.936 644.957 403.378C569.212 371.801 489.564 358 408.079 352.926C398.631 352.337 399.887 357.473 401.668 363.045C408.88 385.837 421.39 405.649 436.101 424.271C484.14 485.212 546.391 527.078 616.168 558.958C669.616 583.38 722.53 608.856 768.569 646.209C817.368 685.799 853.037 734.259 865.952 796.882C874.225 836.985 870.085 875.733 845.025 909.597C819.838 943.614 784.699 954.734 743.768 948.898C727.024 946.52 727.135 945.77 726.842 962.771C725.485 1041.92 792.851 1100.01 870.729 1086.87C894.772 1082.8 916.01 1062.81 920.952 1039.59C924.574 1022.56 916.795 1006.16 902.215 1000.03C886.769 993.54 871.348 998.608 860.718 1013.31C858.233 1016.76 857.436 1024.18 851.828 1022.15C845.768 1019.96 847.768 1012.82 848.232 1007.66C850.096 987.38 869.078 970.339 891.506 967.234C928.17 962.163 958.438 992.796 968.64 1018.87C986.705 1064.96 964.804 1103.45 925.32 1132.76C877.586 1168.18 826.679 1164.71 775.147 1140.54C742.97 1125.45 716.682 1103.4 695.645 1074.88C694.511 1073.33 693.227 1071.85 691.876 1070.49C691.413 1070.01 690.528 1069.93 689.725 1069.62C686.206 1072.08 685.972 1076.22 684.974 1079.75C665.808 1148.07 651.835 1217.13 653.375 1288.63C654.091 1321.85 660.658 1353.79 671 1385.13C674.549 1395.87 680.516 1405.51 687.919 1413.97C709.705 1438.93 745.987 1440.22 770.59 1417.28C793.459 1395.94 794.265 1360.6 772.404 1337.25C757.37 1321.18 732.51 1318.8 712.973 1331.62C707.505 1335.22 702.512 1339.6 696.095 1341.64C693.84 1342.36 691.592 1343.11 689.564 1341.27C687.132 1339.09 687.486 1336.38 688.668 1333.81C714.918 1276.7 761.578 1262.71 809.413 1304.89C851.917 1342.39 854.157 1422.06 817.863 1465.15C783.362 1506.16 730.257 1515.54 681.51 1489.66C640.792 1468.05 615.056 1434.35 599.975 1391.42C574.97 1320.23 577.945 1248.02 590.95 1175.25C597.468 1138.75 605.47 1102.59 613.43 1065.56ZM333.841 360.119C358.778 353.389 374.522 327.039 368.036 302.924C361.491 278.586 333.365 262.31 309.082 268.792C285.627 275.053 268.762 303.936 275.006 327.06C281.77 352.036 308.388 366.987 333.841 360.119Z" fill="url(#paint0_linear_2171_1529)" fill-opacity="0.4"/>
</g>
<defs>
<filter id="filter0_f_2171_1529" x="-0.000144839" y="-0.000144839" width="975.733" height="1504.77" filterUnits="userSpaceOnUse" color-interpolation-filters="sRGB">
<feFlood flood-opacity="0" result="BackgroundImageFix"/>
<feBlend mode="normal" in="SourceGraphic" in2="BackgroundImageFix" result="shape"/>
<feGaussianBlur stdDeviation="0.340893" result="effect1_foregroundBlur_2171_1529"/>
</filter>
<linearGradient id="paint0_linear_2171_1529" x1="711.2" y1="1514.61" x2="323.566" y2="67.9369" gradientUnits="userSpaceOnUse">
<stop offset="0.0432692" stop-color="#0A00C2"/>
<stop offset="0.360577" stop-color="#2014FF"/>
<stop offset="1" stop-color="#6D65FF"/>
</linearGradient>
</defs>
</svg>
