<svg width="976" height="782" viewBox="0 0 976 782" fill="none" xmlns="http://www.w3.org/2000/svg">
<g opacity="0.7" filter="url(#filter0_f_2171_1529)">
<path d="M613.43 529.352C604.459 537.709 595.925 546.621 586.415 554.306C563.57 572.789 537.851 584.217 507.82 583.671C476.775 583.108 451.083 563.995 445.87 537.643C439.581 505.842 455.13 473.927 483.062 461.354C509.471 449.453 536.467 461.159 542.92 487.299C547.452 505.648 541.192 518.031 525.48 521.833C510.35 525.479 500.512 518.057 495.642 499.343C485.058 505.083 483.168 511.735 489.505 521.054C497.625 532.993 511.537 538.507 525.945 535.751C540.532 532.946 552.515 525.439 563.067 515.458C584.077 495.594 598.744 471.764 604.52 443.332C608.934 421.554 604.66 416.266 582.653 414.313C508.499 407.754 440.677 424.199 381.657 471.074C369.824 480.486 359.394 491.37 354.615 506.501C350.333 520.083 353.145 532.1 363.593 541.35C373.778 550.335 384.866 548.18 395.679 541.322C399.107 539.155 403.022 535.49 407.277 538.382C411.47 541.22 409.412 546.26 409.17 550.285C408.117 568.931 387.859 584.345 366.821 582.781C315.654 578.968 287.338 524.264 311.741 476.39C326.534 447.39 349.004 425.358 375.511 407.286C431.861 368.902 494.251 352.786 562.152 357.779C567.097 358.135 572.069 358.507 579.316 359.037C573.725 351.606 569.004 345.814 564.789 339.67C547.613 314.627 537.163 286.197 524.538 258.879C517.061 242.711 509.279 226.745 497.187 213.422C486.792 201.949 473.175 198.252 458.345 198.986C446.668 199.57 435.168 209.061 432.909 219.532C430.268 231.713 434.865 240.539 446.333 245.892C449.769 247.516 453.71 250.132 452.106 254.715C450.314 259.852 445.315 258.935 441.136 258.567C414.343 256.312 396.862 230.847 402.987 203.089C408.646 177.448 431.653 157.241 458.314 153.986C495.392 149.476 523.272 165.554 546.599 192.501C569.542 218.999 582.274 251.018 595.765 282.641C601.07 295.094 606.587 307.442 613.749 318.942C617.119 324.352 620.259 330.16 626.375 333.274C630.294 328.911 628.101 324.578 628.101 320.545C628.091 283.869 642.99 254.457 672.682 233.49C690.024 221.258 710.135 217.478 731.325 222.65C736.667 223.955 741.476 226.315 746.01 229.349C748.41 230.962 750.032 233.072 748.875 236.191C747.589 239.632 745.036 240.316 741.484 240.139C710.677 238.672 695.104 249.71 686.51 279.45C680.573 300.028 681.804 319.67 694.124 338.236C705.365 355.196 721.273 358.303 739.649 355.755C742.309 355.379 744.892 354.446 747.566 353.946C796.728 344.902 807.552 316.317 800.258 268.223C793.768 225.458 766.844 196.378 734.005 171.379C695.976 142.418 652.588 122.574 611.415 98.9923C555.392 66.9314 499.468 34.7 450.225 -7.53127C408.087 -43.6728 370.055 -83.483 342.863 -132.559C341.245 -135.462 340.411 -140.279 336.584 -140.046C332.213 -139.787 331.302 -134.766 330.095 -131.298C311.611 -77.6404 321.597 -28.6352 354.762 16.3919C362.992 27.5807 371.968 38.234 380.483 49.2269C382.391 51.692 384.074 54.7458 381.897 57.7295C379.439 61.1004 376.283 59.3538 373.663 57.7274C339.515 36.5359 308.37 12.2117 288.616 -23.9746C269.947 -58.1712 260.473 -94.7835 259.774 -133.675C259.571 -145.359 258.347 -146.255 247.183 -140.887C204.814 -120.557 161.4 -103.499 113.846 -100.551C88.4171 -98.9701 63.594 -101.488 41.6611 -116.423C25.4294 -127.461 15.9806 -142.836 17.5807 -162.396C18.939 -179.275 29.4333 -191.352 44.874 -198.586C56.4531 -204.017 71.2652 -201.145 79.0184 -192.277C87.328 -182.765 87.78 -173.284 78.8127 -160.704C74.3291 -154.414 75.5632 -151.6 81.7086 -148.374C99.7592 -138.88 118.075 -139.683 136.671 -146.25C174.987 -159.757 202.584 -186.931 227.514 -217.519C236.116 -228.058 242.348 -240.097 249.393 -251.611C254.1 -259.305 253.38 -266.65 247.845 -273.064C209.896 -316.953 166.15 -348.439 103.543 -339.225C77.1236 -335.338 56.9173 -316.505 55.2123 -293.485C54.5277 -284.036 57.4463 -276.368 65.9198 -272.157C74.359 -267.986 82.9439 -270.526 89.8616 -275.884C97.0181 -281.426 95.558 -289.653 93.5057 -297.312C92.4435 -301.276 88.8152 -305.321 92.694 -309.121C96.7442 -313.087 101.369 -310.341 105.659 -308.754C118.902 -303.853 126.627 -294.641 127.537 -280.314C128.656 -262.611 120.782 -249.267 105.756 -241.112C80.3132 -227.31 53.8627 -226.943 29.9459 -243.459C6.38194 -259.733 -3.4027 -283.708 2.24001 -312.369C6.85092 -335.832 22.3661 -352.015 41.3442 -364.95C89.9647 -398.141 142.57 -399.082 196.758 -382.469C230.08 -372.242 259.056 -353.865 285.854 -331.881C295.304 -324.115 296.247 -324.272 300.534 -335.862C312.544 -368.174 325.255 -399.928 349.643 -425.642C368.808 -445.852 391.251 -457.051 419.439 -456.13C444.481 -455.303 466.021 -431.981 464.536 -406.883C464.251 -402.126 463.647 -397.211 458.682 -395.137C453.371 -392.922 451.213 -397.84 448.613 -400.912C436.506 -415.191 428.33 -417.753 403.033 -404.302C363.176 -383.108 349.887 -345.27 347.411 -302.551C346.852 -292.991 353.346 -293.123 359.931 -294.168C400.935 -300.69 440.796 -311.298 478.544 -328.806C515.717 -346.04 552.906 -363.398 583.206 -392.041C597.434 -405.503 609.397 -420.518 613.954 -440.151C617.757 -456.508 611.518 -472.984 598.45 -482.156C585.354 -491.345 570.857 -491.518 557.208 -482.796C553.212 -480.237 549.971 -477.016 547.547 -472.982C543.056 -465.465 539.175 -457.464 544.714 -449.155C549.734 -441.618 558.171 -442.559 565.871 -443.206C571.224 -443.656 576.485 -445.161 581.827 -445.921C583.746 -446.195 585.645 -445.287 586.7 -443.41C587.826 -441.359 587.14 -439.351 585.322 -438.432C570.824 -430.994 558.335 -418.478 539.763 -421.495C511.378 -426.108 496.533 -452.039 507.44 -478.702C527.988 -529.048 575.127 -548.328 625.122 -526.846C648.452 -516.822 664.233 -489.461 663.197 -460.45C662.149 -431.124 650.543 -405.547 633.057 -382.834C593.285 -331.13 543.001 -293.22 481.53 -270.628C472.945 -267.464 464.5 -263.952 454.84 -260.14C459.249 -256.136 463.609 -257.065 467.482 -256.854C555.99 -252.269 640.08 -231.113 717.481 -187.353C746.793 -170.771 773.25 -149.703 791.09 -119.941C811.181 -86.438 804.169 -50.617 772.371 -28.1024C754.229 -15.2719 733.777 -7.03127 712.255 -1.52864C709.338 -0.7709 706.012 0.792316 703.579 -2.10826C701.145 -5.00884 703.232 -7.96857 704.564 -10.7019C707.619 -17.0412 712.296 -22.1593 716.984 -27.3281C732.539 -44.5302 733.178 -55.3115 721.297 -75.196C703.6 -104.78 675.134 -120.269 644.957 -132.826C569.212 -164.404 489.564 -178.204 408.079 -183.279C398.631 -183.868 399.887 -178.732 401.668 -173.16C408.88 -150.368 421.39 -130.556 436.101 -111.934C484.14 -50.9927 546.391 -9.12647 616.168 22.7537C669.616 47.1752 722.53 72.6517 768.569 110.004C817.368 149.594 853.037 198.055 865.952 260.678C874.225 300.78 870.085 339.528 845.025 373.392C819.838 407.41 784.699 418.529 743.768 412.694C727.024 410.315 727.135 409.565 726.842 426.567C725.485 505.712 792.851 563.803 870.729 550.665C894.772 546.599 916.01 526.602 920.952 503.386C924.574 486.356 916.795 469.957 902.215 463.83C886.769 457.335 871.348 462.404 860.718 477.11C858.233 480.56 857.436 487.975 851.828 485.949C845.768 483.756 847.768 476.619 848.232 471.454C850.096 451.175 869.078 434.135 891.506 431.03C928.17 425.958 958.438 456.591 968.64 482.662C986.705 528.759 964.804 567.249 925.32 596.552C877.586 631.978 826.679 628.504 775.147 604.337C742.97 589.243 716.682 567.193 695.645 538.672C694.511 537.127 693.227 535.647 691.876 534.281C691.413 533.805 690.528 533.73 689.725 533.417C686.206 535.872 685.972 540.016 684.974 543.548C665.808 611.862 651.835 680.922 653.375 752.426C654.091 785.648 660.658 817.59 671 848.929C674.549 859.668 680.516 869.303 687.919 877.762C709.705 902.721 745.987 904.018 770.59 881.078C793.459 859.732 794.265 824.398 772.404 801.042C757.37 784.979 732.51 782.591 712.973 795.411C707.505 799.012 702.512 803.399 696.095 805.431C693.84 806.155 691.592 806.901 689.564 805.068C687.132 802.887 687.486 800.176 688.668 797.603C714.918 740.496 761.578 726.505 809.413 768.682C851.917 806.189 854.157 885.859 817.863 928.95C783.362 969.952 730.257 979.333 681.51 953.46C640.792 931.844 615.056 898.149 599.975 855.214C574.97 784.021 577.945 711.811 590.95 639.05C597.468 602.545 605.47 566.387 613.43 529.352ZM333.841 -176.085C358.778 -182.815 374.522 -209.166 368.036 -233.28C361.491 -257.619 333.365 -273.895 309.082 -267.412C285.627 -261.152 268.762 -232.268 275.006 -209.145C281.77 -184.169 308.388 -169.217 333.841 -176.085Z" fill="url(#paint0_linear_2171_1529)" fill-opacity="0.4"/>
</g>
<defs>
<filter id="filter0_f_2171_1529" x="-0.000144839" y="-536.205" width="975.733" height="1504.77" filterUnits="userSpaceOnUse" color-interpolation-filters="sRGB">
<feFlood flood-opacity="0" result="BackgroundImageFix"/>
<feBlend mode="normal" in="SourceGraphic" in2="BackgroundImageFix" result="shape"/>
<feGaussianBlur stdDeviation="0.340893" result="effect1_foregroundBlur_2171_1529"/>
</filter>
<linearGradient id="paint0_linear_2171_1529" x1="711.2" y1="978.404" x2="323.566" y2="-468.268" gradientUnits="userSpaceOnUse">
<stop offset="0.0432692" stop-color="#0A00C2"/>
<stop offset="0.360577" stop-color="#2014FF"/>
<stop offset="1" stop-color="#6D65FF"/>
</linearGradient>
</defs>
</svg>
