<svg width="1440" height="260" viewBox="0 0 1440 260" fill="none" xmlns="http://www.w3.org/2000/svg">
<g filter="url(#filter0_f_2171_1318)">
<path d="M-102 100C-208.591 100 -295 141.227 -295 192.082C-295 229.931 -247.139 262.444 -178.718 276.601C-180.877 281.313 -182 286.143 -182 291.064C-182 341.96 -62.0429 383.22 85.9317 383.22C163.265 383.22 232.945 371.95 281.851 353.926C324.538 386.367 423.292 406.698 535.985 402.437C615.11 399.445 685.053 384.935 732.183 364.299C780.837 387.501 860.107 402.606 949.634 402.607C1053.64 402.607 1143.8 382.223 1188.2 352.438C1237.27 371.326 1308.63 383.22 1388.07 383.22C1536.04 383.22 1656 341.96 1656 291.063C1656 283.605 1653.42 276.355 1648.56 269.41C1699.98 253.002 1734 224.499 1734 192.082C1734 141.227 1650.28 100 1547 100C1443.72 100 1360 141.227 1360 192.082C1360 194.54 1360.2 196.976 1360.58 199.386C1268.34 202.619 1189.94 221.948 1149.5 249.075C1100.43 230.186 1029.07 218.294 949.634 218.294C867.425 218.294 793.864 231.03 744.715 251.077C694.362 228.154 610.925 214.951 518.014 218.464C443.433 221.284 377.008 234.337 330.157 253.109C288.69 221.592 197.171 199.532 90.4756 198.922C90.8231 196.664 91 194.383 91 192.082C90.9998 141.227 4.59082 100 -102 100Z" fill="url(#paint0_linear_2171_1318)"/>
</g>
<defs>
<filter id="filter0_f_2171_1318" x="-395" y="0" width="2229" height="502.999" filterUnits="userSpaceOnUse" color-interpolation-filters="sRGB">
<feFlood flood-opacity="0" result="BackgroundImageFix"/>
<feBlend mode="normal" in="SourceGraphic" in2="BackgroundImageFix" result="shape"/>
<feGaussianBlur stdDeviation="50" result="effect1_foregroundBlur_2171_1318"/>
</filter>
<linearGradient id="paint0_linear_2171_1318" x1="1656" y1="308.696" x2="-182" y2="308.696" gradientUnits="userSpaceOnUse">
<stop stop-color="white"/>
<stop offset="1" stop-color="white"/>
</linearGradient>
</defs>
</svg>
